<?xml version="1.0" standalone="no"?>
<!DOCTYPE svg PUBLIC "-//W3C//DTD SVG 1.1//EN" "http://www.w3.org/Graphics/SVG/1.1/DTD/svg11.dtd" >
<svg xmlns="http://www.w3.org/2000/svg" xmlns:xlink="http://www.w3.org/1999/xlink" version="1.1">
<metadata>
Created by FontForge 20201107 at Sun Apr 11 16:23:02 2021
 By 
Copyright (c) 2019-2021 Monotype Imaging Inc. All rights reserved
</metadata>
<defs>
<font id="HelveticaNowVar" horiz-adv-x="0" >
  <font-face 
    font-family="Helvetica Now Var"
    font-weight="400"
    font-stretch="normal"
    units-per-em="4000"
    panose-1="1 0 0 0 0 0 0 0 0 0"
    ascent="3200"
    descent="-800"
    x-height="2064"
    cap-height="2848"
    bbox="-1884 -1312 5796 4068"
    underline-thickness="200"
    underline-position="-400"
    unicode-range="U+000D-FEFF"
  />
<missing-glyph horiz-adv-x="2932" 
d="M340 0v2848h2252v-2848h-2252zM712 324h1508v2200h-1508v-2200z" />
    <glyph glyph-name="fi" unicode="fi" horiz-adv-x="2364" 
d="M416 0v1436v488v304q0 217 65 353.5t201.5 201.5t353.5 65h103h103h7h7v-308h-29.5h-28.5h-76.5h-77.5q-100 0 -155.5 -24.5t-80 -80t-24.5 -155.5v-364v-492v-1424h-368zM80 1780v284l520 -20l656 20v-284l-656 20zM1676 0v2064h368v-2064h-368zM1676 2452v396h368v-396
h-368z" />
    <glyph glyph-name="fl" unicode="fl" horiz-adv-x="2364" 
d="M416 0v1436v488v304q0 217 65 353.5t201.5 201.5t353.5 65h103h103h7h7v-308h-29.5h-28.5h-76.5h-77.5q-100 0 -155.5 -24.5t-80 -80t-24.5 -155.5v-364v-492v-1424h-368zM80 1780v284l520 -20l656 20v-284l-656 20zM1676 0v2848h368v-2848h-368z" />
    <glyph glyph-name=".notdef" horiz-adv-x="2932" 
d="M340 0v2848h2252v-2848h-2252zM712 324h1508v2200h-1508v-2200z" />
    <glyph glyph-name=".null" 
 />
    <glyph glyph-name="nonmarkingreturn" horiz-adv-x="1333" 
 />
    <glyph glyph-name="NULL" 
 />
    <glyph glyph-name="NULL" 
 />
    <glyph glyph-name="CR" unicode="&#xd;" horiz-adv-x="1080" 
 />
    <glyph glyph-name="space" unicode=" " horiz-adv-x="1080" 
 />
    <glyph glyph-name="exclam" unicode="!" horiz-adv-x="1132" 
d="M472 756l-92 1296v796h372v-796l-92 -1296h-188zM340 0v404h452v-404h-452z" />
    <glyph glyph-name="quotedbl" unicode="&#x22;" horiz-adv-x="1800" 
d="M340 1744v1104h328v-1104h-328zM1132 1744v1104h328v-1104h-328z" />
    <glyph glyph-name="quotedbl" unicode="&#x2033;" horiz-adv-x="1800" 
d="M340 1744v1104h328v-1104h-328zM1132 1744v1104h328v-1104h-328z" />
    <glyph glyph-name="numbersign" unicode="#" horiz-adv-x="2688" 
d="M1482 0l400 2848h300l-400 -2848h-300zM170 744v300l612 -16h1024l560 16v-300l-584 16h-1036zM506 0l400 2848h300l-400 -2848h-300zM322 1804v304l600 -16h1020l576 16v-304l-604 16h-1032z" />
    <glyph glyph-name="dollar" unicode="$" horiz-adv-x="2720" 
d="M1380 -20q-315 0 -545.5 101.5t-370.5 301.5t-184 493h355q31 -192 119.5 -322t247 -198t394.5 -68t394 64.5t234 177t76 258.5q0 143 -66.5 236t-185.5 147t-296 89l-388 76q-257 50 -432 154.5t-263.5 259t-88.5 354.5q0 233 116.5 405t342.5 265.5t545 93.5
q307 0 521 -96.5t332.5 -271t148.5 -412.5h-353q-29 161 -112 265.5t-220.5 155.5t-332.5 51q-205 0 -345 -49.5t-211.5 -148.5t-71.5 -246q0 -118 58 -208t176 -153t298 -99l392 -80q242 -49 417 -137t277 -237.5t102 -369.5q0 -262 -135 -454.5t-379.5 -295t-565.5 -102.5
zM1236 -576v3964h308v-3964h-308z" />
    <glyph glyph-name="percent" unicode="%" horiz-adv-x="4316" 
d="M1080 -60l1784 2968h372l-1784 -2968h-372zM928 1180q-218 0 -367 98.5t-225 291.5t-76 474q0 276 75.5 468.5t224.5 292t368 99.5q220 0 370.5 -99.5t226 -291.5t75.5 -469q0 -282 -76.5 -474.5t-226.5 -291t-369 -98.5zM932 1464q118 0 194.5 59t115 187t38.5 334
q0 204 -38.5 331t-115 186t-194.5 59q-120 0 -197.5 -59t-116 -185.5t-38.5 -331.5q0 -207 38.5 -334.5t116 -186.5t197.5 -59zM3384 -56q-217 0 -366.5 99t-225.5 291t-76 470t75.5 471t224.5 293t368 100q221 0 371 -100t225.5 -292.5t75.5 -471.5q0 -278 -76.5 -470
t-226.5 -291t-369 -99zM3384 228q119 0 196.5 58t116.5 185t39 333t-39.5 334t-117 187t-195.5 59q-120 0 -196.5 -59t-114 -186.5t-37.5 -334.5t37.5 -333.5t114 -184.5t196.5 -58z" />
    <glyph glyph-name="ampersand" unicode="&#x26;" horiz-adv-x="3132" 
d="M1028 1532q-144 146 -224 268t-110 225.5t-30 210.5q0 197 96.5 349t269 235.5t394.5 83.5q221 0 395 -81t271.5 -231t97.5 -348q0 -184 -85.5 -331.5t-245 -259t-389.5 -193.5l-200 236q192 61 316.5 137t186 173.5t61.5 221.5q0 111 -55.5 193.5t-149.5 126.5t-207 44
q-109 0 -200 -40.5t-145.5 -120t-54.5 -191.5q0 -57 17.5 -121.5t64 -141t126.5 -157.5l1804 -1824h-488zM1340 -64q-301 0 -532 103t-359.5 294t-128.5 447q0 216 89 387.5t277.5 296.5t481.5 196l208 -228q-231 -50 -388.5 -138t-238.5 -213.5t-81 -288.5
q0 -158 79.5 -282t234 -195t370.5 -71q137 0 268 32.5t261 120t239 243.5l248 -204q-140 -172 -297 -282.5t-337.5 -164t-393.5 -53.5zM2204 744q45 81 76.5 168t51 178.5t31.5 193.5h355q-19 -140 -54 -269t-91.5 -252.5t-136.5 -238.5z" />
    <glyph glyph-name="quotesingle" unicode="'" horiz-adv-x="1008" 
d="M340 1744v1104h328v-1104h-328z" />
    <glyph glyph-name="quotesingle" unicode="&#x2032;" horiz-adv-x="1008" 
d="M340 1744v1104h328v-1104h-328z" />
    <glyph glyph-name="parenleft" unicode="(" horiz-adv-x="1354" 
d="M868 -816q-209 282 -344 576.5t-201.5 618t-66.5 689.5q0 368 66.5 700.5t202 636t343.5 583.5h316q-186 -282 -310 -586.5t-187 -637t-63 -696.5q0 -361 63 -684.5t186.5 -619.5t310.5 -580h-316z" />
    <glyph glyph-name="parenright" unicode=")" horiz-adv-x="1354" 
d="M170 -816q187 284 310.5 580t186.5 619.5t63 684.5q0 364 -63 696.5t-187 637t-310 586.5h316q208 -280 343.5 -583.5t202 -636t66.5 -700.5q0 -366 -66.5 -689.5t-201.5 -618t-344 -576.5h-316z" />
    <glyph glyph-name="asterisk" unicode="*" horiz-adv-x="2172" 
d="M752 1424l-252 164l388 472l-568 180l104 260l540 -224l-20 572h284l-20 -572l540 224l104 -260l-568 -180l376 -472l-236 -164l-336 500z" />
    <glyph glyph-name="plus" unicode="+" horiz-adv-x="2640" 
d="M1160 324v2196h320v-2196h-320zM224 1260v320h2196v-320h-2196z" />
    <glyph glyph-name="comma" unicode="," horiz-adv-x="1132" 
d="M344 -664v200h40q62 0 104 21t63 63t21 104v328l52 -52h-284v404h440v-636q0 -144 -44 -240t-132 -144t-220 -48h-40z" />
    <glyph glyph-name="hyphen" unicode="-" horiz-adv-x="1520" 
d="M200 944v332h1120v-332h-1120z" />
    <glyph glyph-name="period" unicode="." horiz-adv-x="1132" 
d="M340 0v404h452v-404h-452z" />
    <glyph glyph-name="slash" unicode="/" horiz-adv-x="1872" 
d="M160 0l1184 2848h368l-1184 -2848h-368z" />
    <glyph glyph-name="zero" unicode="0" horiz-adv-x="2560" 
d="M1276 -48q-327 0 -544.5 160t-326.5 486.5t-109 825.5q0 505 110.5 831t329.5 483.5t548 157.5t546 -157t325.5 -483t108.5 -832q0 -498 -111 -824.5t-330 -487t-547 -160.5zM1284 276q214 0 345 118t193 369.5t62 660.5q0 406 -63 658t-195.5 371t-345.5 119
t-345.5 -119t-195.5 -371t-63 -658q0 -408 63.5 -659.5t197 -370t347.5 -118.5z" />
    <glyph glyph-name="one" unicode="1" horiz-adv-x="1792" 
d="M910 2188q-91 -60 -208 -98.5t-250 -56t-282 -17.5v328q245 0 402 44t257 153t153 307h300v-2848h-372v2188z" />
    <glyph glyph-name="two" unicode="2" horiz-adv-x="2560" 
d="M328 4q18 274 95 477t213.5 355t343.5 280l496 308q126 78 210 158.5t131 187t47 246.5q0 166 -66.5 286t-190 183t-291.5 63q-177 0 -302.5 -71t-191.5 -212t-66 -349v-44h-372v60q0 288 117 502.5t329.5 330t493.5 115.5q263 0 470 -102t324.5 -294t117.5 -452
q0 -178 -60 -334t-179.5 -290t-300.5 -248l-356 -224q-239 -150 -357.5 -253.5t-164.5 -204.5t-46 -246l-160 104h716h892v-336h-1892v4z" />
    <glyph glyph-name="three" unicode="3" horiz-adv-x="2560" 
d="M1284 -56q-321 0 -558.5 114t-369.5 330t-143 516h372q9 -209 93 -349t238 -209.5t376 -69.5q225 0 376 68.5t225.5 192.5t74.5 291q0 158 -65.5 270.5t-199.5 173t-335 60.5h-304v324h204q180 0 300.5 51.5t180 149.5t59.5 239q0 151 -64.5 252.5t-189.5 152.5t-306 51
q-188 0 -308.5 -57.5t-183 -180.5t-71.5 -322h-372q11 285 127 485t325.5 303.5t498.5 103.5q275 0 484.5 -94t324.5 -265t115 -397q0 -143 -50.5 -262.5t-160.5 -213.5t-285 -152v32q219 -34 365.5 -127.5t218.5 -239t72 -337.5q0 -265 -133 -465t-374 -309.5t-557 -109.5z
" />
    <glyph glyph-name="four" unicode="4" horiz-adv-x="2560" 
d="M1512 0v740v192v1544l84 -32l-1096 -1576v128h1196h648v-324h-648h-1480v348l1272 1828h396v-2848h-372z" />
    <glyph glyph-name="five" unicode="5" horiz-adv-x="2560" 
d="M1256 -64q-270 0 -474 98t-326 282t-152 440h361q25 -172 108.5 -287t210 -170t284.5 -55q192 0 327.5 80t206 230t70.5 358t-72 357.5t-207.5 228t-320.5 78.5q-113 0 -208.5 -28.5t-174 -83.5t-141.5 -136h-372l284 1520h1440v-336h-1180l-168 -892l-28 32
q91 73 180.5 123.5t199.5 79.5t244 29q281 0 486 -128t311.5 -347t106.5 -489q0 -280 -115.5 -503.5t-340.5 -352t-540 -128.5z" />
    <glyph glyph-name="six" unicode="6" horiz-adv-x="2560" 
d="M1292 -56q-153 0 -284.5 37t-239.5 109t-192 178q-95 120 -156.5 281.5t-90.5 362t-29 444.5q0 483 116.5 830t347.5 532.5t568 185.5q239 0 427.5 -90.5t299.5 -258.5t125 -395h-352q-18 135 -84.5 233.5t-174.5 150.5t-249 52q-224 0 -372.5 -134t-222 -404t-73.5 -678
q0 -56 1.5 -93.5t6.5 -74.5h-116v64q64 183 180 312.5t276.5 196.5t355.5 67q267 0 470 -116.5t314.5 -327t111.5 -484.5q0 -292 -118.5 -514t-336.5 -344t-509 -122zM1300 252q175 0 307 79t204.5 226.5t72.5 346.5q0 196 -70.5 340.5t-201.5 222t-308 77.5
q-175 0 -310 -78t-210.5 -220.5t-75.5 -329.5q0 -102 18.5 -191.5t55 -164t90.5 -132.5q52 -56 118.5 -95.5t144.5 -60t165 -20.5z" />
    <glyph glyph-name="seven" unicode="7" horiz-adv-x="2560" 
d="M700 0q60 570 207.5 1023t395 818t609.5 663h-536h-1200v344h2184v-288q-386 -291 -647.5 -659t-413 -836.5t-203.5 -1064.5h-396z" />
    <glyph glyph-name="eight" unicode="8" horiz-adv-x="2560" 
d="M1280 -64q-305 0 -550 100t-387.5 295t-142.5 469q0 187 68.5 335t194 249t297.5 152v-4q-132 58 -226.5 151t-144 216t-49.5 269q0 224 117.5 388.5t330 252t492.5 87.5t492.5 -87.5t330 -252t117.5 -388.5q0 -146 -50.5 -270t-145 -217t-224.5 -149v4
q172 -51 297.5 -152t194 -249t68.5 -335q0 -274 -142.5 -469t-387.5 -295t-550 -100zM1280 244q215 0 372.5 68.5t242.5 196.5t85 303q0 172 -84.5 297.5t-242.5 192t-373 66.5t-373 -66.5t-242.5 -192t-84.5 -297.5q0 -175 85 -303t242.5 -196.5t372.5 -68.5zM1280 1676
q187 0 319 54.5t200.5 159.5t68.5 254q0 147 -68.5 246t-199.5 148.5t-320 49.5t-320 -49.5t-199.5 -148.5t-68.5 -246q0 -149 69.5 -254t201.5 -159.5t317 -54.5z" />
    <glyph glyph-name="nine" unicode="9" horiz-adv-x="2560" 
d="M1268 2904q154 0 285 -36.5t239 -108.5t192 -179q95 -121 156 -282.5t90.5 -362t29.5 -443.5q0 -483 -116.5 -830t-347.5 -532.5t-568 -185.5q-239 0 -427.5 90.5t-299.5 258.5t-125 395h352q18 -135 84.5 -233.5t174.5 -150.5t249 -52q224 0 372.5 134t222 404t73.5 678
q0 56 -1.5 93.5t-6.5 74.5h116v-64q-64 -183 -180 -312.5t-276.5 -196.5t-355.5 -67q-267 0 -470 116.5t-314.5 327t-111.5 484.5q0 292 118.5 514t336.5 344t509 122zM1260 2596q-175 0 -307 -79t-204.5 -226.5t-72.5 -346.5q0 -196 70.5 -340.5t201.5 -222t308 -77.5
q175 0 310 78t210.5 220.5t75.5 329.5q0 102 -18.5 191.5t-55 164t-90.5 132.5q-52 56 -118.5 95.5t-144.5 60t-165 20.5z" />
    <glyph glyph-name="colon" unicode=":" horiz-adv-x="1132" 
d="M340 1660v404h452v-404h-452zM340 0v404h452v-404h-452z" />
    <glyph glyph-name="semicolon" unicode=";" horiz-adv-x="1132" 
d="M344 -664v200h40h4.5h5.5q58 1 98 23t60 63.5t20 101.5v328l52 -52h-284v404h440v-636q0 -144 -44 -240t-132 -144t-220 -48h-40zM340 1660v404h452v-404h-452z" />
    <glyph glyph-name="less" unicode="&#x3c;" horiz-adv-x="2640" 
d="M2416 396l-2188 832v392l2188 828v-360l-1032 -376q-2 -1 -5 -2t-5 -2q-147 -53 -294 -106.5l-294 -107t-294 -106.5v72q148 -54 295 -108l294 -108t295 -108l1040 -380v-360z" />
    <glyph glyph-name="equal" unicode="=" horiz-adv-x="2640" 
d="M264 1700v320h2116v-320h-2116zM264 824v320h2116v-320h-2116z" />
    <glyph glyph-name="greater" unicode="&#x3e;" horiz-adv-x="2640" 
d="M228 396v360l1032 376q148 54 297 108l298 108t297 108v-72q-146 54 -291.5 107.5t-291 106.5t-291.5 106q-2 1 -5 2t-5 2l-1040 380v360l2188 -832v-392z" />
    <glyph glyph-name="question" unicode="?" horiz-adv-x="2436" 
d="M972 828q0 189 49.5 321.5t154.5 235.5t284 207q23 13 44 26.5t41 27.5q110 74 174 150.5t90.5 154t26.5 165.5q0 165 -80 274t-221.5 161.5t-326.5 52.5q-221 0 -362 -73t-210.5 -211.5t-78.5 -339.5h-354q17 282 131.5 488t333 319t540.5 113q290 0 509.5 -92
t341 -270.5t121.5 -429.5q0 -158 -47.5 -287.5t-162.5 -250.5t-314 -238q-140 -83 -212 -160t-98 -163t-26 -213v-40h-348v72zM920 0v404h452v-404h-452z" />
    <glyph glyph-name="at" unicode="@" horiz-adv-x="4320" 
d="M2944 -568q-110 -37 -224.5 -62.5t-245 -39.5t-278.5 -14q-566 0 -984.5 215t-645 619t-226.5 958q0 542 227 951.5t647 633t982 223.5q554 0 957.5 -211.5t615 -575.5t211.5 -813q0 -316 -103 -572.5t-293 -404t-440 -147.5q-160 0 -273.5 56t-178 173t-76.5 299v48h40
v800h-40l32 388h296v-1268q0 -67 24.5 -118.5t74 -80.5t121.5 -29q132 0 245 88t182 270.5t69 453.5q0 387 -174 690t-507.5 474.5t-794.5 171.5q-469 0 -802.5 -181t-507.5 -518t-174 -801q0 -469 173.5 -804t506.5 -511.5t804 -176.5q210 0 399 34.5t361 97.5v-316z
M2092 192q-238 0 -410.5 114t-263 321t-90.5 481q0 277 96 480.5t269 311.5t399 108q141 0 263 -49t215 -144t146 -231v-968q-53 -136 -147 -231t-216 -144t-261 -49zM2136 448q160 0 271 88.5t168 240t61 343.5q-4 188 -65 330t-172 220t-263 78q-154 0 -259.5 -77
t-159 -220.5t-53.5 -342.5q0 -198 53.5 -347t159.5 -231t259 -82z" />
    <glyph glyph-name="A" unicode="A" horiz-adv-x="2864" 
d="M120 0l1104 2848h420l1100 -2848h-412l-684 1904q-50 139 -93 265t-82.5 248t-80.5 255h84q-36 -124 -75.5 -244.5t-87 -253.5t-97.5 -270l-700 -1904h-396zM652 836l120 324h1344l112 -324h-1576z" />
    <glyph glyph-name="B" unicode="B" horiz-adv-x="2892" 
d="M340 0v2848h1284q259 0 447 -82.5t288.5 -239t100.5 -374.5q0 -213 -98 -367.5t-285.5 -240.5t-452.5 -96v152q331 -22 545 -112.5t318.5 -253.5t104.5 -406q0 -257 -111.5 -443.5t-323 -285.5t-505.5 -99h-1312zM712 204l-32 120h944q194 0 325 57t197 169t66 278
q0 164 -67 275.5t-198 168t-323 56.5h-960v312h880q173 0 293 54t181.5 157t61.5 249q0 141 -57.5 235.5t-168.5 141.5t-274 47h-932l64 168v-2488z" />
    <glyph glyph-name="C" unicode="C" horiz-adv-x="3048" 
d="M1604 -68q-410 0 -715.5 191t-469 530t-163.5 771q0 434 165.5 768.5t470 521t708.5 186.5q311 0 574 -112t435 -318.5t219 -481.5h-380q-48 187 -164.5 319.5t-287.5 200.5t-380 68q-304 0 -524.5 -138.5t-338 -398t-117.5 -615.5q0 -357 117 -620.5t337.5 -405.5
t525.5 -142q238 0 422 88t301 262.5t152 429.5h367q-47 -341 -212.5 -590t-431.5 -381.5t-610 -132.5z" />
    <glyph glyph-name="D" unicode="D" horiz-adv-x="3016" 
d="M340 0v2848h1028q467 0 778 -171.5t462.5 -489.5t151.5 -763q0 -439 -159 -757.5t-488.5 -492.5t-828.5 -174h-944zM1248 324q368 0 616.5 104.5t382 347.5t133.5 648q0 412 -135.5 654.5t-379 344t-593.5 101.5h-560v-2200h536z" />
    <glyph glyph-name="E" unicode="E" horiz-adv-x="2652" 
d="M340 0v2848h2016v-324h-1644v-2200h1680v-324h-2052zM528 1304v324h1700v-324h-1700z" />
    <glyph glyph-name="F" unicode="F" horiz-adv-x="2388" 
d="M340 0v2848h1948v-324h-1576v-2524h-372zM488 1304v324h1528v-324h-1528z" />
    <glyph glyph-name="G" unicode="G" horiz-adv-x="3228" 
d="M1604 -64q-390 0 -696 181t-479 519.5t-173 795.5q0 438 163.5 770t473.5 515t735 183q322 0 579.5 -107t420 -307.5t208.5 -473.5l-360 -24q-41 197 -158.5 327t-289 191.5t-380.5 61.5q-322 0 -549.5 -139.5t-345 -397.5t-117.5 -611q0 -346 113 -606t333 -403
t530 -143q278 0 472.5 116.5t302 335.5t129.5 528h232v-152q-38 -330 -168 -590t-373.5 -415t-602.5 -155zM2592 0l-72 444v756h-864v324h1232v-1524h-296z" />
    <glyph glyph-name="H" unicode="H" horiz-adv-x="2932" 
d="M2220 0v2848h372v-2848h-372zM340 0v2848h372v-2848h-372zM528 1352v324h1880v-324h-1880z" />
    <glyph glyph-name="I" unicode="I" horiz-adv-x="1052" 
d="M340 0v2848h372v-2848h-372z" />
    <glyph glyph-name="J" unicode="J" horiz-adv-x="2348" 
d="M1116 -48q-284 0 -490.5 96t-316 278t-109.5 434v212h372v-192q0 -166 62 -278t184 -169t302 -57q168 0 283 57t174 169.5t59 277.5v2068h372v-2080q0 -266 -103.5 -448.5t-303 -275t-485.5 -92.5z" />
    <glyph glyph-name="K" unicode="K" horiz-adv-x="2856" 
d="M484 776v456l768 740l908 876h496l-1324 -1264l-64 -48zM340 0v2848h372v-832v-768v-116v-1132h-372zM2272 0l-748 1012l-372 504v228h268l1316 -1744h-464z" />
    <glyph glyph-name="L" unicode="L" horiz-adv-x="2336" 
d="M340 0v2848h372v-2524h1484v-324h-1856z" />
    <glyph glyph-name="M" unicode="M" horiz-adv-x="3620" 
d="M340 0v2848h520l736 -1852q43 -106 84 -214.5t83 -224.5q20 -54 40 -110.5t41 -114.5h-40q49 167 103.5 319t128.5 341l724 1856h520v-2848h-340v1640q0 237 3.5 449.5t12.5 470.5l24 -12q-60 -175 -114 -324t-107.5 -290.5t-114.5 -293.5l-652 -1640h-352l-656 1640
q-42 103 -81.5 203.5t-77.5 200t-75 200.5q-29 80 -58.5 163t-59.5 169h32q4 -81 6.5 -157.5t4.5 -149.5q3 -145 4 -306t1 -323v-1640h-340z" />
    <glyph glyph-name="N" unicode="N" horiz-adv-x="2944" 
d="M340 0v2848h412l1204 -1860q104 -160 206.5 -332t246.5 -422q11 -19 21.5 -37t21.5 -37h-180q-1 30 -2 61l-2 62q-7 203 -11.5 375.5t-4.5 329.5v1860h352v-2848h-424l-1056 1640q-111 173 -223 353.5t-217.5 356.5t-215.5 362h204q6 -179 10.5 -361t7 -359.5t2.5 -351.5
v-1640h-352z" />
    <glyph glyph-name="O" unicode="O" horiz-adv-x="3204" 
d="M1600 -68q-393 0 -698.5 190.5t-475.5 530t-170 771.5q0 428 170 763.5t475.5 524t698.5 188.5q395 0 701.5 -188.5t476.5 -524t170 -763.5q0 -435 -170 -774.5t-476.5 -528.5t-701.5 -189zM1604 256q285 0 503.5 142.5t339.5 406.5t121 619q0 346 -122.5 607.5
t-341.5 403t-500 141.5q-283 0 -502.5 -141.5t-342.5 -403t-123 -607.5q0 -350 123 -615t342.5 -409t502.5 -144z" />
    <glyph glyph-name="P" unicode="P" horiz-adv-x="2600" 
d="M340 0v2848h1172q279 0 485 -91.5t318.5 -274.5t112.5 -450q0 -276 -114.5 -465.5t-322 -284t-487.5 -94.5h-792v-1188h-372zM1512 1512q170 0 292 59t187 175t65 282q0 167 -67 277.5t-192.5 164.5t-304.5 54h-780v-1012h800z" />
    <glyph glyph-name="Q" unicode="Q" horiz-adv-x="3204" 
d="M1600 -68q-393 0 -698.5 190.5t-475.5 530t-170 771.5q0 428 170 763.5t475.5 524t698.5 188.5q395 0 701.5 -188.5t476.5 -524t170 -763.5q0 -432 -170 -771.5t-476.5 -530t-701.5 -190.5zM2696 -248l-508 568l248 144l484 -496zM1604 264q281 0 500 143t341.5 406
t122.5 611q0 344 -122.5 603.5t-341.5 400t-500 140.5q-283 0 -502.5 -140.5t-342.5 -400t-123 -603.5q0 -348 123 -611t342.5 -406t502.5 -143z" />
    <glyph glyph-name="R" unicode="R" horiz-adv-x="2864" 
d="M340 0v2848h1320q269 0 465.5 -92.5t301.5 -262.5t105 -397q0 -211 -87 -374.5t-239 -257.5t-342 -104v40q168 0 295.5 -56.5t205 -167t95.5 -268.5l60 -524q8 -72 15.5 -136.5t14.5 -125t15 -122.5h-376q-8 67 -17 144.5t-17 157.5q-2 16 -4 31.5t-3 30.5l-44 396
q-19 170 -76 272t-163 149t-273 47h-1060v324h1000q194 0 333 59.5t213 173.5t74 275q0 150 -64 253.5t-188.5 157t-303.5 53.5h-1064l180 148v-2672h-372z" />
    <glyph glyph-name="S" unicode="S" horiz-adv-x="2671" 
d="M1367 -60q-357 0 -608.5 108.5t-391.5 326.5t-163 545h356q20 -234 119.5 -384t274.5 -221t425 -71q240 0 403 62.5t244 179t81 278.5q0 136 -59 231.5t-191 162.5t-354 114l-400 84q-249 52 -424.5 140t-275.5 235.5t-100 364.5q0 242 117.5 424t345 283t549.5 101
q314 0 545 -99.5t363.5 -291.5t154.5 -465h-355q-16 179 -104 302t-243.5 186.5t-372.5 63.5q-203 0 -348.5 -55.5t-222.5 -161.5t-77 -255q0 -117 52 -198.5t177 -142t347 -107.5l420 -88q268 -56 449 -161.5t274 -266t93 -380.5q0 -237 -114.5 -427.5t-361 -303.5
t-624.5 -113z" />
    <glyph glyph-name="T" unicode="T" horiz-adv-x="2556" 
d="M1092 0v2688h372v-2688h-372zM140 2524v324h2276v-324h-2276z" />
    <glyph glyph-name="U" unicode="U" horiz-adv-x="2880" 
d="M1440 -64q-346 0 -592.5 112t-377 328.5t-130.5 523.5v1948h372v-1968q0 -196 79.5 -334.5t242 -212t406.5 -73.5t406.5 73.5t242 212t79.5 334.5v1968h372v-1948q0 -307 -130.5 -523.5t-377 -328.5t-592.5 -112z" />
    <glyph glyph-name="V" unicode="V" horiz-adv-x="2816" 
d="M1196 0l-1076 2848h412l628 -1748q57 -161 99.5 -283.5t85 -253.5t95.5 -299h-44q54 166 94.5 289t83.5 248.5t102 298.5l624 1748h396l-1072 -2848h-428z" />
    <glyph glyph-name="W" unicode="W" horiz-adv-x="4020" 
d="M924 0l-804 2848h392l472 -1768q42 -180 85.5 -372t78.5 -360h-28q45 183 93 376t91 356l480 1768h452l484 -1768q43 -181 85.5 -366t82.5 -366h-32q34 156 83 356t93 376l488 1768h380l-804 -2848h-440l-500 1828q-51 209 -106.5 432.5t-109.5 435.5l116 16
q-50 -221 -105.5 -464.5t-98.5 -419.5l-488 -1828h-440z" />
    <glyph glyph-name="X" unicode="X" horiz-adv-x="2728" 
d="M120 0l1168 1644l-8 -292l-1068 1496h468l404 -620q109 -165 204.5 -313.5t179.5 -286.5l-188 -4q98 150 197.5 303t194.5 301l416 620h448l-1064 -1496v284l1136 -1636h-468l-464 732q-100 157 -193 309t-191 319l176 4q-102 -159 -209.5 -325.5t-198.5 -302.5
l-492 -736h-448z" />
    <glyph glyph-name="Y" unicode="Y" horiz-adv-x="2736" 
d="M1200 0v1340l96 -316l-1212 1824h452l568 -920q89 -144 180 -292.5t180 -295.5h-144q81 144 173.5 301t170.5 283l564 924h424l-1172 -1824l92 316v-1340h-372z" />
    <glyph glyph-name="Z" unicode="Z" horiz-adv-x="2706" 
d="M238 0v360l1292 1644q93 117 190.5 236t197.5 239q55 65 110 129.5t110 127.5l40 -200q-133 -6 -279.5 -9.5t-288.5 -6t-284 -4.5h-976v332h2056v-296l-1332 -1708q-85 -105 -172 -210t-175 -210l-92 -110t-93 -110l-36 108q127 6 267.5 9.5t276.5 6t272 4.5h1144v-332
h-2228z" />
    <glyph glyph-name="bracketleft" unicode="[" horiz-adv-x="1258" 
d="M340 -816v3804h748v-316h-400v-3172h400v-316h-748z" />
    <glyph glyph-name="backslash" unicode="\" horiz-adv-x="1872" 
d="M1344 0l-1184 2848h368l1184 -2848h-368z" />
    <glyph glyph-name="bracketright" unicode="]" horiz-adv-x="1258" 
d="M170 -816v316h400v3172h-400v316h748v-3804h-748z" />
    <glyph glyph-name="asciicircum" unicode="^" horiz-adv-x="2640" 
d="M364 784l756 2064h364l792 -2064h-396l-412 1192l-184 588h28l-184 -588l-392 -1192h-372z" />
    <glyph glyph-name="underscore" unicode="_" horiz-adv-x="1800" 
d="M0 -816v316h1800v-316h-1800z" />
    <glyph glyph-name="grave" unicode="`" horiz-adv-x="2000" 
d="M1104 2452l-532 640h504l352 -640h-324z" />
    <glyph glyph-name="a" unicode="a" horiz-adv-x="2280" 
d="M2004 0q-120 0 -200 40.5t-120 121t-40 198.5l-56 32v740v116v248q0 109 -49.5 179.5t-152 105.5t-262.5 35q-152 0 -250 -35t-151.5 -115.5t-66.5 -217.5h-364q17 226 119.5 375.5t288 223t452.5 73.5q259 0 439 -71.5t274.5 -218.5t94.5 -370v-1008q0 -69 17 -107.5
t55.5 -55.5t107.5 -17h30h30v-272h-98h-98zM900 -52q-210 0 -366 71t-241 206.5t-85 322.5q0 174 73.5 307t230 219.5t400.5 117.5l528 68q51 7 83.5 25.5t48.5 50.5t16 80l148 -212q0 -58 -15 -98t-47 -63t-82 -31l-620 -92q-141 -21 -229.5 -69.5t-129.5 -120t-41 -166.5
q0 -104 48.5 -179t138 -114t209.5 -39q163 0 306 68t228.5 181t85.5 243h116v-304q-49 -131 -161 -238.5t-277 -170.5t-366 -63z" />
    <glyph glyph-name="b" unicode="b" horiz-adv-x="2484" 
d="M1340 -44q-191 0 -353.5 71.5t-270.5 195t-144 273.5v1044q32 167 140.5 296t275.5 200.5t368 71.5q272 0 483 -127t328 -360t117 -541q0 -320 -115 -576t-329 -402t-500 -146zM320 0v2848h368v-1212h-40v-1056h-8v-580h-320zM1304 272q187 0 325.5 101.5t212.5 284.5
t74 422q0 233 -73 392.5t-210.5 239.5t-328.5 80q-185 0 -329 -83.5t-225.5 -249.5t-81.5 -403t81.5 -415t226 -273.5t328.5 -95.5z" />
    <glyph glyph-name="c" unicode="c" horiz-adv-x="2227" 
d="M1156 -52q-290 0 -505 123t-333 363t-118 582q0 344 119 591.5t339 378t518 130.5q238 0 421.5 -83.5t299 -247t150.5 -397.5h-345q-29 141 -97 234t-174.5 139.5t-250.5 46.5q-205 0 -341.5 -91.5t-203.5 -264.5t-67 -420q0 -244 70.5 -418t207 -266t330.5 -92
q150 0 258 54.5t174.5 157.5t94.5 252h343q-35 -244 -147 -416.5t-299 -264t-444 -91.5z" />
    <glyph glyph-name="d" unicode="d" horiz-adv-x="2484" 
d="M1140 -44q-286 0 -499 142t-327 394t-114 572q0 308 118.5 545t330 368t483.5 131q203 0 369.5 -71.5t273.5 -200.5t137 -296v-1044q-38 -151 -147 -274t-271.5 -194.5t-353.5 -71.5zM1176 272q184 0 329.5 95.5t228 273.5t82.5 415q0 238 -81 403.5t-223.5 249
t-327.5 83.5q-190 0 -328.5 -84t-213 -247.5t-74.5 -396.5q0 -239 73 -418t210 -276.5t325 -97.5zM1844 0v580h-8v1056h-40v1212h368v-2848h-320z" />
    <glyph glyph-name="e" unicode="e" horiz-adv-x="2316" 
d="M1180 -48q-302 0 -523.5 138t-339 384.5t-117.5 565.5q0 317 115.5 559.5t335 377.5t521.5 135q289 0 501.5 -124t327.5 -356.5t115 -551.5v-68v-68h-1612v264h1428l-152 -176q0 250 -71 425t-206 265t-327 90q-181 0 -318 -80t-213.5 -239t-76.5 -389v-124
q0 -240 76 -403t216 -244t332 -81q142 0 250.5 43.5t184.5 127.5t123 206l338 -40q-66 -202 -195.5 -345t-311 -217.5t-401.5 -74.5z" />
    <glyph glyph-name="f" unicode="f" horiz-adv-x="1356" 
d="M416 0v1436v488v304q0 217 65 353.5t201.5 201.5t353.5 65h103h103h7h7v-308h-29.5h-28.5h-76.5h-77.5q-100 0 -155.5 -24.5t-80 -80t-24.5 -155.5v-364v-492v-1424h-368zM80 1780v284l520 -20l656 20v-284l-656 20z" />
    <glyph glyph-name="g" unicode="g" horiz-adv-x="2484" 
d="M1144 -864q-259 0 -446 64.5t-298 202t-134 353.5h358q27 -120 95.5 -192t178 -104t266.5 -32q243 0 384 71.5t200.5 208.5t59.5 348v372h40v1056h-28v580h344v-1972q0 -332 -123 -545t-349.5 -312t-547.5 -99zM1140 -44q-286 0 -499 142t-327 394t-114 572
q0 308 118.5 545t330 368t483.5 131q203 0 369.5 -71.5t273.5 -200.5t137 -296v-1044q-38 -151 -147 -274t-271.5 -194.5t-353.5 -71.5zM1176 272q184 0 329.5 95.5t228 273.5t82.5 415q0 238 -81 403.5t-223.5 249t-327.5 83.5q-190 0 -328.5 -84t-213 -247.5t-74.5 -396.5
q0 -239 73 -418t210 -276.5t325 -97.5z" />
    <glyph glyph-name="h" unicode="h" horiz-adv-x="2376" 
d="M1688 1360q0 143 -45 240t-136.5 146.5t-230.5 49.5q-155 0 -287.5 -63t-216.5 -208t-84 -377l-124 324v228h60q66 132 173.5 225t249.5 142t309 49q216 0 373.5 -80.5t242 -234t84.5 -369.5v-1432h-368v1360zM320 0v2848h368v-2848h-368z" />
    <glyph glyph-name="i" unicode="i" horiz-adv-x="1008" 
d="M320 0v2064h368v-2064h-368zM320 2452v396h368v-396h-368z" />
    <glyph glyph-name="j" unicode="j" horiz-adv-x="1008" 
d="M-40 -508h46h46q100 0 155.5 24.5t80 80t24.5 155.5v2312h368v-2260q0 -217 -65 -353.5t-201.5 -201.5t-353.5 -65h-50h-50v308zM320 2452v396h368v-396h-368z" />
    <glyph glyph-name="k" unicode="k" horiz-adv-x="2252" 
d="M524 656v336l456 472l620 600h464l-924 -852l-64 -56zM320 0v2848h368v-1200l-20 -580l20 -108v-960h-368zM1692 0l-464 708l-268 452v192h248l916 -1352h-432z" />
    <glyph glyph-name="l" unicode="l" horiz-adv-x="1008" 
d="M320 0v2848h368v-2848h-368z" />
    <glyph glyph-name="m" unicode="m" horiz-adv-x="3600" 
d="M320 0v2064h344v-400h24v-1664h-368zM1616 1412q0 120 -45.5 206t-132.5 132t-210 46q-140 0 -262 -63.5t-200 -210t-78 -382.5h-124v560h60q69 134 168.5 226.5t231.5 141t296 48.5q211 0 359.5 -82.5t226.5 -245t78 -400.5v-1388h-368v1412zM2912 1412q0 120 -45.5 206
t-132.5 132t-210 46q-143 0 -264 -58.5t-198.5 -200.5t-77.5 -377h-124v564h48q68 131 170 218.5t236.5 130.5t301.5 43q214 0 362 -75.5t225 -231.5t77 -393v-1416h-368v1412z" />
    <glyph glyph-name="n" unicode="n" horiz-adv-x="2376" 
d="M320 0v2064h344v-400h24v-1664h-368zM1688 1360q0 143 -45 240t-136.5 146.5t-230.5 49.5q-155 0 -287.5 -63t-216.5 -208t-84 -377h-124v552h60q66 132 173.5 225t249.5 142t309 49q216 0 373.5 -80.5t242 -234t84.5 -369.5v-1432h-368v1360z" />
    <glyph glyph-name="o" unicode="o" horiz-adv-x="2388" 
d="M1192 -52q-294 0 -519.5 137.5t-349 385.5t-123.5 569q0 318 128 562.5t354 379t510 134.5q289 0 515 -132.5t353.5 -377t127.5 -566.5q0 -323 -126.5 -571t-353 -384.5t-516.5 -136.5zM1192 256q198 0 339.5 98.5t215 275.5t73.5 410q0 234 -74.5 407t-216 267
t-337.5 94q-194 0 -334.5 -93.5t-215 -266.5t-74.5 -408q0 -234 74 -411.5t214.5 -275t335.5 -97.5z" />
    <glyph glyph-name="p" unicode="p" horiz-adv-x="2484" 
d="M1340 -44q-191 0 -353.5 71.5t-270.5 195t-144 273.5v1044q32 167 140.5 296t275.5 200.5t368 71.5q272 0 483 -127t328 -360t117 -541q0 -320 -115 -576t-329 -402t-500 -146zM320 -816v2880h320v-580h8v-1056h40v-1244h-368zM1304 272q187 0 325.5 101.5t212.5 284.5
t74 422q0 233 -73 392.5t-210.5 239.5t-328.5 80q-185 0 -329 -83.5t-225.5 -249.5t-81.5 -403t81.5 -415t226 -273.5t328.5 -95.5z" />
    <glyph glyph-name="q" unicode="q" horiz-adv-x="2484" 
d="M1140 -44q-286 0 -499 142t-327 394t-114 572q0 308 118.5 545t330 368t483.5 131q203 0 369.5 -71.5t273.5 -200.5t137 -296v-1044q-38 -151 -147 -274t-271.5 -194.5t-353.5 -71.5zM1176 272q184 0 329.5 95.5t228 273.5t82.5 415q0 238 -81 403.5t-223.5 249
t-327.5 83.5q-190 0 -328.5 -84t-213 -247.5t-74.5 -396.5q0 -239 73 -418t210 -276.5t325 -97.5zM1796 -816v1244h40v1056h8v580h320v-2880h-368z" />
    <glyph glyph-name="r" unicode="r" horiz-adv-x="1472" 
d="M320 0v2064h344v-520h24v-1544h-368zM592 1460q56 205 149.5 352t232.5 227.5t326 80.5q28 0 57 -2t55 -5v-358q-36 3 -70 4t-62 1q-142 0 -275.5 -73t-221 -216t-95.5 -343h-80z" />
    <glyph glyph-name="s" unicode="s" horiz-adv-x="2020" 
d="M1016 -52q-259 0 -441 76t-286.5 229t-128.5 383l348 16q18 -143 81.5 -233t173 -132.5t269.5 -42.5q165 0 276 39.5t165.5 112t54.5 172.5q0 93 -45.5 153.5t-147 102.5t-279.5 76l-208 40q-210 40 -350 112t-213 186.5t-73 277.5q0 182 87 316t259.5 207t421.5 73
q234 0 411.5 -69t287.5 -210t139 -353l-361 -17q-21 120 -80.5 199t-161 118.5t-247.5 39.5q-131 0 -224 -30t-142.5 -90.5t-49.5 -151.5t48 -147.5t136 -90t232 -62.5l200 -40q224 -45 378 -113.5t244 -189t90 -305.5q0 -201 -102.5 -348t-297 -225.5t-464.5 -78.5z" />
    <glyph glyph-name="t" unicode="t" horiz-adv-x="1368" 
d="M876 0q-161 0 -262 48.5t-149.5 149.5t-48.5 262v1160v312v288v476h368v-476v-288v-312v-1112q0 -77 18.5 -120t61.5 -61.5t120 -18.5h112.5h113.5h42v-308h-19h-19h-169h-169zM80 1780v284l520 -20l656 20v-284l-656 20z" />
    <glyph glyph-name="u" unicode="u" horiz-adv-x="2376" 
d="M1020 -52q-216 0 -373.5 80.5t-242 234t-84.5 369.5v1432h368v-1360q0 -143 45 -240t136.5 -146.5t230.5 -49.5q155 0 287.5 63t216.5 208t84 377h124v-552h-60q-66 -132 -173.5 -225t-249.5 -142t-309 -49zM1712 0v400h-24v1664h368v-2064h-344z" />
    <glyph glyph-name="v" unicode="v" horiz-adv-x="2112" 
d="M892 0l-792 2064h396l428 -1240q45 -142 89 -287t79 -269h-28q40 136 83.5 278.5t88.5 289.5l404 1228h372l-756 -2064h-364z" />
    <glyph glyph-name="w" unicode="w" horiz-adv-x="3288" 
d="M736 0l-636 2064h392l336 -1192q39 -139 76.5 -280t67.5 -264h-32q41 164 75 288t77 256l368 1192h384l368 -1192q43 -162 76 -291.5t60 -252.5l-24 -12q27 121 62.5 259t77.5 297l344 1192h380l-652 -2064h-404l-356 1232q-43 146 -90 322t-106 410h132
q-46 -188 -96 -375t-100 -357l-376 -1232h-404z" />
    <glyph glyph-name="x" unicode="x" horiz-adv-x="2256" 
d="M100 0l952 1232v-272l-852 1104h448l364 -536l102 -156l102 -156h-168q47 75 97.5 154t102.5 158l360 536h448l-844 -1104v272l944 -1232h-448l-456 668q-53 80 -103.5 158t-100.5 158h168q-50 -78 -103 -158.5t-105 -157.5l-460 -668h-448z" />
    <glyph glyph-name="y" unicode="y" horiz-adv-x="2156" 
d="M300 -508h96h96q96 0 156 24t103 82.5t85 169.5l144 380l44 -352l-924 2268h400l464 -1236q51 -136 103.5 -300t84.5 -284h-104q31 115 83.5 278.5t104.5 305.5l440 1236h380l-960 -2468q-62 -158 -137.5 -247t-178 -127t-252.5 -38h-114h-114v308z" />
    <glyph glyph-name="z" unicode="z" horiz-adv-x="2124" 
d="M200 0v260l1028 1264q46 56 92.5 111t93.5 108q38 44 76.5 87t77.5 86l12 -128q-106 -6 -224 -9.5t-232 -6t-228 -4.5h-644v296h1604v-264l-1072 -1320q-74 -90 -153.5 -180.5t-158.5 -175.5l-20 152q107 6 228 9.5t239 6t235 4.5h3.5h2.5h764v-296h-1724z" />
    <glyph glyph-name="braceleft" unicode="{" horiz-adv-x="1492" 
d="M1042 -820q-153 0 -249 45.5t-141.5 141.5t-45.5 249v876q0 153 -45.5 249t-141.5 141.5t-249 45.5v316q153 0 249 45.5t141.5 141.5t45.5 249v872q0 153 45.5 249t141.5 141.5t249 45.5h280v-316h-168q-75 0 -118.5 -18.5t-62.5 -60.5t-19 -117v-788q0 -163 -52 -288
t-151.5 -204.5t-240.5 -107.5v-4q141 -28 240.5 -107.5t151.5 -204.5t52 -288v-792q0 -75 19 -117t62.5 -60.5t118.5 -18.5h168v-316h-280z" />
    <glyph glyph-name="bar" unicode="|" horiz-adv-x="1048" 
d="M340 -816v3804h368v-3804h-368z" />
    <glyph glyph-name="braceright" unicode="}" horiz-adv-x="1492" 
d="M170 -820v316h168q75 0 118.5 18.5t62.5 60.5t19 117v792q0 163 52 288t151.5 204.5t240.5 107.5v4q-141 28 -240.5 107.5t-151.5 204.5t-52 288v788q0 75 -19 117t-62.5 60.5t-118.5 18.5h-168v316h280q153 0 249 -45.5t141.5 -141.5t45.5 -249v-872q0 -153 45.5 -249
t141.5 -141.5t249 -45.5v-316q-153 0 -249 -45.5t-141.5 -141.5t-45.5 -249v-876q0 -153 -45.5 -249t-141.5 -141.5t-249 -45.5h-280z" />
    <glyph glyph-name="asciitilde" unicode="~" horiz-adv-x="2640" 
d="M288 1072q0 236 73.5 394t200.5 234t290 76q111 0 210.5 -31.5t178.5 -76t189 -116.5q84 -56 137 -87t110.5 -52t114.5 -21q72 0 125.5 38t84 123.5t30.5 222.5h320q0 -231 -72 -389.5t-199.5 -236.5t-292.5 -78q-109 0 -207 31.5t-175.5 76t-182.5 115.5q-85 57 -139 89
t-114.5 54t-121.5 22q-75 0 -128 -39t-82.5 -125t-29.5 -224h-320z" />
    <glyph glyph-name="uni00A0" unicode="&#xa0;" horiz-adv-x="1080" 
 />
    <glyph glyph-name="exclamdown" unicode="&#xa1;" horiz-adv-x="1132" 
d="M660 1588l92 -1296v-796h-372v796l92 1296h188zM792 2344v-404h-452v404h452z" />
    <glyph glyph-name="cent" unicode="&#xa2;" horiz-adv-x="2327" 
d="M1208 -52q-306 0 -533 123t-351 363t-124 582q0 344 125.5 591.5t357.5 378t545 130.5q254 0 448 -83.5t314.5 -246.5t156.5 -398h-346q-30 141 -104 234t-190.5 139.5t-274.5 46.5q-221 0 -369 -91.5t-221.5 -265t-73.5 -419.5q0 -244 77 -418t225 -266t358 -92
q161 0 278.5 54.5t191 158t103.5 251.5h345q-37 -243 -155.5 -416t-315.5 -264.5t-467 -91.5zM1060 -576v3240h320v-3240h-320z" />
    <glyph glyph-name="sterling" unicode="&#xa3;" horiz-adv-x="2560" 
d="M764 1424q-45 54 -80 102t-64 94q-53 83 -89 164.5t-55.5 168t-19.5 179.5q0 213 101 387t308 277.5t511 103.5q306 0 513 -104.5t315 -290t128 -433.5h-357q-18 181 -96.5 293t-204.5 161.5t-294 49.5q-189 0 -314.5 -59t-185.5 -166.5t-60 -254.5q0 -55 9.5 -109
t32 -116t61.5 -134q24 -43 54 -90t67.5 -100t83.5 -111zM232 320q239 0 417 77t272.5 209.5t94.5 293.5q0 75 -24.5 149.5t-73.5 152.5q-5 8 -10.5 17t-11.5 17h360l16 -30t15 -31q31 -69 48 -141t17 -146q0 -147 -67 -276.5t-191 -227.5t-294 -155q-10 -4 -20 -7l-20 -6
l-20 104h1620v-320h-2128v320zM232 1188v304l740 -20l1040 20v-304l-888 20z" />
    <glyph glyph-name="currency" unicode="&#xa4;" horiz-adv-x="2584" 
d="M1292 444q-282 0 -505 129t-349 355.5t-126 507.5t126 507.5t349 355.5t505 129t505 -129t349 -355.5t126 -507.5t-126 -507.5t-349 -355.5t-505 -129zM328 264l-208 212l464 444l188 -192zM1292 752q196 0 345.5 85t232 240t82.5 359t-82.5 359t-232 240t-345.5 85
t-345.5 -85t-232 -240t-82.5 -359t82.5 -359t232 -240t345.5 -85zM584 1952l-464 444l208 212l444 -464zM2256 264l-444 464l188 192l464 -444zM2000 1952l-188 192l444 464l208 -212z" />
    <glyph glyph-name="yen" unicode="&#xa5;" horiz-adv-x="2784" 
d="M1103 1345l-983 1503h428l524 -844l360 -588h-60l348 588l516 844h428l-983 -1514zM1208 0v1300h376v-1300h-376zM348 492v320l1052 -24l1040 24v-320l-1040 24zM348 1140v320l1052 -24l1040 24v-320l-1040 24z" />
    <glyph glyph-name="brokenbar" unicode="&#xa6;" horiz-adv-x="1048" 
d="M340 1644v1344h368v-1344h-368zM340 -816v1344h368v-1344h-368z" />
    <glyph glyph-name="section" unicode="&#xa7;" horiz-adv-x="2516" 
d="M1540 732q122 18 209 68.5t133 129.5t46 182q0 94 -40.5 169.5t-122 132.5t-205.5 98l-516 168q-170 56 -287.5 149.5t-177 219t-59.5 275.5q0 197 98.5 341.5t275 221.5t406.5 77q235 0 407.5 -78.5t272 -228t119.5 -361.5h-345q-16 123 -71 204.5t-151.5 122.5
t-235.5 41t-236 -38.5t-146.5 -113t-49.5 -180.5q0 -95 41 -168t122 -126.5t205 -93.5l448 -144q198 -64 326.5 -159.5t191 -220t62.5 -276.5t-60 -276t-174 -213t-274 -139zM1216 -448q-232 0 -404.5 78.5t-273.5 229.5t-121 364h345q16 -123 72.5 -206t155 -124.5
t238.5 -41.5q138 0 233 39.5t143 113.5t48 179q0 97 -40.5 169.5t-121.5 125.5t-206 93l-448 144q-198 64 -326.5 159.5t-191 220t-62.5 276.5t60 276t174 213t274 139l212 -216q-122 -18 -209 -68.5t-133 -129.5t-46 -182q0 -94 40.5 -169.5t122 -132.5t205.5 -98l516 -168
q171 -56 288 -149t176.5 -218t59.5 -277q0 -195 -97 -340t-273.5 -222.5t-409.5 -77.5z" />
    <glyph glyph-name="dieresis" unicode="&#xa8;" horiz-adv-x="2000" 
d="M1244 2452v396h368v-396h-368zM388 2452v396h368v-396h-368z" />
    <glyph glyph-name="copyright" unicode="&#xa9;" horiz-adv-x="3524" 
d="M1760 -68q-430 0 -773 192.5t-537 532.5t-194 767q0 428 194 768.5t536.5 532t773.5 191.5q433 0 776.5 -191.5t537.5 -532t194 -768.5q0 -427 -194 -767t-538 -532.5t-776 -192.5zM1760 180q357 0 636.5 159.5t435.5 443t156 641.5t-156.5 641.5t-436.5 443t-635 159.5
q-353 0 -633 -159.5t-437.5 -443t-157.5 -641.5t157.5 -641.5t437.5 -443t633 -159.5zM1764 688q-195 0 -342 86.5t-228.5 253t-81.5 400.5t81.5 400.5t228.5 253t342 86.5q162 0 284 -48.5t201 -146t112 -242.5l-256 -43q-25 78 -70.5 129.5t-112.5 77t-158 25.5
q-115 0 -200.5 -50.5t-134.5 -160t-49 -281.5t49 -280.5t134.5 -158t200.5 -49.5q93 0 161.5 26t113.5 79t69 134l251 -44q-34 -145 -113 -245t-200.5 -151t-281.5 -51z" />
    <glyph glyph-name="ordfeminine" unicode="&#xaa;" horiz-adv-x="1824" 
d="M1604 1992q-122 0 -202.5 29t-123 98.5t-42.5 188.5v120h-20v488q0 84 -35.5 136t-109.5 76t-191 24q-94 0 -164 -16t-117 -48t-74 -80l-272 96q46 99 123 165t199.5 100.5t296.5 34.5q235 0 378 -59.5t206.5 -173t63.5 -283.5v-512q0 -44 14.5 -74.5t43 -46t70.5 -15.5
h60h60v-248h-82h-82zM696 1976q-159 0 -268.5 53t-164.5 144.5t-55 206.5q0 121 54 210.5t157 143t249 66.5l556 52q42 4 72 20t49 44t27 68l104 -180q-17 -59 -42 -91t-73 -50t-137 -27l-432 -44q-105 -10 -165 -39.5t-83.5 -70.5t-23.5 -94q0 -49 26 -83.5t79.5 -53.5
t134.5 -19q135 0 238.5 46t160.5 105.5t57 92.5l180 -56q-47 -128 -145.5 -228.5t-241 -158t-313.5 -57.5z" />
    <glyph glyph-name="guillemotleft" unicode="&#xab;" horiz-adv-x="2760" 
d="M2440 -40l-1000 872v392l1000 872v-408l-764 -660l764 -660v-408zM1320 -40l-1000 872v392l1000 872v-408l-764 -660l764 -660v-408z" />
    <glyph glyph-name="logicalnot" unicode="&#xac;" horiz-adv-x="2640" 
d="M2008 864v796h-1692v320h2012v-1116h-320z" />
    <glyph glyph-name="uni00AD" unicode="&#xad;" horiz-adv-x="1520" 
d="M200 944v332h1120v-332h-1120z" />
    <glyph glyph-name="registered" unicode="&#xae;" horiz-adv-x="2476" 
d="M1240 1012q-271 0 -495.5 126.5t-354.5 344t-130 477.5t130 477.5t354.5 344t495.5 126.5q269 0 493 -126.5t353.5 -344t129.5 -477.5t-129.5 -477.5t-353.5 -344t-493 -126.5zM1240 1200q217 0 394.5 100.5t279.5 274.5t102 385t-102 386t-280 276.5t-394 101.5
q-218 0 -396.5 -101.5t-281 -276.5t-102.5 -386t102.5 -385t281 -274.5t396.5 -100.5zM860 1464v1016h432q108 0 188.5 -33t124 -96.5t43.5 -154.5q0 -63 -21.5 -117t-76 -94t-146.5 -53v48q73 -8 119 -34t69 -70t28 -108l12 -148q5 -52 14.5 -85t33.5 -71h-180
q-19 25 -27.5 61t-12.5 95l-8 104q-5 58 -18.5 89.5t-42 45t-79.5 13.5h-384v160h380q50 0 86 17t55 49t19 78q0 48 -20 80t-59 48t-97 16h-336l80 80v-936h-176z" />
    <glyph glyph-name="macron" unicode="&#xaf;" horiz-adv-x="2000" 
d="M360 2452v284h1280v-284h-1280z" />
    <glyph glyph-name="degree" unicode="&#xb0;" horiz-adv-x="1784" 
d="M892 1516q-197 0 -355 89.5t-247.5 247.5t-89.5 355t89.5 355t247.5 247.5t355 89.5t355 -89.5t247.5 -247.5t89.5 -355t-89.5 -355t-247.5 -247.5t-355 -89.5zM892 1792q118 0 211 54t145 148.5t52 213.5q0 121 -52 215.5t-144.5 147.5t-211.5 53t-211.5 -53
t-144.5 -147.5t-52 -215.5q0 -119 52 -213.5t145 -148.5t211 -54z" />
    <glyph glyph-name="plusminus" unicode="&#xb1;" horiz-adv-x="2640" 
d="M224 1592v320h2196v-320h-2196zM264 272v320h2116v-320h-2116zM1160 936v1636h320v-1636h-320z" />
    <glyph glyph-name="twosuperior" unicode="&#xb2;" horiz-adv-x="1724" 
d="M200 1996q0 187 46.5 328t139 242.5t234.5 169.5l340 164q79 39 132.5 81t82.5 96.5t29 126.5q0 79 -36 137.5t-109.5 90.5t-182.5 32q-125 0 -195.5 -39t-99.5 -109.5t-33 -179.5h-320q4 182 76 316.5t215.5 209t356.5 74.5q191 0 337.5 -62t228.5 -182t82 -288
q0 -120 -45 -215.5t-138 -174.5t-241 -150l-208 -100q-141 -68 -212.5 -122.5t-99.5 -116.5t-28 -157l-84 80l424 20h628v-276h-1320v4z" />
    <glyph glyph-name="threesuperior" unicode="&#xb3;" horiz-adv-x="1780" 
d="M892 1936q-210 0 -365.5 65t-240.5 193t-85 310h320q4 -103 42.5 -171t120 -102.5t212.5 -34.5q120 0 201 29.5t122 89t41 149.5q0 86 -41 144t-121 87t-198 29h-156v276h156q99 0 166 27t100.5 80t33.5 129q0 81 -38.5 136.5t-113 83.5t-180.5 28q-111 0 -185.5 -29.5
t-114 -88.5t-45.5 -150h-319q0 166 80.5 285t229 181t350.5 62q203 0 351 -59.5t226.5 -168t78.5 -252.5q0 -100 -39 -183.5t-113 -137t-176 -67.5v16q115 -20 202.5 -78.5t136.5 -150t49 -207.5q0 -152 -83 -270t-239 -184t-366 -66z" />
    <glyph glyph-name="acute" unicode="&#xb4;" horiz-adv-x="2000" 
d="M572 2452l352 640h504l-532 -640h-324z" />
    <glyph glyph-name="mu" unicode="&#xb5;" horiz-adv-x="2376" 
d="M320 -816v2880h368v-1360q0 -141 45 -238t136.5 -147.5t230.5 -50.5q155 0 287.5 63t216.5 208t84 377h124v-552h-60q-63 -128 -171.5 -222t-245.5 -144t-283 -50q-95 0 -179 19t-160.5 63.5t-140.5 117.5l20 16l96 -604v-376h-368zM1712 0v400h-24v1664h368v-2064h-344z
" />
    <glyph glyph-name="paragraph" unicode="&#xb6;" horiz-adv-x="2372" 
d="M956 1440q-249 0 -424.5 82.5t-267.5 240.5t-92 381t92 381t267.5 240.5t424.5 82.5h1076v-3248h-320v2928h-436v-2928h-320v1840z" />
    <glyph glyph-name="periodcentered" unicode="&#xb7;" horiz-adv-x="1132" 
d="M340 1208v404h452v-404h-452z" />
    <glyph glyph-name="cedilla" unicode="&#xb8;" horiz-adv-x="2000" 
d="M648 -756h69h71q108 0 171.5 20t90 55.5t26.5 84.5q0 43 -17 70t-54 40.5t-97 13.5h-131h-129v176l196 336l196 -40l-144 -248h68q126 0 214.5 -39t135 -114.5t46.5 -182.5q0 -114 -64.5 -199t-187 -131t-292.5 -46h-85.5h-82.5v204z" />
    <glyph glyph-name="onesuperior" unicode="&#xb9;" horiz-adv-x="1200" 
d="M572 3244q-52 -35 -118 -57.5t-139.5 -32.5t-154.5 -10v272q127 0 220.5 27.5t156 90.5t87.5 166h256v-1708h-308v1252z" />
    <glyph glyph-name="ordmasculine" unicode="&#xba;" horiz-adv-x="1844" 
d="M924 1976q-213 0 -377.5 90t-255.5 250t-91 364q0 210 91 374.5t255.5 257t377.5 92.5q211 0 375 -91.5t254.5 -256t90.5 -376.5q0 -206 -90.5 -366t-254.5 -249t-375 -89zM924 2232q128 0 219 49t140 149.5t49 249.5q0 157 -49 261.5t-140 155.5t-219 51
q-130 0 -223 -51t-143 -155.5t-50 -261.5q0 -149 50 -249.5t143 -149.5t223 -49z" />
    <glyph glyph-name="guillemotright" unicode="&#xbb;" horiz-adv-x="2760" 
d="M1440 -40v408l764 660l-764 660v408l1000 -872v-392zM320 -40v408l764 660l-764 660v408l1000 -872v-392z" />
    <glyph glyph-name="onequarter" unicode="&#xbc;" horiz-adv-x="4020" 
d="M572 2392q-52 -35 -118 -57.5t-139.5 -32.5t-154.5 -10v272q127 0 220.5 27.5t156 90.5t87.5 166h256v-1708h-308v1252zM712 -60l1784 2968h372l-1784 -2968h-372zM3208 0v468v80v996l64 -72l-632 -856l4 16l764 -12l412 12v-248l-388 12l-1052 -12v268l792 1056h344
v-1708h-308z" />
    <glyph glyph-name="onehalf" unicode="&#xbd;" horiz-adv-x="4064" 
d="M572 2392q-52 -35 -118 -57.5t-139.5 -32.5t-154.5 -10v272q127 0 220.5 27.5t156 90.5t87.5 166h256v-1708h-308v1252zM712 -60l1784 2968h372l-1784 -2968h-372zM2540 4q0 187 46.5 328t139 242.5t234.5 169.5l340 164q79 39 132.5 81t82.5 96.5t29 126.5
q0 79 -36 137.5t-109.5 90.5t-182.5 32q-125 0 -195.5 -39t-99.5 -109.5t-33 -179.5h-320q4 182 76 316.5t215.5 209t356.5 74.5q191 0 337.5 -62t228.5 -182t82 -288q0 -120 -45 -215.5t-138 -174.5t-241 -150l-208 -100q-141 -68 -212.5 -122.5t-99.5 -116.5t-28 -157
l-84 80l424 20h628v-276h-1320v4z" />
    <glyph glyph-name="threequarters" unicode="&#xbe;" horiz-adv-x="4600" 
d="M892 1088q-210 0 -365.5 65t-240.5 193t-85 310h320q4 -103 42.5 -171t120 -102.5t212.5 -34.5q120 0 201 29.5t122 89t41 149.5q0 86 -41 144t-121 87t-198 29h-156v276h156q99 0 166 27t100.5 80t33.5 129q0 81 -38.5 136.5t-113 83.5t-180.5 28q-111 0 -185.5 -29.5
t-114 -88.5t-45.5 -150h-319q0 166 80.5 285t229 181t350.5 62q203 0 351 -59.5t226.5 -168t78.5 -252.5q0 -100 -39 -183.5t-113 -137t-176 -67.5v16q115 -20 202.5 -78.5t136.5 -150t49 -207.5q0 -152 -83 -270t-239 -184t-366 -66zM1292 -60l1784 2968h372l-1784 -2968
h-372zM3788 0v468v80v996l64 -72l-632 -856l4 16l764 -12l412 12v-248l-388 12l-1052 -12v268l792 1056h344v-1708h-308z" />
    <glyph glyph-name="questiondown" unicode="&#xbf;" horiz-adv-x="2436" 
d="M1464 1516q0 -189 -49.5 -321.5t-154.5 -235.5t-284 -207q-23 -13 -44 -26.5t-41 -27.5q-110 -74 -174 -150.5t-90.5 -154t-26.5 -165.5q0 -165 80 -274t221.5 -161.5t326.5 -52.5q221 0 362 73t210.5 211.5t78.5 339.5h354q-17 -282 -131.5 -488t-333 -319t-540.5 -113
q-290 0 -509.5 92t-341 270.5t-121.5 429.5q0 158 47.5 287.5t162.5 250.5t314 238q140 83 212 160t98 163t26 213v40h348v-72zM1516 2344v-404h-452v404h452z" />
    <glyph glyph-name="Agrave" unicode="&#xc0;" horiz-adv-x="2864" 
d="M120 0l1104 2848h420l1100 -2848h-412l-684 1904q-50 139 -93 265t-82.5 248t-80.5 255h84q-36 -124 -75.5 -244.5t-87 -253.5t-97.5 -270l-700 -1904h-396zM652 836l120 324h1344l112 -324h-1576zM1368 3148l-532 620h504l352 -620h-324z" />
    <glyph glyph-name="Aacute" unicode="&#xc1;" horiz-adv-x="2864" 
d="M120 0l1104 2848h420l1100 -2848h-412l-684 1904q-50 139 -93 265t-82.5 248t-80.5 255h84q-36 -124 -75.5 -244.5t-87 -253.5t-97.5 -270l-700 -1904h-396zM652 836l120 324h1344l112 -324h-1576zM1180 3148l352 620h504l-532 -620h-324z" />
    <glyph glyph-name="Acircumflex" unicode="&#xc2;" horiz-adv-x="2864" 
d="M120 0l1104 2848h420l1100 -2848h-412l-684 1904q-50 139 -93 265t-82.5 248t-80.5 255h84q-36 -124 -75.5 -244.5t-87 -253.5t-97.5 -270l-700 -1904h-396zM652 836l120 324h1344l112 -324h-1576zM748 3148l472 620h432l472 -620h-408l-280 388l-280 -388h-408z" />
    <glyph glyph-name="Atilde" unicode="&#xc3;" horiz-adv-x="2864" 
d="M120 0l1104 2848h420l1100 -2848h-412l-684 1904q-50 139 -93 265t-82.5 248t-80.5 255h84q-36 -124 -75.5 -244.5t-87 -253.5t-97.5 -270l-700 -1904h-396zM652 836l120 324h1344l112 -324h-1576zM692 3148q0 211 56 347.5t154.5 200.5t229.5 64q94 0 164 -28.5t117 -68
t106 -102.5q42 -46 71 -72t64.5 -43.5t77.5 -17.5q60 0 96 34.5t54 106.5t22 191h276q0 -210 -55.5 -346.5t-154 -201t-230.5 -64.5q-92 0 -161 27.5t-115 67t-102 101.5q-43 47 -72.5 73.5t-67 44.5t-82.5 18q-60 0 -96 -35t-54 -107.5t-22 -189.5h-276z" />
    <glyph glyph-name="Adieresis" unicode="&#xc4;" horiz-adv-x="2864" 
d="M120 0l1104 2848h420l1100 -2848h-412l-684 1904q-50 139 -93 265t-82.5 248t-80.5 255h84q-36 -124 -75.5 -244.5t-87 -253.5t-97.5 -270l-700 -1904h-396zM652 836l120 324h1344l112 -324h-1576zM1680 3148v396h368v-396h-368zM824 3148v396h368v-396h-368z" />
    <glyph glyph-name="Aring" unicode="&#xc5;" horiz-adv-x="2864" 
d="M120 0l1104 2848h420l1100 -2848h-412l-684 1904q-50 139 -93 265t-82.5 248t-80.5 255h84q-36 -124 -75.5 -244.5t-87 -253.5t-97.5 -270l-700 -1904h-396zM652 836l120 324h1344l112 -324h-1576zM1436 2624q-144 0 -258 64.5t-178 179t-64 256.5q0 141 64 255
t178 179.5t258 65.5t258 -65.5t178 -179.5t64 -255q0 -142 -64 -256.5t-178 -179t-258 -64.5zM1436 2848q78 0 138.5 34t95 96.5t34.5 145.5t-34.5 145.5t-95 96.5t-138.5 34t-138.5 -34t-95 -96.5t-34.5 -145.5t34.5 -145.5t95 -96.5t138.5 -34z" />
    <glyph glyph-name="AE" unicode="&#xc6;" horiz-adv-x="4412" 
d="M120 0l1540 2848h2456v-324h-1644v-2200h1680v-324h-2052v2524h-272l-1320 -2524h-388zM716 752l168 304h1340v-304h-1508zM2248 1304v324h1740v-324h-1740z" />
    <glyph glyph-name="Ccedilla" unicode="&#xc7;" horiz-adv-x="3048" 
d="M1604 -68q-410 0 -715.5 191t-469 530t-163.5 771q0 434 165.5 768.5t470 521t708.5 186.5q311 0 574 -112t435 -318.5t219 -481.5h-380q-48 187 -164.5 319.5t-287.5 200.5t-380 68q-304 0 -524.5 -138.5t-338 -398t-117.5 -615.5q0 -357 117 -620.5t337.5 -405.5
t525.5 -142q238 0 422 88t301 262.5t152 429.5h367q-47 -341 -212.5 -590t-431.5 -381.5t-610 -132.5zM1272 -756h69h71q108 0 171.5 20t90 55.5t26.5 84.5q0 43 -17 70t-54 40.5t-97 13.5h-131h-129v176l196 336l196 -40l-144 -248h68q126 0 214.5 -39t135 -114.5
t46.5 -182.5q0 -114 -64.5 -199t-187 -131t-292.5 -46h-85.5h-82.5v204z" />
    <glyph glyph-name="Egrave" unicode="&#xc8;" horiz-adv-x="2652" 
d="M340 0v2848h2016v-324h-1644v-2200h1680v-324h-2052zM528 1304v324h1700v-324h-1700zM1316 3148l-532 620h504l352 -620h-324z" />
    <glyph glyph-name="Eacute" unicode="&#xc9;" horiz-adv-x="2652" 
d="M340 0v2848h2016v-324h-1644v-2200h1680v-324h-2052zM528 1304v324h1700v-324h-1700zM1128 3148l352 620h504l-532 -620h-324z" />
    <glyph glyph-name="Ecircumflex" unicode="&#xca;" horiz-adv-x="2652" 
d="M340 0v2848h2016v-324h-1644v-2200h1680v-324h-2052zM528 1304v324h1700v-324h-1700zM696 3148l472 620h432l472 -620h-408l-280 388l-280 -388h-408z" />
    <glyph glyph-name="Edieresis" unicode="&#xcb;" horiz-adv-x="2652" 
d="M340 0v2848h2016v-324h-1644v-2200h1680v-324h-2052zM528 1304v324h1700v-324h-1700zM1628 3148v396h368v-396h-368zM772 3148v396h368v-396h-368z" />
    <glyph glyph-name="Igrave" unicode="&#xcc;" horiz-adv-x="1052" 
d="M340 0v2848h372v-2848h-372zM388 3148l-328 620h448l168 -620h-288z" />
    <glyph glyph-name="Iacute" unicode="&#xcd;" horiz-adv-x="1052" 
d="M340 0v2848h372v-2848h-372zM372 3148l168 620h448l-328 -620h-288z" />
    <glyph glyph-name="Icircumflex" unicode="&#xce;" horiz-adv-x="1052" 
d="M340 0v2848h372v-2848h-372zM-40 3148l380 620h364l380 -620h-356l-208 400l-208 -400h-352z" />
    <glyph glyph-name="Idieresis" unicode="&#xcf;" horiz-adv-x="1052" 
d="M340 0v2848h372v-2848h-372zM676 3148v396h368v-396h-368zM4 3148v396h368v-396h-368z" />
    <glyph glyph-name="Eth" unicode="&#xd0;" horiz-adv-x="3216" 
d="M184 1276v324l544 -28l1056 28v-324l-1056 28zM540 0v2848h1028q467 0 778 -171.5t462.5 -489.5t151.5 -763q0 -439 -159 -757.5t-488.5 -492.5t-828.5 -174h-944zM912 324h536q368 0 616.5 104.5t382 347.5t133.5 648q0 412 -135.5 654.5t-379 344t-593.5 101.5h-560
v-2200z" />
    <glyph glyph-name="Ntilde" unicode="&#xd1;" horiz-adv-x="2944" 
d="M340 0v2848h412l1204 -1860q104 -160 206.5 -332t246.5 -422q11 -19 21.5 -37t21.5 -37h-180q-1 30 -2 61l-2 62q-7 203 -11.5 375.5t-4.5 329.5v1860h352v-2848h-424l-1056 1640q-111 173 -223 353.5t-217.5 356.5t-215.5 362h204q6 -179 10.5 -361t7 -359.5t2.5 -351.5
v-1640h-352zM728 3148q0 211 56 347.5t154.5 200.5t229.5 64q94 0 164 -28.5t117 -68t106 -102.5q42 -46 71 -72t64.5 -43.5t77.5 -17.5q60 0 96 34.5t54 106.5t22 191h276q0 -210 -55.5 -346.5t-154 -201t-230.5 -64.5q-92 0 -161 27.5t-115 67t-102 101.5
q-43 47 -72.5 73.5t-67 44.5t-82.5 18q-60 0 -96 -35t-54 -107.5t-22 -189.5h-276z" />
    <glyph glyph-name="Ograve" unicode="&#xd2;" horiz-adv-x="3204" 
d="M1600 -68q-393 0 -698.5 190.5t-475.5 530t-170 771.5q0 428 170 763.5t475.5 524t698.5 188.5q395 0 701.5 -188.5t476.5 -524t170 -763.5q0 -435 -170 -774.5t-476.5 -528.5t-701.5 -189zM1604 256q285 0 503.5 142.5t339.5 406.5t121 619q0 346 -122.5 607.5
t-341.5 403t-500 141.5q-283 0 -502.5 -141.5t-342.5 -403t-123 -607.5q0 -350 123 -615t342.5 -409t502.5 -144zM1532 3148l-532 620h504l352 -620h-324z" />
    <glyph glyph-name="Oacute" unicode="&#xd3;" horiz-adv-x="3204" 
d="M1600 -68q-393 0 -698.5 190.5t-475.5 530t-170 771.5q0 428 170 763.5t475.5 524t698.5 188.5q395 0 701.5 -188.5t476.5 -524t170 -763.5q0 -435 -170 -774.5t-476.5 -528.5t-701.5 -189zM1604 256q285 0 503.5 142.5t339.5 406.5t121 619q0 346 -122.5 607.5
t-341.5 403t-500 141.5q-283 0 -502.5 -141.5t-342.5 -403t-123 -607.5q0 -350 123 -615t342.5 -409t502.5 -144zM1344 3148l352 620h504l-532 -620h-324z" />
    <glyph glyph-name="Ocircumflex" unicode="&#xd4;" horiz-adv-x="3204" 
d="M1600 -68q-393 0 -698.5 190.5t-475.5 530t-170 771.5q0 428 170 763.5t475.5 524t698.5 188.5q395 0 701.5 -188.5t476.5 -524t170 -763.5q0 -435 -170 -774.5t-476.5 -528.5t-701.5 -189zM1604 256q285 0 503.5 142.5t339.5 406.5t121 619q0 346 -122.5 607.5
t-341.5 403t-500 141.5q-283 0 -502.5 -141.5t-342.5 -403t-123 -607.5q0 -350 123 -615t342.5 -409t502.5 -144zM912 3148l472 620h432l472 -620h-408l-280 388l-280 -388h-408z" />
    <glyph glyph-name="Otilde" unicode="&#xd5;" horiz-adv-x="3204" 
d="M1600 -68q-393 0 -698.5 190.5t-475.5 530t-170 771.5q0 428 170 763.5t475.5 524t698.5 188.5q395 0 701.5 -188.5t476.5 -524t170 -763.5q0 -435 -170 -774.5t-476.5 -528.5t-701.5 -189zM1604 256q285 0 503.5 142.5t339.5 406.5t121 619q0 346 -122.5 607.5
t-341.5 403t-500 141.5q-283 0 -502.5 -141.5t-342.5 -403t-123 -607.5q0 -350 123 -615t342.5 -409t502.5 -144zM856 3148q0 211 56 347.5t154.5 200.5t229.5 64q94 0 164 -28.5t117 -68t106 -102.5q42 -46 71 -72t64.5 -43.5t77.5 -17.5q60 0 96 34.5t54 106.5t22 191h276
q0 -210 -55.5 -346.5t-154 -201t-230.5 -64.5q-92 0 -161 27.5t-115 67t-102 101.5q-43 47 -72.5 73.5t-67 44.5t-82.5 18q-60 0 -96 -35t-54 -107.5t-22 -189.5h-276z" />
    <glyph glyph-name="Odieresis" unicode="&#xd6;" horiz-adv-x="3204" 
d="M1600 -68q-393 0 -698.5 190.5t-475.5 530t-170 771.5q0 428 170 763.5t475.5 524t698.5 188.5q395 0 701.5 -188.5t476.5 -524t170 -763.5q0 -435 -170 -774.5t-476.5 -528.5t-701.5 -189zM1604 256q285 0 503.5 142.5t339.5 406.5t121 619q0 346 -122.5 607.5
t-341.5 403t-500 141.5q-283 0 -502.5 -141.5t-342.5 -403t-123 -607.5q0 -350 123 -615t342.5 -409t502.5 -144zM1844 3148v396h368v-396h-368zM988 3148v396h368v-396h-368z" />
    <glyph glyph-name="multiply" unicode="&#xd7;" horiz-adv-x="2640" 
d="M2136 396l-1840 1840l208 212l1844 -1844zM504 396l-208 212l1840 1840l212 -208z" />
    <glyph glyph-name="Oslash" unicode="&#xd8;" horiz-adv-x="3204" 
d="M372 -188l-212 188l2672 3020l212 -188zM1600 -68q-393 0 -698.5 190.5t-475.5 530t-170 771.5q0 428 170 763.5t475.5 524t698.5 188.5q395 0 701.5 -188.5t476.5 -524t170 -763.5q0 -435 -170 -774.5t-476.5 -528.5t-701.5 -189zM1604 256q285 0 503.5 142.5
t339.5 406.5t121 619q0 346 -122.5 607.5t-341.5 403t-500 141.5q-283 0 -502.5 -141.5t-342.5 -403t-123 -607.5q0 -350 123 -615t342.5 -409t502.5 -144z" />
    <glyph glyph-name="Ugrave" unicode="&#xd9;" horiz-adv-x="2880" 
d="M1440 -64q-346 0 -592.5 112t-377 328.5t-130.5 523.5v1948h372v-1968q0 -196 79.5 -334.5t242 -212t406.5 -73.5t406.5 73.5t242 212t79.5 334.5v1968h372v-1948q0 -307 -130.5 -523.5t-377 -328.5t-592.5 -112zM1372 3148l-532 620h504l352 -620h-324z" />
    <glyph glyph-name="Uacute" unicode="&#xda;" horiz-adv-x="2880" 
d="M1440 -64q-346 0 -592.5 112t-377 328.5t-130.5 523.5v1948h372v-1968q0 -196 79.5 -334.5t242 -212t406.5 -73.5t406.5 73.5t242 212t79.5 334.5v1968h372v-1948q0 -307 -130.5 -523.5t-377 -328.5t-592.5 -112zM1184 3148l352 620h504l-532 -620h-324z" />
    <glyph glyph-name="Ucircumflex" unicode="&#xdb;" horiz-adv-x="2880" 
d="M1440 -64q-346 0 -592.5 112t-377 328.5t-130.5 523.5v1948h372v-1968q0 -196 79.5 -334.5t242 -212t406.5 -73.5t406.5 73.5t242 212t79.5 334.5v1968h372v-1948q0 -307 -130.5 -523.5t-377 -328.5t-592.5 -112zM752 3148l472 620h432l472 -620h-408l-280 388l-280 -388
h-408z" />
    <glyph glyph-name="Udieresis" unicode="&#xdc;" horiz-adv-x="2880" 
d="M1440 -64q-346 0 -592.5 112t-377 328.5t-130.5 523.5v1948h372v-1968q0 -196 79.5 -334.5t242 -212t406.5 -73.5t406.5 73.5t242 212t79.5 334.5v1968h372v-1948q0 -307 -130.5 -523.5t-377 -328.5t-592.5 -112zM1684 3148v396h368v-396h-368zM828 3148v396h368v-396
h-368z" />
    <glyph glyph-name="Yacute" unicode="&#xdd;" horiz-adv-x="2736" 
d="M1200 0v1340l96 -316l-1212 1824h452l568 -920q89 -144 180 -292.5t180 -295.5h-144q81 144 173.5 301t170.5 283l564 924h424l-1172 -1824l92 316v-1340h-372zM1112 3148l352 620h504l-532 -620h-324z" />
    <glyph glyph-name="Thorn" unicode="&#xde;" horiz-adv-x="2600" 
d="M532 660v324h980q176 0 298 62t184 177.5t62 276.5q0 153 -58 263.5t-184 171.5t-322 61h-960v324h980q288 0 493.5 -94t314 -277t108.5 -445q0 -259 -107.5 -449t-315 -292.5t-501.5 -102.5h-972zM340 0v2848h372v-2848h-372z" />
    <glyph glyph-name="germandbls" unicode="&#xdf;" horiz-adv-x="2420" 
d="M320 2048q0 285 99.5 474.5t294.5 283.5t482 94q295 0 491 -95.5t288.5 -255.5t92.5 -357q0 -140 -50.5 -267t-159 -222t-274.5 -131v12q214 -39 356 -140t211 -253t69 -347q0 -267 -122 -456.5t-348 -288.5t-534 -99h-98.5h-98.5h-15v308h124h124q199 0 333 64.5
t200.5 185t66.5 290.5q0 178 -72 298.5t-209.5 181t-334.5 60.5h-232v308h180q157 0 272.5 55t177.5 157.5t62 243.5q0 132 -55 230.5t-169.5 154t-287.5 55.5q-163 0 -273 -51t-166.5 -154.5t-56.5 -258.5v-2128h-368v2048z" />
    <glyph glyph-name="agrave" unicode="&#xe0;" horiz-adv-x="2280" 
d="M2004 0q-120 0 -200 40.5t-120 121t-40 198.5l-56 32v740v116v248q0 109 -49.5 179.5t-152 105.5t-262.5 35q-152 0 -250 -35t-151.5 -115.5t-66.5 -217.5h-364q17 226 119.5 375.5t288 223t452.5 73.5q259 0 439 -71.5t274.5 -218.5t94.5 -370v-1008q0 -69 17 -107.5
t55.5 -55.5t107.5 -17h30h30v-272h-98h-98zM900 -52q-210 0 -366 71t-241 206.5t-85 322.5q0 174 73.5 307t230 219.5t400.5 117.5l528 68q51 7 83.5 25.5t48.5 50.5t16 80l148 -212q0 -58 -15 -98t-47 -63t-82 -31l-620 -92q-141 -21 -229.5 -69.5t-129.5 -120t-41 -166.5
q0 -104 48.5 -179t138 -114t209.5 -39q163 0 306 68t228.5 181t85.5 243h116v-304q-49 -131 -161 -238.5t-277 -170.5t-366 -63zM1016 2452l-532 640h504l352 -640h-324z" />
    <glyph glyph-name="aacute" unicode="&#xe1;" horiz-adv-x="2280" 
d="M2004 0q-120 0 -200 40.5t-120 121t-40 198.5l-56 32v740v116v248q0 109 -49.5 179.5t-152 105.5t-262.5 35q-152 0 -250 -35t-151.5 -115.5t-66.5 -217.5h-364q17 226 119.5 375.5t288 223t452.5 73.5q259 0 439 -71.5t274.5 -218.5t94.5 -370v-1008q0 -69 17 -107.5
t55.5 -55.5t107.5 -17h30h30v-272h-98h-98zM900 -52q-210 0 -366 71t-241 206.5t-85 322.5q0 174 73.5 307t230 219.5t400.5 117.5l528 68q51 7 83.5 25.5t48.5 50.5t16 80l148 -212q0 -58 -15 -98t-47 -63t-82 -31l-620 -92q-141 -21 -229.5 -69.5t-129.5 -120t-41 -166.5
q0 -104 48.5 -179t138 -114t209.5 -39q163 0 306 68t228.5 181t85.5 243h116v-304q-49 -131 -161 -238.5t-277 -170.5t-366 -63zM964 2452l352 640h504l-532 -640h-324z" />
    <glyph glyph-name="acircumflex" unicode="&#xe2;" horiz-adv-x="2280" 
d="M2004 0q-120 0 -200 40.5t-120 121t-40 198.5l-56 32v740v116v248q0 109 -49.5 179.5t-152 105.5t-262.5 35q-152 0 -250 -35t-151.5 -115.5t-66.5 -217.5h-364q17 226 119.5 375.5t288 223t452.5 73.5q259 0 439 -71.5t274.5 -218.5t94.5 -370v-1008q0 -69 17 -107.5
t55.5 -55.5t107.5 -17h30h30v-272h-98h-98zM900 -52q-210 0 -366 71t-241 206.5t-85 322.5q0 174 73.5 307t230 219.5t400.5 117.5l528 68q51 7 83.5 25.5t48.5 50.5t16 80l148 -212q0 -58 -15 -98t-47 -63t-82 -31l-620 -92q-141 -21 -229.5 -69.5t-129.5 -120t-41 -166.5
q0 -104 48.5 -179t138 -114t209.5 -39q163 0 306 68t228.5 181t85.5 243h116v-304q-49 -131 -161 -238.5t-277 -170.5t-366 -63zM464 2452l476 640h424l476 -640h-408l-280 408l-280 -408h-408z" />
    <glyph glyph-name="atilde" unicode="&#xe3;" horiz-adv-x="2280" 
d="M2004 0q-120 0 -200 40.5t-120 121t-40 198.5l-56 32v740v116v248q0 109 -49.5 179.5t-152 105.5t-262.5 35q-152 0 -250 -35t-151.5 -115.5t-66.5 -217.5h-364q17 226 119.5 375.5t288 223t452.5 73.5q259 0 439 -71.5t274.5 -218.5t94.5 -370v-1008q0 -69 17 -107.5
t55.5 -55.5t107.5 -17h30h30v-272h-98h-98zM900 -52q-210 0 -366 71t-241 206.5t-85 322.5q0 174 73.5 307t230 219.5t400.5 117.5l528 68q51 7 83.5 25.5t48.5 50.5t16 80l148 -212q0 -58 -15 -98t-47 -63t-82 -31l-620 -92q-141 -21 -229.5 -69.5t-129.5 -120t-41 -166.5
q0 -104 48.5 -179t138 -114t209.5 -39q163 0 306 68t228.5 181t85.5 243h116v-304q-49 -131 -161 -238.5t-277 -170.5t-366 -63zM408 2452q0 203 57 336.5t157 196.5t230 63q94 0 163.5 -27.5t115.5 -66t105 -100.5q43 -45 71 -70.5t63.5 -42.5t77.5 -17q60 0 97 33.5
t56 104t23 186.5h272q0 -203 -56.5 -336.5t-156 -196.5t-231.5 -63q-92 0 -160.5 27t-113.5 65t-102 99q-43 46 -71.5 72t-66 43.5t-82.5 17.5q-60 0 -97 -34t-56 -105t-23 -185h-272z" />
    <glyph glyph-name="adieresis" unicode="&#xe4;" horiz-adv-x="2280" 
d="M2004 0q-120 0 -200 40.5t-120 121t-40 198.5l-56 32v740v116v248q0 109 -49.5 179.5t-152 105.5t-262.5 35q-152 0 -250 -35t-151.5 -115.5t-66.5 -217.5h-364q17 226 119.5 375.5t288 223t452.5 73.5q259 0 439 -71.5t274.5 -218.5t94.5 -370v-1008q0 -69 17 -107.5
t55.5 -55.5t107.5 -17h30h30v-272h-98h-98zM900 -52q-210 0 -366 71t-241 206.5t-85 322.5q0 174 73.5 307t230 219.5t400.5 117.5l528 68q51 7 83.5 25.5t48.5 50.5t16 80l148 -212q0 -58 -15 -98t-47 -63t-82 -31l-620 -92q-141 -21 -229.5 -69.5t-129.5 -120t-41 -166.5
q0 -104 48.5 -179t138 -114t209.5 -39q163 0 306 68t228.5 181t85.5 243h116v-304q-49 -131 -161 -238.5t-277 -170.5t-366 -63zM1396 2452v396h368v-396h-368zM540 2452v396h368v-396h-368z" />
    <glyph glyph-name="aring" unicode="&#xe5;" horiz-adv-x="2280" 
d="M2004 0q-120 0 -200 40.5t-120 121t-40 198.5l-56 32v740v116v248q0 109 -49.5 179.5t-152 105.5t-262.5 35q-152 0 -250 -35t-151.5 -115.5t-66.5 -217.5h-364q17 226 119.5 375.5t288 223t452.5 73.5q259 0 439 -71.5t274.5 -218.5t94.5 -370v-1008q0 -69 17 -107.5
t55.5 -55.5t107.5 -17h30h30v-272h-98h-98zM900 -52q-210 0 -366 71t-241 206.5t-85 322.5q0 174 73.5 307t230 219.5t400.5 117.5l528 68q51 7 83.5 25.5t48.5 50.5t16 80l148 -212q0 -58 -15 -98t-47 -63t-82 -31l-620 -92q-141 -21 -229.5 -69.5t-129.5 -120t-41 -166.5
q0 -104 48.5 -179t138 -114t209.5 -39q163 0 306 68t228.5 181t85.5 243h116v-304q-49 -131 -161 -238.5t-277 -170.5t-366 -63zM1152 2412q-142 0 -256 64.5t-179 178t-65 253.5q0 144 65 259t179 180t256 65t256 -65t179 -180t65 -259q0 -140 -65 -253.5t-179 -178
t-256 -64.5zM1152 2636q78 0 139 33t95 95t34 144q0 86 -34 149.5t-95 97t-139 33.5t-139 -33.5t-95 -97t-34 -149.5q0 -82 34 -144t95 -95t139 -33z" />
    <glyph glyph-name="ae" unicode="&#xe6;" horiz-adv-x="3676" 
d="M2540 -48q-301 0 -512.5 137.5t-319.5 383t-108 567.5q0 320 106 561.5t315.5 376t510.5 134.5q289 0 501.5 -124t327.5 -356.5t115 -551.5v-68v-68h-1612v264h1428l-152 -176q0 250 -71 425t-206 265t-327 90q-181 0 -318 -80t-213.5 -239t-76.5 -389v-124
q0 -240 76 -403t216 -244t332 -81q149 0 261 48t188 139t122 224l335 -39q-62 -212 -192 -363t-315 -230t-411 -79zM944 -52q-220 0 -386.5 76t-258 214t-91.5 318q0 174 73 304.5t229.5 215.5t401.5 116l528 68q48 6 80 24.5t48 51t16 80.5l148 -212q0 -58 -15 -98.5
t-46 -63.5t-79 -30l-620 -92q-143 -21 -232 -66.5t-130.5 -114.5t-41.5 -163q0 -104 51 -181t143 -118t214 -41q164 0 303.5 71t222 199.5t82.5 293.5v304v104v236q0 109 -47.5 191.5t-153.5 129.5t-275 47q-138 0 -233 -34t-151.5 -112.5t-70.5 -209.5h-361
q19 220 124.5 366t287.5 218t432 72q270 0 440.5 -81t251 -231.5t84.5 -367.5v-808h-56q-69 -226 -199.5 -377t-311 -225t-401.5 -74z" />
    <glyph glyph-name="ccedilla" unicode="&#xe7;" horiz-adv-x="2227" 
d="M1156 -52q-290 0 -505 123t-333 363t-118 582q0 344 119 591.5t339 378t518 130.5q238 0 421.5 -83.5t299 -247t150.5 -397.5h-345q-29 141 -97 234t-174.5 139.5t-250.5 46.5q-205 0 -341.5 -91.5t-203.5 -264.5t-67 -420q0 -244 70.5 -418t207 -266t330.5 -92
q150 0 258 54.5t174.5 157.5t94.5 252h343q-35 -244 -147 -416.5t-299 -264t-444 -91.5zM876 -756h69h71q108 0 171.5 20t90 55.5t26.5 84.5q0 43 -17 70t-54 40.5t-97 13.5h-131h-129v176l196 336l196 -40l-144 -248h68q126 0 214.5 -39t135 -114.5t46.5 -182.5
q0 -114 -64.5 -199t-187 -131t-292.5 -46h-85.5h-82.5v204z" />
    <glyph glyph-name="egrave" unicode="&#xe8;" horiz-adv-x="2316" 
d="M1180 -48q-302 0 -523.5 138t-339 384.5t-117.5 565.5q0 317 115.5 559.5t335 377.5t521.5 135q289 0 501.5 -124t327.5 -356.5t115 -551.5v-68v-68h-1612v264h1428l-152 -176q0 250 -71 425t-206 265t-327 90q-181 0 -318 -80t-213.5 -239t-76.5 -389v-124
q0 -240 76 -403t216 -244t332 -81q142 0 250.5 43.5t184.5 127.5t123 206l338 -40q-66 -202 -195.5 -345t-311 -217.5t-401.5 -74.5zM1036 2452l-532 640h504l352 -640h-324z" />
    <glyph glyph-name="eacute" unicode="&#xe9;" horiz-adv-x="2316" 
d="M1180 -48q-302 0 -523.5 138t-339 384.5t-117.5 565.5q0 317 115.5 559.5t335 377.5t521.5 135q289 0 501.5 -124t327.5 -356.5t115 -551.5v-68v-68h-1612v264h1428l-152 -176q0 250 -71 425t-206 265t-327 90q-181 0 -318 -80t-213.5 -239t-76.5 -389v-124
q0 -240 76 -403t216 -244t332 -81q142 0 250.5 43.5t184.5 127.5t123 206l338 -40q-66 -202 -195.5 -345t-311 -217.5t-401.5 -74.5zM984 2452l352 640h504l-532 -640h-324z" />
    <glyph glyph-name="ecircumflex" unicode="&#xea;" horiz-adv-x="2316" 
d="M1180 -48q-302 0 -523.5 138t-339 384.5t-117.5 565.5q0 317 115.5 559.5t335 377.5t521.5 135q289 0 501.5 -124t327.5 -356.5t115 -551.5v-68v-68h-1612v264h1428l-152 -176q0 250 -71 425t-206 265t-327 90q-181 0 -318 -80t-213.5 -239t-76.5 -389v-124
q0 -240 76 -403t216 -244t332 -81q142 0 250.5 43.5t184.5 127.5t123 206l338 -40q-66 -202 -195.5 -345t-311 -217.5t-401.5 -74.5zM484 2452l476 640h424l476 -640h-408l-280 408l-280 -408h-408z" />
    <glyph glyph-name="edieresis" unicode="&#xeb;" horiz-adv-x="2316" 
d="M1180 -48q-302 0 -523.5 138t-339 384.5t-117.5 565.5q0 317 115.5 559.5t335 377.5t521.5 135q289 0 501.5 -124t327.5 -356.5t115 -551.5v-68v-68h-1612v264h1428l-152 -176q0 250 -71 425t-206 265t-327 90q-181 0 -318 -80t-213.5 -239t-76.5 -389v-124
q0 -240 76 -403t216 -244t332 -81q142 0 250.5 43.5t184.5 127.5t123 206l338 -40q-66 -202 -195.5 -345t-311 -217.5t-401.5 -74.5zM1416 2452v396h368v-396h-368zM560 2452v396h368v-396h-368z" />
    <glyph glyph-name="igrave" unicode="&#xec;" horiz-adv-x="1008" 
d="M320 0v2064h368v-2064h-368zM368 2452l-332 640h448l172 -640h-288z" />
    <glyph glyph-name="iacute" unicode="&#xed;" horiz-adv-x="1008" 
d="M320 0v2064h368v-2064h-368zM352 2452l172 640h448l-332 -640h-288z" />
    <glyph glyph-name="icircumflex" unicode="&#xee;" horiz-adv-x="1008" 
d="M320 0v2064h368v-2064h-368zM-60 2452l380 640h364l380 -640h-356l-208 416l-208 -416h-352z" />
    <glyph glyph-name="idieresis" unicode="&#xef;" horiz-adv-x="1008" 
d="M320 0v2064h368v-2064h-368zM656 2452v396h368v-396h-368zM-16 2452v396h368v-396h-368z" />
    <glyph glyph-name="eth" unicode="&#xf0;" horiz-adv-x="2296" 
d="M1156 -52q-300 0 -526 124t-350 358.5t-124 557.5q0 320 119.5 554t335 358t497.5 124q166 0 305 -46.5t249.5 -155.5t177.5 -290l-104 80q-75 157 -171 305.5t-204 283t-233 267.5l-360 380h380l184 -200q259 -282 438.5 -549t276.5 -531t97 -520q0 -348 -119.5 -595.5
t-342 -376t-526.5 -128.5zM1156 256q193 0 332.5 87t213.5 252t74 393q0 224 -77.5 388.5t-218 252t-324.5 87.5q-198 0 -340 -84t-217 -247t-75 -397q0 -233 79 -398t221.5 -249.5t331.5 -84.5zM636 2184v268l556 164l744 252v-272l-588 -172z" />
    <glyph glyph-name="ntilde" unicode="&#xf1;" horiz-adv-x="2376" 
d="M320 0v2064h344v-400h24v-1664h-368zM1688 1360q0 143 -45 240t-136.5 146.5t-230.5 49.5q-155 0 -287.5 -63t-216.5 -208t-84 -377h-124v552h60q66 132 173.5 225t249.5 142t309 49q216 0 373.5 -80.5t242 -234t84.5 -369.5v-1432h-368v1360zM468 2452q0 203 57 336.5
t157 196.5t230 63q94 0 163.5 -27.5t115.5 -66t105 -100.5q43 -45 71 -70.5t63.5 -42.5t77.5 -17q60 0 97 33.5t56 104t23 186.5h272q0 -203 -56.5 -336.5t-156 -196.5t-231.5 -63q-92 0 -160.5 27t-113.5 65t-102 99q-43 46 -71.5 72t-66 43.5t-82.5 17.5q-60 0 -97 -34
t-56 -105t-23 -185h-272z" />
    <glyph glyph-name="ograve" unicode="&#xf2;" horiz-adv-x="2388" 
d="M1192 -52q-294 0 -519.5 137.5t-349 385.5t-123.5 569q0 318 128 562.5t354 379t510 134.5q289 0 515 -132.5t353.5 -377t127.5 -566.5q0 -323 -126.5 -571t-353 -384.5t-516.5 -136.5zM1192 256q198 0 339.5 98.5t215 275.5t73.5 410q0 234 -74.5 407t-216 267
t-337.5 94q-194 0 -334.5 -93.5t-215 -266.5t-74.5 -408q0 -234 74 -411.5t214.5 -275t335.5 -97.5zM1068 2452l-532 640h504l352 -640h-324z" />
    <glyph glyph-name="oacute" unicode="&#xf3;" horiz-adv-x="2388" 
d="M1192 -52q-294 0 -519.5 137.5t-349 385.5t-123.5 569q0 318 128 562.5t354 379t510 134.5q289 0 515 -132.5t353.5 -377t127.5 -566.5q0 -323 -126.5 -571t-353 -384.5t-516.5 -136.5zM1192 256q198 0 339.5 98.5t215 275.5t73.5 410q0 234 -74.5 407t-216 267
t-337.5 94q-194 0 -334.5 -93.5t-215 -266.5t-74.5 -408q0 -234 74 -411.5t214.5 -275t335.5 -97.5zM1016 2452l352 640h504l-532 -640h-324z" />
    <glyph glyph-name="ocircumflex" unicode="&#xf4;" horiz-adv-x="2388" 
d="M1192 -52q-294 0 -519.5 137.5t-349 385.5t-123.5 569q0 318 128 562.5t354 379t510 134.5q289 0 515 -132.5t353.5 -377t127.5 -566.5q0 -323 -126.5 -571t-353 -384.5t-516.5 -136.5zM1192 256q198 0 339.5 98.5t215 275.5t73.5 410q0 234 -74.5 407t-216 267
t-337.5 94q-194 0 -334.5 -93.5t-215 -266.5t-74.5 -408q0 -234 74 -411.5t214.5 -275t335.5 -97.5zM516 2452l476 640h424l476 -640h-408l-280 408l-280 -408h-408z" />
    <glyph glyph-name="otilde" unicode="&#xf5;" horiz-adv-x="2388" 
d="M1192 -52q-294 0 -519.5 137.5t-349 385.5t-123.5 569q0 318 128 562.5t354 379t510 134.5q289 0 515 -132.5t353.5 -377t127.5 -566.5q0 -323 -126.5 -571t-353 -384.5t-516.5 -136.5zM1192 256q198 0 339.5 98.5t215 275.5t73.5 410q0 234 -74.5 407t-216 267
t-337.5 94q-194 0 -334.5 -93.5t-215 -266.5t-74.5 -408q0 -234 74 -411.5t214.5 -275t335.5 -97.5zM460 2452q0 203 57 336.5t157 196.5t230 63q94 0 163.5 -27.5t115.5 -66t105 -100.5q43 -45 71 -70.5t63.5 -42.5t77.5 -17q60 0 97 33.5t56 104t23 186.5h272
q0 -203 -56.5 -336.5t-156 -196.5t-231.5 -63q-92 0 -160.5 27t-113.5 65t-102 99q-43 46 -71.5 72t-66 43.5t-82.5 17.5q-60 0 -97 -34t-56 -105t-23 -185h-272z" />
    <glyph glyph-name="odieresis" unicode="&#xf6;" horiz-adv-x="2388" 
d="M1192 -52q-294 0 -519.5 137.5t-349 385.5t-123.5 569q0 318 128 562.5t354 379t510 134.5q289 0 515 -132.5t353.5 -377t127.5 -566.5q0 -323 -126.5 -571t-353 -384.5t-516.5 -136.5zM1192 256q198 0 339.5 98.5t215 275.5t73.5 410q0 234 -74.5 407t-216 267
t-337.5 94q-194 0 -334.5 -93.5t-215 -266.5t-74.5 -408q0 -234 74 -411.5t214.5 -275t335.5 -97.5zM1448 2452v396h368v-396h-368zM592 2452v396h368v-396h-368z" />
    <glyph glyph-name="divide" unicode="&#xf7;" horiz-adv-x="2640" 
d="M184 1244v360h2276v-360h-2276zM1108 428v436h432v-436h-432zM1108 1984v436h432v-436h-432z" />
    <glyph glyph-name="oslash" unicode="&#xf8;" horiz-adv-x="2388" 
d="M1192 -52q-294 0 -519.5 137.5t-349 385.5t-123.5 569q0 318 128 562.5t354 379t510 134.5q289 0 515 -132.5t353.5 -377t127.5 -566.5q0 -323 -126.5 -571t-353 -384.5t-516.5 -136.5zM1192 252q208 0 359 99.5t230 277.5t79 411q0 231 -81 405.5t-232.5 270.5
t-354.5 96q-201 0 -351.5 -96.5t-231.5 -271.5t-81 -404q0 -239 80 -417t230 -274.5t354 -96.5zM372 -112l-200 156l1844 2132l200 -156z" />
    <glyph glyph-name="ugrave" unicode="&#xf9;" horiz-adv-x="2376" 
d="M1020 -52q-216 0 -373.5 80.5t-242 234t-84.5 369.5v1432h368v-1360q0 -143 45 -240t136.5 -146.5t230.5 -49.5q155 0 287.5 63t216.5 208t84 377h124v-552h-60q-66 -132 -173.5 -225t-249.5 -142t-309 -49zM1712 0v400h-24v1664h368v-2064h-344zM1052 2452l-532 640h504
l352 -640h-324z" />
    <glyph glyph-name="uacute" unicode="&#xfa;" horiz-adv-x="2376" 
d="M1020 -52q-216 0 -373.5 80.5t-242 234t-84.5 369.5v1432h368v-1360q0 -143 45 -240t136.5 -146.5t230.5 -49.5q155 0 287.5 63t216.5 208t84 377h124v-552h-60q-66 -132 -173.5 -225t-249.5 -142t-309 -49zM1712 0v400h-24v1664h368v-2064h-344zM1000 2452l352 640h504
l-532 -640h-324z" />
    <glyph glyph-name="ucircumflex" unicode="&#xfb;" horiz-adv-x="2376" 
d="M1020 -52q-216 0 -373.5 80.5t-242 234t-84.5 369.5v1432h368v-1360q0 -143 45 -240t136.5 -146.5t230.5 -49.5q155 0 287.5 63t216.5 208t84 377h124v-552h-60q-66 -132 -173.5 -225t-249.5 -142t-309 -49zM1712 0v400h-24v1664h368v-2064h-344zM500 2452l476 640h424
l476 -640h-408l-280 408l-280 -408h-408z" />
    <glyph glyph-name="udieresis" unicode="&#xfc;" horiz-adv-x="2376" 
d="M1020 -52q-216 0 -373.5 80.5t-242 234t-84.5 369.5v1432h368v-1360q0 -143 45 -240t136.5 -146.5t230.5 -49.5q155 0 287.5 63t216.5 208t84 377h124v-552h-60q-66 -132 -173.5 -225t-249.5 -142t-309 -49zM1712 0v400h-24v1664h368v-2064h-344zM1432 2452v396h368v-396
h-368zM576 2452v396h368v-396h-368z" />
    <glyph glyph-name="yacute" unicode="&#xfd;" horiz-adv-x="2156" 
d="M300 -508h96h96q96 0 156 24t103 82.5t85 169.5l144 380l44 -352l-924 2268h400l464 -1236q51 -136 103.5 -300t84.5 -284h-104q31 115 83.5 278.5t104.5 305.5l440 1236h380l-960 -2468q-62 -158 -137.5 -247t-178 -127t-252.5 -38h-114h-114v308zM892 2452l352 640h504
l-532 -640h-324z" />
    <glyph glyph-name="thorn" unicode="&#xfe;" horiz-adv-x="2484" 
d="M1340 -44q-191 0 -353.5 71.5t-270.5 195t-144 273.5v1044q32 167 140.5 296t275.5 200.5t368 71.5q272 0 483 -127t328 -360t117 -541q0 -320 -115 -576t-329 -402t-500 -146zM320 -816v3664h368v-1212h-40v-1152h40v-1300h-368zM1304 272q187 0 325.5 101.5
t212.5 284.5t74 422q0 233 -73 392.5t-210.5 239.5t-328.5 80q-185 0 -329 -83.5t-225.5 -249.5t-81.5 -403t81.5 -415t226 -273.5t328.5 -95.5z" />
    <glyph glyph-name="ydieresis" unicode="&#xff;" horiz-adv-x="2156" 
d="M300 -508h96h96q96 0 156 24t103 82.5t85 169.5l144 380l44 -352l-924 2268h400l464 -1236q51 -136 103.5 -300t84.5 -284h-104q31 115 83.5 278.5t104.5 305.5l440 1236h380l-960 -2468q-62 -158 -137.5 -247t-178 -127t-252.5 -38h-114h-114v308zM1324 2452v396h368
v-396h-368zM468 2452v396h368v-396h-368z" />
    <glyph glyph-name="Amacron" unicode="&#x100;" horiz-adv-x="2864" 
d="M120 0l1104 2848h420l1100 -2848h-412l-684 1904q-50 139 -93 265t-82.5 248t-80.5 255h84q-36 -124 -75.5 -244.5t-87 -253.5t-97.5 -270l-700 -1904h-396zM652 836l120 324h1344l112 -324h-1576zM796 3148v284h1280v-284h-1280z" />
    <glyph glyph-name="amacron" unicode="&#x101;" horiz-adv-x="2280" 
d="M2004 0q-120 0 -200 40.5t-120 121t-40 198.5l-56 32v740v116v248q0 109 -49.5 179.5t-152 105.5t-262.5 35q-152 0 -250 -35t-151.5 -115.5t-66.5 -217.5h-364q17 226 119.5 375.5t288 223t452.5 73.5q259 0 439 -71.5t274.5 -218.5t94.5 -370v-1008q0 -69 17 -107.5
t55.5 -55.5t107.5 -17h30h30v-272h-98h-98zM900 -52q-210 0 -366 71t-241 206.5t-85 322.5q0 174 73.5 307t230 219.5t400.5 117.5l528 68q51 7 83.5 25.5t48.5 50.5t16 80l148 -212q0 -58 -15 -98t-47 -63t-82 -31l-620 -92q-141 -21 -229.5 -69.5t-129.5 -120t-41 -166.5
q0 -104 48.5 -179t138 -114t209.5 -39q163 0 306 68t228.5 181t85.5 243h116v-304q-49 -131 -161 -238.5t-277 -170.5t-366 -63zM512 2452v284h1280v-284h-1280z" />
    <glyph glyph-name="Abreve" unicode="&#x102;" horiz-adv-x="2864" 
d="M120 0l1104 2848h420l1100 -2848h-412l-684 1904q-50 139 -93 265t-82.5 248t-80.5 255h84q-36 -124 -75.5 -244.5t-87 -253.5t-97.5 -270l-700 -1904h-396zM652 836l120 324h1344l112 -324h-1576zM1432 3140q-217 0 -356 72t-205.5 202.5t-74.5 313.5h280
q4 -107 47.5 -178t122.5 -106.5t190 -35.5t190 35.5t122.5 106.5t47.5 178h280q-8 -182 -76.5 -313t-209 -203t-358.5 -72z" />
    <glyph glyph-name="abreve" unicode="&#x103;" horiz-adv-x="2280" 
d="M2004 0q-120 0 -200 40.5t-120 121t-40 198.5l-56 32v740v116v248q0 109 -49.5 179.5t-152 105.5t-262.5 35q-152 0 -250 -35t-151.5 -115.5t-66.5 -217.5h-364q17 226 119.5 375.5t288 223t452.5 73.5q259 0 439 -71.5t274.5 -218.5t94.5 -370v-1008q0 -69 17 -107.5
t55.5 -55.5t107.5 -17h30h30v-272h-98h-98zM900 -52q-210 0 -366 71t-241 206.5t-85 322.5q0 174 73.5 307t230 219.5t400.5 117.5l528 68q51 7 83.5 25.5t48.5 50.5t16 80l148 -212q0 -58 -15 -98t-47 -63t-82 -31l-620 -92q-141 -21 -229.5 -69.5t-129.5 -120t-41 -166.5
q0 -104 48.5 -179t138 -114t209.5 -39q163 0 306 68t228.5 181t85.5 243h116v-304q-49 -131 -161 -238.5t-277 -170.5t-366 -63zM1148 2436q-217 0 -356 72t-205.5 202.5t-74.5 313.5h280q4 -107 47.5 -178t122.5 -106.5t190 -35.5t190 35.5t122.5 106.5t47.5 178h280
q-8 -182 -76.5 -313t-209 -203t-358.5 -72z" />
    <glyph glyph-name="Aogonek" unicode="&#x104;" horiz-adv-x="2864" 
d="M120 0l1104 2848h420l1100 -2848h-412l-684 1904q-50 139 -93 265t-82.5 248t-80.5 255h84q-36 -124 -75.5 -244.5t-87 -253.5t-97.5 -270l-700 -1904h-396zM652 836l120 324h1344l112 -324h-1576zM2472 -816q-173 0 -279 37.5t-153.5 109.5t-47.5 181q0 95 41.5 181
t144 181.5t282.5 209.5l284 -84q-171 -90 -261.5 -158.5t-122.5 -121t-32 -108.5q0 -45 18.5 -73t59 -41.5t106.5 -13.5h106h106v-300h-126h-126z" />
    <glyph glyph-name="aogonek" unicode="&#x105;" horiz-adv-x="2280" 
d="M1928 -816q-173 0 -279 37.5t-153.5 109.5t-47.5 181q0 95 41.5 181t144 181.5t282.5 209.5l88 -84q-120 0 -200 40.5t-120 121t-40 198.5l-56 32v740v116v248q0 109 -49.5 179.5t-152 105.5t-262.5 35q-152 0 -250 -35t-151.5 -115.5t-66.5 -217.5h-364
q17 226 119.5 375.5t288 223t452.5 73.5q259 0 439 -71.5t274.5 -218.5t94.5 -370v-1008q0 -69 17 -107.5t55.5 -55.5t107.5 -17h30h30v-272q-171 -90 -261.5 -158.5t-122.5 -121t-32 -108.5q0 -45 18.5 -73t59 -41.5t106.5 -13.5h106h106v-300h-126h-126zM900 -52
q-210 0 -366 71t-241 206.5t-85 322.5q0 174 73 307t230 219.5t401 117.5l528 68q51 7 83.5 25.5t48.5 50.5t16 80l148 -212q0 -58 -16 -98t-48 -63.5t-80 -30.5l-620 -92q-140 -21 -229 -69.5t-130 -120t-41 -166.5q0 -104 48.5 -179t138 -114t209.5 -39q163 0 306 68
t228.5 181t85.5 243h116v-304q-49 -131 -161 -238.5t-277 -170.5t-366 -63z" />
    <glyph glyph-name="Cacute" unicode="&#x106;" horiz-adv-x="3048" 
d="M1604 -68q-410 0 -715.5 191t-469 530t-163.5 771q0 434 165.5 768.5t470 521t708.5 186.5q311 0 574 -112t435 -318.5t219 -481.5h-380q-48 187 -164.5 319.5t-287.5 200.5t-380 68q-304 0 -524.5 -138.5t-338 -398t-117.5 -615.5q0 -357 117 -620.5t337.5 -405.5
t525.5 -142q238 0 422 88t301 262.5t152 429.5h367q-47 -341 -212.5 -590t-431.5 -381.5t-610 -132.5zM1344 3148l352 620h504l-532 -620h-324z" />
    <glyph glyph-name="cacute" unicode="&#x107;" horiz-adv-x="2227" 
d="M1156 -52q-290 0 -505 123t-333 363t-118 582q0 344 119 591.5t339 378t518 130.5q238 0 421.5 -83.5t299 -247t150.5 -397.5h-345q-29 141 -97 234t-174.5 139.5t-250.5 46.5q-205 0 -341.5 -91.5t-203.5 -264.5t-67 -420q0 -244 70.5 -418t207 -266t330.5 -92
q150 0 258 54.5t174.5 157.5t94.5 252h343q-35 -244 -147 -416.5t-299 -264t-444 -91.5zM988 2452l352 640h504l-532 -640h-324z" />
    <glyph glyph-name="Ccircumflex" unicode="&#x108;" horiz-adv-x="3048" 
d="M1604 -68q-410 0 -715.5 191t-469 530t-163.5 771q0 434 165.5 768.5t470 521t708.5 186.5q311 0 574 -112t435 -318.5t219 -481.5h-380q-48 187 -164.5 319.5t-287.5 200.5t-380 68q-304 0 -524.5 -138.5t-338 -398t-117.5 -615.5q0 -357 117 -620.5t337.5 -405.5
t525.5 -142q238 0 422 88t301 262.5t152 429.5h367q-47 -341 -212.5 -590t-431.5 -381.5t-610 -132.5zM912 3148l472 620h432l472 -620h-408l-280 388l-280 -388h-408z" />
    <glyph glyph-name="ccircumflex" unicode="&#x109;" horiz-adv-x="2227" 
d="M1156 -52q-290 0 -505 123t-333 363t-118 582q0 344 119 591.5t339 378t518 130.5q238 0 421.5 -83.5t299 -247t150.5 -397.5h-345q-29 141 -97 234t-174.5 139.5t-250.5 46.5q-205 0 -341.5 -91.5t-203.5 -264.5t-67 -420q0 -244 70.5 -418t207 -266t330.5 -92
q150 0 258 54.5t174.5 157.5t94.5 252h343q-35 -244 -147 -416.5t-299 -264t-444 -91.5zM488 2452l476 640h424l476 -640h-408l-280 408l-280 -408h-408z" />
    <glyph glyph-name="Cdotaccent" unicode="&#x10a;" horiz-adv-x="3048" 
d="M1604 -68q-410 0 -715.5 191t-469 530t-163.5 771q0 434 165.5 768.5t470 521t708.5 186.5q311 0 574 -112t435 -318.5t219 -481.5h-380q-48 187 -164.5 319.5t-287.5 200.5t-380 68q-304 0 -524.5 -138.5t-338 -398t-117.5 -615.5q0 -357 117 -620.5t337.5 -405.5
t525.5 -142q238 0 422 88t301 262.5t152 429.5h367q-47 -341 -212.5 -590t-431.5 -381.5t-610 -132.5zM1416 3148v396h368v-396h-368z" />
    <glyph glyph-name="cdotaccent" unicode="&#x10b;" horiz-adv-x="2227" 
d="M1156 -52q-290 0 -505 123t-333 363t-118 582q0 344 119 591.5t339 378t518 130.5q238 0 421.5 -83.5t299 -247t150.5 -397.5h-345q-29 141 -97 234t-174.5 139.5t-250.5 46.5q-205 0 -341.5 -91.5t-203.5 -264.5t-67 -420q0 -244 70.5 -418t207 -266t330.5 -92
q150 0 258 54.5t174.5 157.5t94.5 252h343q-35 -244 -147 -416.5t-299 -264t-444 -91.5zM992 2452v396h368v-396h-368z" />
    <glyph glyph-name="Ccaron" unicode="&#x10c;" horiz-adv-x="3048" 
d="M1604 -68q-410 0 -715.5 191t-469 530t-163.5 771q0 434 165.5 768.5t470 521t708.5 186.5q311 0 574 -112t435 -318.5t219 -481.5h-380q-48 187 -164.5 319.5t-287.5 200.5t-380 68q-304 0 -524.5 -138.5t-338 -398t-117.5 -615.5q0 -357 117 -620.5t337.5 -405.5
t525.5 -142q238 0 422 88t301 262.5t152 429.5h367q-47 -341 -212.5 -590t-431.5 -381.5t-610 -132.5zM1384 3148l-472 620h408l280 -392l280 392h408l-472 -620h-432z" />
    <glyph glyph-name="ccaron" unicode="&#x10d;" horiz-adv-x="2227" 
d="M1156 -52q-290 0 -505 123t-333 363t-118 582q0 344 119 591.5t339 378t518 130.5q238 0 421.5 -83.5t299 -247t150.5 -397.5h-345q-29 141 -97 234t-174.5 139.5t-250.5 46.5q-205 0 -341.5 -91.5t-203.5 -264.5t-67 -420q0 -244 70.5 -418t207 -266t330.5 -92
q150 0 258 54.5t174.5 157.5t94.5 252h343q-35 -244 -147 -416.5t-299 -264t-444 -91.5zM960 2452l-472 640h408l280 -408l280 408h408l-472 -640h-432z" />
    <glyph glyph-name="Dcaron" unicode="&#x10e;" horiz-adv-x="3016" 
d="M340 0v2848h1028q467 0 778 -171.5t462.5 -489.5t151.5 -763q0 -439 -159 -757.5t-488.5 -492.5t-828.5 -174h-944zM1248 324q368 0 616.5 104.5t382 347.5t133.5 648q0 412 -135.5 654.5t-379 344t-593.5 101.5h-560v-2200h536zM1084 3148l-472 620h408l280 -392
l280 392h408l-472 -620h-432z" />
    <glyph glyph-name="dcaron" unicode="&#x10f;" horiz-adv-x="3024" 
d="M1140 -44q-286 0 -499 142t-327 394t-114 572q0 308 118.5 545t330 368t483.5 131q203 0 369.5 -71.5t273.5 -200.5t137 -296v-1044q-38 -151 -147 -274t-271.5 -194.5t-353.5 -71.5zM1176 272q184 0 329.5 95.5t228 273.5t82.5 415q0 238 -81 403.5t-223.5 249
t-327.5 83.5q-190 0 -328.5 -84t-213 -247.5t-74.5 -396.5q0 -239 73 -418t210 -276.5t325 -97.5zM1844 0v580h-8v1056h-40v1212h368v-2848h-320zM2460 2216l152 632h440l-316 -632h-276z" />
    <glyph glyph-name="Dcroat" unicode="&#x110;" horiz-adv-x="3216" 
d="M184 1276v324l544 -28l1056 28v-324l-1056 28zM540 0v2848h1028q467 0 778 -171.5t462.5 -489.5t151.5 -763q0 -439 -159 -757.5t-488.5 -492.5t-828.5 -174h-944zM912 324h536q368 0 616.5 104.5t382 347.5t133.5 648q0 412 -135.5 654.5t-379 344t-593.5 101.5h-560
v-2200z" />
    <glyph glyph-name="dcroat" unicode="&#x111;" horiz-adv-x="2576" 
d="M1140 -44q-286 0 -499 142t-327 394t-114 572q0 308 118.5 545t330 368t483.5 131q203 0 369.5 -71.5t273.5 -200.5t137 -296v-1044q-38 -151 -147 -274t-271.5 -194.5t-353.5 -71.5zM1176 272q184 0 329.5 95.5t228 273.5t82.5 415q0 238 -81 403.5t-223.5 249
t-327.5 83.5q-190 0 -328.5 -84t-213 -247.5t-74.5 -396.5q0 -239 73 -418t210 -276.5t325 -97.5zM1844 0v580h-8v1056h-40v1212h368v-2848h-320zM1252 2316v284l728 -20l536 20v-284l-536 20z" />
    <glyph glyph-name="Emacron" unicode="&#x112;" horiz-adv-x="2652" 
d="M340 0v2848h2016v-324h-1644v-2200h1680v-324h-2052zM528 1304v324h1700v-324h-1700zM744 3148v284h1280v-284h-1280z" />
    <glyph glyph-name="emacron" unicode="&#x113;" horiz-adv-x="2316" 
d="M1180 -48q-302 0 -523.5 138t-339 384.5t-117.5 565.5q0 317 115.5 559.5t335 377.5t521.5 135q289 0 501.5 -124t327.5 -356.5t115 -551.5v-68v-68h-1612v264h1428l-152 -176q0 250 -71 425t-206 265t-327 90q-181 0 -318 -80t-213.5 -239t-76.5 -389v-124
q0 -240 76 -403t216 -244t332 -81q142 0 250.5 43.5t184.5 127.5t123 206l338 -40q-66 -202 -195.5 -345t-311 -217.5t-401.5 -74.5zM532 2452v284h1280v-284h-1280z" />
    <glyph glyph-name="Ebreve" unicode="&#x114;" horiz-adv-x="2652" 
d="M340 0v2848h2016v-324h-1644v-2200h1680v-324h-2052zM528 1304v324h1700v-324h-1700zM1380 3140q-217 0 -356 72t-205.5 202.5t-74.5 313.5h280q4 -107 47.5 -178t122.5 -106.5t190 -35.5t190 35.5t122.5 106.5t47.5 178h280q-8 -182 -76.5 -313t-209 -203t-358.5 -72z
" />
    <glyph glyph-name="ebreve" unicode="&#x115;" horiz-adv-x="2316" 
d="M1180 -48q-302 0 -523.5 138t-339 384.5t-117.5 565.5q0 317 115.5 559.5t335 377.5t521.5 135q289 0 501.5 -124t327.5 -356.5t115 -551.5v-68v-68h-1612v264h1428l-152 -176q0 250 -71 425t-206 265t-327 90q-181 0 -318 -80t-213.5 -239t-76.5 -389v-124
q0 -240 76 -403t216 -244t332 -81q142 0 250.5 43.5t184.5 127.5t123 206l338 -40q-66 -202 -195.5 -345t-311 -217.5t-401.5 -74.5zM1168 2436q-217 0 -356 72t-205.5 202.5t-74.5 313.5h280q4 -107 47.5 -178t122.5 -106.5t190 -35.5t190 35.5t122.5 106.5t47.5 178h280
q-8 -182 -76.5 -313t-209 -203t-358.5 -72z" />
    <glyph glyph-name="Edotaccent" unicode="&#x116;" horiz-adv-x="2652" 
d="M340 0v2848h2016v-324h-1644v-2200h1680v-324h-2052zM528 1304v324h1700v-324h-1700zM1200 3148v396h368v-396h-368z" />
    <glyph glyph-name="edotaccent" unicode="&#x117;" horiz-adv-x="2316" 
d="M1180 -48q-302 0 -523.5 138t-339 384.5t-117.5 565.5q0 317 115.5 559.5t335 377.5t521.5 135q289 0 501.5 -124t327.5 -356.5t115 -551.5v-68v-68h-1612v264h1428l-152 -176q0 250 -71 425t-206 265t-327 90q-181 0 -318 -80t-213.5 -239t-76.5 -389v-124
q0 -240 76 -403t216 -244t332 -81q142 0 250.5 43.5t184.5 127.5t123 206l338 -40q-66 -202 -195.5 -345t-311 -217.5t-401.5 -74.5zM988 2452v396h368v-396h-368z" />
    <glyph glyph-name="Eogonek" unicode="&#x118;" horiz-adv-x="2652" 
d="M340 0v2848h2016v-324h-1644v-2200h1680v-324h-2052zM528 1304v324h1700v-324h-1700zM2120 -816q-173 0 -279 37.5t-153.5 109.5t-47.5 181q0 95 41.5 181t144 181.5t282.5 209.5l284 -84q-171 -90 -261.5 -158.5t-122.5 -121t-32 -108.5q0 -45 18.5 -73t59 -41.5
t106.5 -13.5h106h106v-300h-126h-126z" />
    <glyph glyph-name="eogonek" unicode="&#x119;" horiz-adv-x="2316" 
d="M1584 -816q-141 0 -247 32.5t-167.5 110t-61.5 205.5q0 67 19 129t69.5 134t141.5 158q23 22 48.5 45t53.5 46l388 244q-127 -137 -234.5 -210t-203.5 -99.5t-210 -26.5q-302 0 -523.5 138t-339 384.5t-117.5 565.5q0 317 115.5 559.5t335 377.5t521.5 135
q289 0 501.5 -124t327.5 -356.5t115 -551.5v-68v-68h-1612v264h1428l-152 -176q0 250 -71 425t-206 265t-327 90q-181 0 -318 -80t-213.5 -239t-76.5 -389v-124q0 -240 74 -403t212 -244t330 -81q140 0 249.5 41.5t189 125t129.5 209.5l336 -40q-67 -142 -119 -226.5
t-99 -138.5t-135 -141q-12 -12 -25 -24.5t-26 -25.5q-14 -14 -27 -27.5t-26 -27.5q-60 -66 -102.5 -127.5t-65.5 -118.5t-23 -107q0 -45 20 -76.5t57 -47.5t87 -16h108h108v-300h-118h-118z" />
    <glyph glyph-name="Ecaron" unicode="&#x11a;" horiz-adv-x="2652" 
d="M340 0v2848h2016v-324h-1644v-2200h1680v-324h-2052zM528 1304v324h1700v-324h-1700zM1168 3148l-472 620h408l280 -392l280 392h408l-472 -620h-432z" />
    <glyph glyph-name="ecaron" unicode="&#x11b;" horiz-adv-x="2316" 
d="M1180 -48q-302 0 -523.5 138t-339 384.5t-117.5 565.5q0 317 115.5 559.5t335 377.5t521.5 135q289 0 501.5 -124t327.5 -356.5t115 -551.5v-68v-68h-1612v264h1428l-152 -176q0 250 -71 425t-206 265t-327 90q-181 0 -318 -80t-213.5 -239t-76.5 -389v-124
q0 -240 76 -403t216 -244t332 -81q142 0 250.5 43.5t184.5 127.5t123 206l338 -40q-66 -202 -195.5 -345t-311 -217.5t-401.5 -74.5zM956 2452l-472 640h408l280 -408l280 408h408l-472 -640h-432z" />
    <glyph glyph-name="Gcircumflex" unicode="&#x11c;" horiz-adv-x="3228" 
d="M1604 -64q-390 0 -696 181t-479 519.5t-173 795.5q0 438 163.5 770t473.5 515t735 183q322 0 579.5 -107t420 -307.5t208.5 -473.5l-360 -24q-41 197 -158.5 327t-289 191.5t-380.5 61.5q-322 0 -549.5 -139.5t-345 -397.5t-117.5 -611q0 -346 113 -606t333 -403
t530 -143q278 0 472.5 116.5t302 335.5t129.5 528h232v-152q-38 -330 -168 -590t-373.5 -415t-602.5 -155zM2592 0l-72 444v756h-864v324h1232v-1524h-296zM940 3148l472 620h432l472 -620h-408l-280 388l-280 -388h-408z" />
    <glyph glyph-name="gcircumflex" unicode="&#x11d;" horiz-adv-x="2484" 
d="M1144 -864q-259 0 -446 64.5t-298 202t-134 353.5h358q27 -120 95.5 -192t178 -104t266.5 -32q243 0 384 71.5t200.5 208.5t59.5 348v372h40v1056h-28v580h344v-1972q0 -332 -123 -545t-349.5 -312t-547.5 -99zM1140 -44q-286 0 -499 142t-327 394t-114 572
q0 308 118.5 545t330 368t483.5 131q203 0 369.5 -71.5t273.5 -200.5t137 -296v-1044q-38 -151 -147 -274t-271.5 -194.5t-353.5 -71.5zM1176 272q184 0 329.5 95.5t228 273.5t82.5 415q0 238 -81 403.5t-223.5 249t-327.5 83.5q-190 0 -328.5 -84t-213 -247.5t-74.5 -396.5
q0 -239 73 -418t210 -276.5t325 -97.5zM509 2452l476 640h424l476 -640h-408l-280 408l-280 -408h-408z" />
    <glyph glyph-name="Gbreve" unicode="&#x11e;" horiz-adv-x="3228" 
d="M1604 -64q-390 0 -696 181t-479 519.5t-173 795.5q0 438 163.5 770t473.5 515t735 183q322 0 579.5 -107t420 -307.5t208.5 -473.5l-360 -24q-41 197 -158.5 327t-289 191.5t-380.5 61.5q-322 0 -549.5 -139.5t-345 -397.5t-117.5 -611q0 -346 113 -606t333 -403
t530 -143q278 0 472.5 116.5t302 335.5t129.5 528h232v-152q-38 -330 -168 -590t-373.5 -415t-602.5 -155zM2592 0l-72 444v756h-864v324h1232v-1524h-296zM1624 3140q-217 0 -356 72t-205.5 202.5t-74.5 313.5h280q4 -107 47.5 -178t122.5 -106.5t190 -35.5t190 35.5
t122.5 106.5t47.5 178h280q-8 -182 -76.5 -313t-209 -203t-358.5 -72z" />
    <glyph glyph-name="gbreve" unicode="&#x11f;" horiz-adv-x="2484" 
d="M1144 -864q-259 0 -446 64.5t-298 202t-134 353.5h358q27 -120 95.5 -192t178 -104t266.5 -32q243 0 384 71.5t200.5 208.5t59.5 348v372h40v1056h-28v580h344v-1972q0 -332 -123 -545t-349.5 -312t-547.5 -99zM1140 -44q-286 0 -499 142t-327 394t-114 572
q0 308 118.5 545t330 368t483.5 131q203 0 369.5 -71.5t273.5 -200.5t137 -296v-1044q-38 -151 -147 -274t-271.5 -194.5t-353.5 -71.5zM1176 272q184 0 329.5 95.5t228 273.5t82.5 415q0 238 -81 403.5t-223.5 249t-327.5 83.5q-190 0 -328.5 -84t-213 -247.5t-74.5 -396.5
q0 -239 73 -418t210 -276.5t325 -97.5zM1193 2436q-217 0 -356 72t-205.5 202.5t-74.5 313.5h280q4 -107 47.5 -178t122.5 -106.5t190 -35.5t190 35.5t122.5 106.5t47.5 178h280q-8 -182 -76.5 -313t-209 -203t-358.5 -72z" />
    <glyph glyph-name="Gdotaccent" unicode="&#x120;" horiz-adv-x="3228" 
d="M1604 -64q-390 0 -696 181t-479 519.5t-173 795.5q0 438 163.5 770t473.5 515t735 183q322 0 579.5 -107t420 -307.5t208.5 -473.5l-360 -24q-41 197 -158.5 327t-289 191.5t-380.5 61.5q-322 0 -549.5 -139.5t-345 -397.5t-117.5 -611q0 -346 113 -606t333 -403
t530 -143q278 0 472.5 116.5t302 335.5t129.5 528h232v-152q-38 -330 -168 -590t-373.5 -415t-602.5 -155zM2592 0l-72 444v756h-864v324h1232v-1524h-296zM1444 3148v396h368v-396h-368z" />
    <glyph glyph-name="gdotaccent" unicode="&#x121;" horiz-adv-x="2484" 
d="M1144 -864q-259 0 -446 64.5t-298 202t-134 353.5h358q27 -120 95.5 -192t178 -104t266.5 -32q243 0 384 71.5t200.5 208.5t59.5 348v372h40v1056h-28v580h344v-1972q0 -332 -123 -545t-349.5 -312t-547.5 -99zM1140 -44q-286 0 -499 142t-327 394t-114 572
q0 308 118.5 545t330 368t483.5 131q203 0 369.5 -71.5t273.5 -200.5t137 -296v-1044q-38 -151 -147 -274t-271.5 -194.5t-353.5 -71.5zM1176 272q184 0 329.5 95.5t228 273.5t82.5 415q0 238 -81 403.5t-223.5 249t-327.5 83.5q-190 0 -328.5 -84t-213 -247.5t-74.5 -396.5
q0 -239 73 -418t210 -276.5t325 -97.5zM1013 2452v396h368v-396h-368z" />
    <glyph glyph-name="Gcommaaccent" unicode="&#x122;" horiz-adv-x="3228" 
d="M1604 -64q-390 0 -696 181t-479 519.5t-173 795.5q0 438 163.5 770t473.5 515t735 183q322 0 579.5 -107t420 -307.5t208.5 -473.5l-360 -24q-41 197 -158.5 327t-289 191.5t-380.5 61.5q-322 0 -549.5 -139.5t-345 -397.5t-117.5 -611q0 -346 113 -606t333 -403
t530 -143q278 0 472.5 116.5t302 335.5t129.5 528h232v-152q-38 -330 -168 -590t-373.5 -415t-602.5 -155zM2592 0l-72 444v756h-864v324h1232v-1524h-296zM1380 -1072v156h140q50 0 84 16t51 48t17 80v192l80 -80h-372v308h448v-388q0 -110 -34 -184t-102 -111t-172 -37
h-140z" />
    <glyph glyph-name="gcommaaccent" unicode="&#x123;" horiz-adv-x="2484" 
d="M1144 -864q-259 0 -446 64.5t-298 202t-134 353.5h358q27 -120 95.5 -192t178 -104t266.5 -32q243 0 384 71.5t200.5 208.5t59.5 348v372h40v1056h-28v580h344v-1972q0 -332 -123 -545t-349.5 -312t-547.5 -99zM1140 -44q-286 0 -499 142t-327 394t-114 572
q0 308 118.5 545t330 368t483.5 131q203 0 369.5 -71.5t273.5 -200.5t137 -296v-1044q-38 -151 -147 -274t-271.5 -194.5t-353.5 -71.5zM1176 272q184 0 329.5 95.5t228 273.5t82.5 415q0 238 -81 403.5t-223.5 249t-327.5 83.5q-190 0 -328.5 -84t-213 -247.5t-74.5 -396.5
q0 -239 73 -418t210 -276.5t325 -97.5zM1421 3172v-156h-140q-50 0 -84 -16t-51 -48t-17 -80v-192l-80 80h372v-308h-448v388q0 110 34 184t102 111t172 37h140z" />
    <glyph glyph-name="Hcircumflex" unicode="&#x124;" horiz-adv-x="2932" 
d="M2220 0v2848h372v-2848h-372zM340 0v2848h372v-2848h-372zM528 1352v324h1880v-324h-1880zM780 3148l472 620h432l472 -620h-408l-280 388l-280 -388h-408z" />
    <glyph glyph-name="hcircumflex" unicode="&#x125;" horiz-adv-x="2376" 
d="M1688 1360q0 143 -45 240t-136.5 146.5t-230.5 49.5q-155 0 -287.5 -63t-216.5 -208t-84 -377l-124 324v228h60q66 132 173.5 225t249.5 142t309 49q216 0 373.5 -80.5t242 -234t84.5 -369.5v-1432h-368v1360zM320 0v2848h368v-2848h-368zM500 3148l472 620h432l472 -620
h-408l-280 388l-280 -388h-408z" />
    <glyph glyph-name="Hbar" unicode="&#x126;" horiz-adv-x="3372" 
d="M2440 0v2848h372v-2848h-372zM560 0v2848h372v-2848h-372zM748 1220v324h1880v-324h-1880zM200 2032v324h2972v-324h-2972z" />
    <glyph glyph-name="hbar" unicode="&#x127;" horiz-adv-x="2468" 
d="M1780 1360q0 143 -45 240t-136.5 146.5t-230.5 49.5q-155 0 -287.5 -63t-216.5 -208t-84 -377l-124 324v228h60q66 132 173.5 225t249.5 142t309 49q216 0 373.5 -80.5t242 -234t84.5 -369.5v-1432h-368v1360zM412 0v2848h368v-2848h-368zM60 2316v284l536 -20l728 20
v-284l-728 20z" />
    <glyph glyph-name="Itilde" unicode="&#x128;" horiz-adv-x="1052" 
d="M340 0v2848h372v-2848h-372zM-152 3148q0 210 52 347t142.5 201t209.5 64q81 0 144 -29t106 -70t97 -105q37 -44 61.5 -69.5t54 -42t61.5 -16.5q48 0 78 34.5t45 107.5t17 190h284q0 -211 -51.5 -347.5t-142 -200.5t-210.5 -64q-80 0 -142 28.5t-104.5 69t-94.5 103.5
q-38 45 -63 71t-55 43t-65 17q-46 0 -76.5 -35.5t-46 -109t-17.5 -187.5h-284z" />
    <glyph glyph-name="itilde" unicode="&#x129;" horiz-adv-x="1008" 
d="M320 0v2064h368v-2064h-368zM-172 2452q0 210 52 347t142.5 201t209.5 64q81 0 144 -29t106 -70t97 -105q37 -44 61.5 -69.5t54 -42t61.5 -16.5q48 0 78 34.5t45 107.5t17 190h284q0 -211 -51.5 -347.5t-142 -200.5t-210.5 -64q-80 0 -142 28.5t-104.5 69t-94.5 103.5
q-38 45 -63 71t-55 43t-65 17q-46 0 -76.5 -35.5t-46 -109t-17.5 -187.5h-284z" />
    <glyph glyph-name="Imacron" unicode="&#x12a;" horiz-adv-x="1052" 
d="M340 0v2848h372v-2848h-372zM24 3148v284h1000v-284h-1000z" />
    <glyph glyph-name="imacron" unicode="&#x12b;" horiz-adv-x="1008" 
d="M320 0v2064h368v-2064h-368zM4 2452v284h1000v-284h-1000z" />
    <glyph glyph-name="Ibreve" unicode="&#x12c;" horiz-adv-x="1052" 
d="M340 0v2848h372v-2848h-372zM520 3136q-177 0 -290.5 72t-167.5 203t-58 313h272q2 -110 30.5 -183t83 -109t134.5 -36q78 0 133 36.5t84 109.5t31 182h272q-4 -181 -60 -312.5t-171.5 -203.5t-292.5 -72z" />
    <glyph glyph-name="ibreve" unicode="&#x12d;" horiz-adv-x="1008" 
d="M320 0v2064h368v-2064h-368zM500 2436q-177 0 -290.5 72t-167.5 203t-58 313h272q2 -110 30.5 -183t83 -109t134.5 -36q78 0 133 36.5t84 109.5t31 182h272q-4 -181 -60 -312.5t-171.5 -203.5t-292.5 -72z" />
    <glyph glyph-name="Iogonek" unicode="&#x12e;" horiz-adv-x="1052" 
d="M340 0v2848h372v-2848h-372zM576 -816q-183 0 -293 36.5t-160.5 114t-50.5 205.5q0 69 20.5 132.5t80.5 146t175 193.5l364 -12q-119 -86 -187.5 -153t-96.5 -120.5t-28 -106.5q0 -44 18 -74.5t54 -46t92 -15.5h96.5h103.5v-300h-95h-93z" />
    <glyph glyph-name="iogonek" unicode="&#x12f;" horiz-adv-x="1008" 
d="M320 0v2064h368v-2064h-368zM320 2452v396h368v-396h-368zM552 -816q-183 0 -293 36.5t-160.5 114t-50.5 205.5q0 69 20.5 132.5t80.5 146t175 193.5l364 -12q-119 -86 -187.5 -153t-96.5 -120.5t-28 -106.5q0 -44 18 -74.5t54 -46t92 -15.5h96.5h103.5v-300h-95h-93z
" />
    <glyph glyph-name="Idotaccent" unicode="&#x130;" horiz-adv-x="1052" 
d="M340 0v2848h372v-2848h-372zM340 3148v396h368v-396h-368z" />
    <glyph glyph-name="dotlessi" unicode="&#x131;" horiz-adv-x="1008" 
d="M320 0v2064h368v-2064h-368z" />
    <glyph glyph-name="IJ" unicode="&#x132;" horiz-adv-x="3380" 
d="M340 0v2848h372v-2848h-372zM2148 -48q-284 0 -490.5 96t-316 278t-109.5 434v212h372v-192q0 -166 62 -278t184 -169t302 -57q168 0 283 57t174 169.5t59 277.5v2068h372v-2080q0 -266 -103.5 -448.5t-303 -275t-485.5 -92.5z" />
    <glyph glyph-name="ij" unicode="&#x133;" horiz-adv-x="2016" 
d="M320 0v2064h368v-2064h-368zM320 2452v396h368v-396h-368zM968 -508h46h46q100 0 155.5 24.5t80 80t24.5 155.5v2312h368v-2260q0 -217 -65 -353.5t-201.5 -201.5t-353.5 -65h-50h-50v308zM1328 2452v396h368v-396h-368z" />
    <glyph glyph-name="Jcircumflex" unicode="&#x134;" horiz-adv-x="2348" 
d="M1116 -48q-284 0 -490.5 96t-316 278t-109.5 434v212h372v-192q0 -166 62 -278t184 -169t302 -57q168 0 283 57t174 169.5t59 277.5v2068h372v-2080q0 -266 -103.5 -448.5t-303 -275t-485.5 -92.5zM1260 3148l380 620h364l380 -620h-356l-208 400l-208 -400h-352z" />
    <glyph glyph-name="jcircumflex" unicode="&#x135;" horiz-adv-x="1008" 
d="M-32 -508h46h46q100 0 155.5 24.5t80 80t24.5 155.5v2312h368v-2260q0 -217 -65 -353.5t-201.5 -201.5t-353.5 -65h-50h-50v308zM-52 2452l380 640h364l380 -640h-356l-208 416l-208 -416h-352z" />
    <glyph glyph-name="Kcommaaccent" unicode="&#x136;" horiz-adv-x="2856" 
d="M484 776v456l768 740l908 876h496l-1324 -1264l-64 -48zM340 0v2848h372v-832v-768v-116v-1132h-372zM2272 0l-748 1012l-372 504v228h268l1316 -1744h-464zM1184 -1072v156h140q50 0 84 16t51 48t17 80v192l80 -80h-372v308h448v-388q0 -110 -34 -184t-102 -111
t-172 -37h-140z" />
    <glyph glyph-name="kcommaaccent" unicode="&#x137;" horiz-adv-x="2252" 
d="M524 656v336l456 472l620 600h464l-924 -852l-64 -56zM320 0v2848h368v-1200l-20 -580l20 -108v-960h-368zM1692 0l-464 708l-268 452v192h248l916 -1352h-432zM951 -1072v156h140q50 0 84 16t51 48t17 80v192l80 -80h-372v308h448v-388q0 -110 -34 -184t-102 -111
t-172 -37h-140z" />
    <glyph glyph-name="kgreenlandic" unicode="&#x138;" horiz-adv-x="2252" 
d="M524 656v336l456 472l620 600h464l-924 -852l-64 -56zM320 0v2064h368v-416l-20 -580l20 -108v-960h-368zM1692 0l-464 708l-268 452v192h248l916 -1352h-432z" />
    <glyph glyph-name="Lacute" unicode="&#x139;" horiz-adv-x="2336" 
d="M340 0v2848h372v-2524h1484v-324h-1856zM364 3148l352 620h504l-532 -620h-324z" />
    <glyph glyph-name="lacute" unicode="&#x13a;" horiz-adv-x="1008" 
d="M320 0v2848h368v-2848h-368zM352 3148l168 620h448l-328 -620h-288z" />
    <glyph glyph-name="Lcommaaccent" unicode="&#x13b;" horiz-adv-x="2336" 
d="M340 0v2848h372v-2524h1484v-324h-1856zM1068 -1072v156h140q50 0 84 16t51 48t17 80v192l80 -80h-372v308h448v-388q0 -110 -34 -184t-102 -111t-172 -37h-140z" />
    <glyph glyph-name="lcommaaccent" unicode="&#x13c;" horiz-adv-x="1008" 
d="M320 0v2848h368v-2848h-368zM280 -1072v156h140q50 0 84 16t51 48t17 80v192l80 -80h-372v308h448v-388q0 -110 -34 -184t-102 -111t-172 -37h-140z" />
    <glyph glyph-name="Lcaron" unicode="&#x13d;" horiz-adv-x="2336" 
d="M340 0v2848h372v-2524h1484v-324h-1856zM1128 2216l152 632h440l-316 -632h-276z" />
    <glyph glyph-name="lcaron" unicode="&#x13e;" horiz-adv-x="1548" 
d="M320 0v2848h368v-2848h-368zM956 2216l152 632h440l-316 -632h-276z" />
    <glyph glyph-name="Ldot" unicode="&#x13f;" horiz-adv-x="2336" 
d="M1468 1272v404h452v-404h-452zM340 0v2848h372v-2524h1484v-324h-1856z" />
    <glyph glyph-name="ldot" unicode="&#x140;" horiz-adv-x="1700" 
d="M1128 1216v404h452v-404h-452zM320 0v2848h368v-2848h-368z" />
    <glyph glyph-name="Lslash" unicode="&#x141;" horiz-adv-x="2540" 
d="M184 1132v340l528 244l1000 524v-340l-960 -468zM544 0v2848h372v-2524h1484v-324h-1856z" />
    <glyph glyph-name="lslash" unicode="&#x142;" horiz-adv-x="1224" 
d="M80 972v344l480 228l584 336v-344l-484 -228zM428 0v2848h368v-2848h-368z" />
    <glyph glyph-name="Nacute" unicode="&#x143;" horiz-adv-x="2944" 
d="M340 0v2848h412l1204 -1860q104 -160 206.5 -332t246.5 -422q11 -19 21.5 -37t21.5 -37h-180q-1 30 -2 61l-2 62q-7 203 -11.5 375.5t-4.5 329.5v1860h352v-2848h-424l-1056 1640q-111 173 -223 353.5t-217.5 356.5t-215.5 362h204q6 -179 10.5 -361t7 -359.5t2.5 -351.5
v-1640h-352zM1216 3148l352 620h504l-532 -620h-324z" />
    <glyph glyph-name="nacute" unicode="&#x144;" horiz-adv-x="2376" 
d="M320 0v2064h344v-400h24v-1664h-368zM1688 1360q0 143 -45 240t-136.5 146.5t-230.5 49.5q-155 0 -287.5 -63t-216.5 -208t-84 -377h-124v552h60q66 132 173.5 225t249.5 142t309 49q216 0 373.5 -80.5t242 -234t84.5 -369.5v-1432h-368v1360zM1024 2452l352 640h504
l-532 -640h-324z" />
    <glyph glyph-name="Ncommaaccent" unicode="&#x145;" horiz-adv-x="2944" 
d="M340 0v2848h412l1204 -1860q104 -160 206.5 -332t246.5 -422q11 -19 21.5 -37t21.5 -37h-180q-1 30 -2 61l-2 62q-7 203 -11.5 375.5t-4.5 329.5v1860h352v-2848h-424l-1056 1640q-111 173 -223 353.5t-217.5 356.5t-215.5 362h204q6 -179 10.5 -361t7 -359.5t2.5 -351.5
v-1640h-352zM1272 -1072v156h140q50 0 84 16t51 48t17 80v192l80 -80h-372v308h448v-388q0 -110 -34 -184t-102 -111t-172 -37h-140z" />
    <glyph glyph-name="ncommaaccent" unicode="&#x146;" horiz-adv-x="2376" 
d="M320 0v2064h344v-400h24v-1664h-368zM1688 1360q0 143 -45 240t-136.5 146.5t-230.5 49.5q-155 0 -287.5 -63t-216.5 -208t-84 -377h-124v552h60q66 132 173.5 225t249.5 142t309 49q216 0 373.5 -80.5t242 -234t84.5 -369.5v-1432h-368v1360zM963 -1072v156h140
q50 0 84 16t51 48t17 80v192l80 -80h-372v308h448v-388q0 -110 -34 -184t-102 -111t-172 -37h-140z" />
    <glyph glyph-name="Ncaron" unicode="&#x147;" horiz-adv-x="2944" 
d="M340 0v2848h412l1204 -1860q104 -160 206.5 -332t246.5 -422q11 -19 21.5 -37t21.5 -37h-180q-1 30 -2 61l-2 62q-7 203 -11.5 375.5t-4.5 329.5v1860h352v-2848h-424l-1056 1640q-111 173 -223 353.5t-217.5 356.5t-215.5 362h204q6 -179 10.5 -361t7 -359.5t2.5 -351.5
v-1640h-352zM1256 3148l-472 620h408l280 -392l280 392h408l-472 -620h-432z" />
    <glyph glyph-name="ncaron" unicode="&#x148;" horiz-adv-x="2376" 
d="M320 0v2064h344v-400h24v-1664h-368zM1688 1360q0 143 -45 240t-136.5 146.5t-230.5 49.5q-155 0 -287.5 -63t-216.5 -208t-84 -377h-124v552h60q66 132 173.5 225t249.5 142t309 49q216 0 373.5 -80.5t242 -234t84.5 -369.5v-1432h-368v1360zM996 2452l-472 640h408
l280 -408l280 408h408l-472 -640h-432z" />
    <glyph glyph-name="napostrophe" unicode="&#x149;" horiz-adv-x="3508" 
d="M344 1784v200h40q62 0 104 21t63 63t21 104v328l52 -52h-284v404h440v-636q0 -144 -44 -240t-132 -144t-220 -48h-40zM1452 0v2064h344v-400h24v-1664h-368zM2820 1360q0 143 -45 240t-136.5 146.5t-230.5 49.5q-155 0 -287.5 -63t-216.5 -208t-84 -377h-124v552h60
q66 132 173.5 225t249.5 142t309 49q216 0 373.5 -80.5t242 -234t84.5 -369.5v-1432h-368v1360z" />
    <glyph glyph-name="Eng" unicode="&#x14a;" horiz-adv-x="2944" 
d="M1860 -508h66h66q100 0 155.5 24.5t80 80t24.5 155.5v296l40 -108l-1144 1708q-127 189 -246 372.5t-228.5 359.5t-201.5 332h200q5 -148 9.5 -327.5t7.5 -372t3 -372.5v-1640h-352v2848h412l1244 -1860q91 -137 177 -279.5t218 -368.5q26 -45 52.5 -90t52.5 -90h-224
q-1 30 -2 61l-2 62q-7 203 -11.5 375.5t-4.5 329.5v1860h352v-3044q0 -219 -61.5 -354.5t-194 -200.5t-348.5 -65h-70h-70v308z" />
    <glyph glyph-name="eng" unicode="&#x14b;" horiz-adv-x="2376" 
d="M1336 -508h46h46q100 0 155.5 24.5t80 80t24.5 155.5v1608q0 143 -45 240t-136.5 146.5t-230.5 49.5q-155 0 -287.5 -63t-216.5 -208t-84 -377h-124v552h60q66 132 173.5 225t249.5 142t309 49q216 0 373.5 -80.5t242 -234t84.5 -369.5v-1628q0 -217 -65 -353.5
t-201.5 -201.5t-353.5 -65h-50h-50v308zM320 0v2064h344v-400h24v-1664h-368z" />
    <glyph glyph-name="Omacron" unicode="&#x14c;" horiz-adv-x="3204" 
d="M1600 -68q-393 0 -698.5 190.5t-475.5 530t-170 771.5q0 428 170 763.5t475.5 524t698.5 188.5q395 0 701.5 -188.5t476.5 -524t170 -763.5q0 -435 -170 -774.5t-476.5 -528.5t-701.5 -189zM1604 256q285 0 503.5 142.5t339.5 406.5t121 619q0 346 -122.5 607.5
t-341.5 403t-500 141.5q-283 0 -502.5 -141.5t-342.5 -403t-123 -607.5q0 -350 123 -615t342.5 -409t502.5 -144zM960 3148v284h1280v-284h-1280z" />
    <glyph glyph-name="omacron" unicode="&#x14d;" horiz-adv-x="2388" 
d="M1192 -52q-294 0 -519.5 137.5t-349 385.5t-123.5 569q0 318 128 562.5t354 379t510 134.5q289 0 515 -132.5t353.5 -377t127.5 -566.5q0 -323 -126.5 -571t-353 -384.5t-516.5 -136.5zM1192 256q198 0 339.5 98.5t215 275.5t73.5 410q0 234 -74.5 407t-216 267
t-337.5 94q-194 0 -334.5 -93.5t-215 -266.5t-74.5 -408q0 -234 74 -411.5t214.5 -275t335.5 -97.5zM564 2452v284h1280v-284h-1280z" />
    <glyph glyph-name="Obreve" unicode="&#x14e;" horiz-adv-x="3204" 
d="M1600 -68q-393 0 -698.5 190.5t-475.5 530t-170 771.5q0 428 170 763.5t475.5 524t698.5 188.5q395 0 701.5 -188.5t476.5 -524t170 -763.5q0 -435 -170 -774.5t-476.5 -528.5t-701.5 -189zM1604 256q285 0 503.5 142.5t339.5 406.5t121 619q0 346 -122.5 607.5
t-341.5 403t-500 141.5q-283 0 -502.5 -141.5t-342.5 -403t-123 -607.5q0 -350 123 -615t342.5 -409t502.5 -144zM1596 3140q-217 0 -356 72t-205.5 202.5t-74.5 313.5h280q4 -107 47.5 -178t122.5 -106.5t190 -35.5t190 35.5t122.5 106.5t47.5 178h280q-8 -182 -76.5 -313
t-209 -203t-358.5 -72z" />
    <glyph glyph-name="obreve" unicode="&#x14f;" horiz-adv-x="2388" 
d="M1192 -52q-294 0 -519.5 137.5t-349 385.5t-123.5 569q0 318 128 562.5t354 379t510 134.5q289 0 515 -132.5t353.5 -377t127.5 -566.5q0 -323 -126.5 -571t-353 -384.5t-516.5 -136.5zM1192 256q198 0 339.5 98.5t215 275.5t73.5 410q0 234 -74.5 407t-216 267
t-337.5 94q-194 0 -334.5 -93.5t-215 -266.5t-74.5 -408q0 -234 74 -411.5t214.5 -275t335.5 -97.5zM1200 2436q-217 0 -356 72t-205.5 202.5t-74.5 313.5h280q4 -107 47.5 -178t122.5 -106.5t190 -35.5t190 35.5t122.5 106.5t47.5 178h280q-8 -182 -76.5 -313t-209 -203
t-358.5 -72z" />
    <glyph glyph-name="Ohungarumlaut" unicode="&#x150;" horiz-adv-x="3204" 
d="M1600 -68q-393 0 -698.5 190.5t-475.5 530t-170 771.5q0 428 170 763.5t475.5 524t698.5 188.5q395 0 701.5 -188.5t476.5 -524t170 -763.5q0 -435 -170 -774.5t-476.5 -528.5t-701.5 -189zM1604 256q285 0 503.5 142.5t339.5 406.5t121 619q0 346 -122.5 607.5
t-341.5 403t-500 141.5q-283 0 -502.5 -141.5t-342.5 -403t-123 -607.5q0 -350 123 -615t342.5 -409t502.5 -144zM1732 3148l360 620h432l-476 -620h-316zM984 3148l360 620h432l-476 -620h-316z" />
    <glyph glyph-name="ohungarumlaut" unicode="&#x151;" horiz-adv-x="2388" 
d="M1192 -52q-294 0 -519.5 137.5t-349 385.5t-123.5 569q0 318 128 562.5t354 379t510 134.5q289 0 515 -132.5t353.5 -377t127.5 -566.5q0 -323 -126.5 -571t-353 -384.5t-516.5 -136.5zM1192 256q198 0 339.5 98.5t215 275.5t73.5 410q0 234 -74.5 407t-216 267
t-337.5 94q-194 0 -334.5 -93.5t-215 -266.5t-74.5 -408q0 -234 74 -411.5t214.5 -275t335.5 -97.5zM1336 2452l364 640h432l-480 -640h-316zM588 2452l364 640h432l-480 -640h-316z" />
    <glyph glyph-name="OE" unicode="&#x152;" horiz-adv-x="4880" 
d="M1600 -68q-396 0 -701.5 190.5t-474 529.5t-168.5 772q0 428 169.5 764t476 524t702.5 188q380 0 652.5 -172.5t416 -501.5t143.5 -790q0 -466 -145 -804.5t-418.5 -519t-652.5 -180.5zM1608 264q281 0 498 134t339.5 395.5t122.5 630.5q0 361 -124 619t-342.5 391.5
t-497.5 133.5q-288 0 -507.5 -140t-340 -399t-120.5 -605q0 -350 121 -612.5t341 -405t510 -142.5zM2568 0v2848h2016v-324h-1644v-2200h1680v-324h-2052zM2716 1304v324h1740v-324h-1740z" />
    <glyph glyph-name="oe" unicode="&#x153;" horiz-adv-x="3936" 
d="M1192 -52q-293 0 -518 135.5t-349.5 381.5t-124.5 567q0 327 127 572.5t354.5 378.5t522.5 133q287 0 510.5 -130.5t348.5 -372.5t125 -565q0 -320 -127.5 -570t-354.5 -390t-514 -140zM1192 256q196 0 338 99.5t216 278.5t74 414q0 234 -74 405t-215 263t-339 92
q-193 0 -334 -96t-215.5 -271t-74.5 -409q0 -233 75.5 -408.5t216 -271.5t332.5 -96zM2800 -48q-302 0 -523.5 138t-339 384.5t-117.5 565.5q0 317 115.5 559.5t335 377.5t521.5 135q289 0 501.5 -124t327.5 -356.5t115 -551.5v-68v-68h-1612v264h1428l-152 -176
q0 250 -71 425t-206 265t-327 90q-181 0 -318 -80t-213.5 -239t-76.5 -389v-124q0 -240 76 -403t216 -244t332 -81q149 0 261 48t188 139t122 224l335 -39q-62 -212 -192 -363t-315 -230t-411 -79z" />
    <glyph glyph-name="Racute" unicode="&#x154;" horiz-adv-x="2864" 
d="M340 0v2848h1320q269 0 465.5 -92.5t301.5 -262.5t105 -397q0 -211 -87 -374.5t-239 -257.5t-342 -104v40q168 0 295.5 -56.5t205 -167t95.5 -268.5l60 -524q8 -72 15.5 -136.5t14.5 -125t15 -122.5h-376q-8 67 -17 144.5t-17 157.5q-2 16 -4 31.5t-3 30.5l-44 396
q-19 170 -76 272t-163 149t-273 47h-1060v324h1000q194 0 333 59.5t213 173.5t74 275q0 150 -64 253.5t-188.5 157t-303.5 53.5h-1064l180 148v-2672h-372zM1156 3148l352 620h504l-532 -620h-324z" />
    <glyph glyph-name="racute" unicode="&#x155;" horiz-adv-x="1472" 
d="M320 0v2064h344v-520h24v-1544h-368zM592 1460q56 205 149.5 352t232.5 227.5t326 80.5q28 0 57 -2t55 -5v-358q-36 3 -70 4t-62 1q-142 0 -275.5 -73t-221 -216t-95.5 -343h-80zM736 2452l172 640h448l-332 -640h-288z" />
    <glyph glyph-name="Rcommaaccent" unicode="&#x156;" horiz-adv-x="2864" 
d="M340 0v2848h1320q269 0 465.5 -92.5t301.5 -262.5t105 -397q0 -211 -87 -374.5t-239 -257.5t-342 -104v40q168 0 295.5 -56.5t205 -167t95.5 -268.5l60 -524q8 -72 15.5 -136.5t14.5 -125t15 -122.5h-376q-8 67 -17 144.5t-17 157.5q-2 16 -4 31.5t-3 30.5l-44 396
q-19 170 -76 272t-163 149t-273 47h-1060v324h1000q194 0 333 59.5t213 173.5t74 275q0 150 -64 253.5t-188.5 157t-303.5 53.5h-1064l180 148v-2672h-372zM1228 -1072v156h140q50 0 84 16t51 48t17 80v192l80 -80h-372v308h448v-388q0 -110 -34 -184t-102 -111t-172 -37
h-140z" />
    <glyph glyph-name="rcommaaccent" unicode="&#x157;" horiz-adv-x="1472" 
d="M320 0v2064h344v-520h24v-1544h-368zM592 1460q56 205 149.5 352t232.5 227.5t326 80.5q28 0 57 -2t55 -5v-358q-36 3 -70 4t-62 1q-142 0 -275.5 -73t-221 -216t-95.5 -343h-80zM280 -1072v156h140q50 0 84 16t51 48t17 80v192l80 -80h-372v308h448v-388
q0 -110 -34 -184t-102 -111t-172 -37h-140z" />
    <glyph glyph-name="Rcaron" unicode="&#x158;" horiz-adv-x="2864" 
d="M340 0v2848h1320q269 0 465.5 -92.5t301.5 -262.5t105 -397q0 -211 -87 -374.5t-239 -257.5t-342 -104v40q168 0 295.5 -56.5t205 -167t95.5 -268.5l60 -524q8 -72 15.5 -136.5t14.5 -125t15 -122.5h-376q-8 67 -17 144.5t-17 157.5q-2 16 -4 31.5t-3 30.5l-44 396
q-19 170 -76 272t-163 149t-273 47h-1060v324h1000q194 0 333 59.5t213 173.5t74 275q0 150 -64 253.5t-188.5 157t-303.5 53.5h-1064l180 148v-2672h-372zM1196 3148l-472 620h408l280 -392l280 392h408l-472 -620h-432z" />
    <glyph glyph-name="rcaron" unicode="&#x159;" horiz-adv-x="1472" 
d="M320 0v2064h344v-520h24v-1544h-368zM592 1460q56 205 149.5 352t232.5 227.5t326 80.5q28 0 57 -2t55 -5v-358q-36 3 -70 4t-62 1q-142 0 -275.5 -73t-221 -216t-95.5 -343h-80zM704 2452l-380 640h356l208 -416l208 416h352l-380 -640h-364z" />
    <glyph glyph-name="Sacute" unicode="&#x15a;" horiz-adv-x="2671" 
d="M1367 -60q-357 0 -608.5 108.5t-391.5 326.5t-163 545h356q20 -234 119.5 -384t274.5 -221t425 -71q240 0 403 62.5t244 179t81 278.5q0 136 -59 231.5t-191 162.5t-354 114l-400 84q-249 52 -424.5 140t-275.5 235.5t-100 364.5q0 242 117.5 424t345 283t549.5 101
q314 0 545 -99.5t363.5 -291.5t154.5 -465h-355q-16 179 -104 302t-243.5 186.5t-372.5 63.5q-203 0 -348.5 -55.5t-222.5 -161.5t-77 -255q0 -117 52 -198.5t177 -142t347 -107.5l420 -88q268 -56 449 -161.5t274 -266t93 -380.5q0 -237 -114.5 -427.5t-361 -303.5
t-624.5 -113zM1059 3148l352 620h504l-532 -620h-324z" />
    <glyph glyph-name="sacute" unicode="&#x15b;" horiz-adv-x="2020" 
d="M1016 -52q-259 0 -441 76t-286.5 229t-128.5 383l348 16q18 -143 81.5 -233t173 -132.5t269.5 -42.5q165 0 276 39.5t165.5 112t54.5 172.5q0 93 -45.5 153.5t-147 102.5t-279.5 76l-208 40q-210 40 -350 112t-213 186.5t-73 277.5q0 182 87 316t259.5 207t421.5 73
q234 0 411.5 -69t287.5 -210t139 -353l-361 -17q-21 120 -80.5 199t-161 118.5t-247.5 39.5q-131 0 -224 -30t-142.5 -90.5t-49.5 -151.5t48 -147.5t136 -90t232 -62.5l200 -40q224 -45 378 -113.5t244 -189t90 -305.5q0 -201 -102.5 -348t-297 -225.5t-464.5 -78.5z
M792 2452l352 640h504l-532 -640h-324z" />
    <glyph glyph-name="Scircumflex" unicode="&#x15c;" horiz-adv-x="2671" 
d="M1367 -60q-357 0 -608.5 108.5t-391.5 326.5t-163 545h356q20 -234 119.5 -384t274.5 -221t425 -71q240 0 403 62.5t244 179t81 278.5q0 136 -59 231.5t-191 162.5t-354 114l-400 84q-249 52 -424.5 140t-275.5 235.5t-100 364.5q0 242 117.5 424t345 283t549.5 101
q314 0 545 -99.5t363.5 -291.5t154.5 -465h-355q-16 179 -104 302t-243.5 186.5t-372.5 63.5q-203 0 -348.5 -55.5t-222.5 -161.5t-77 -255q0 -117 52 -198.5t177 -142t347 -107.5l420 -88q268 -56 449 -161.5t274 -266t93 -380.5q0 -237 -114.5 -427.5t-361 -303.5
t-624.5 -113zM627 3148l472 620h432l472 -620h-408l-280 388l-280 -388h-408z" />
    <glyph glyph-name="scircumflex" unicode="&#x15d;" horiz-adv-x="2020" 
d="M1016 -52q-259 0 -441 76t-286.5 229t-128.5 383l348 16q18 -143 81.5 -233t173 -132.5t269.5 -42.5q165 0 276 39.5t165.5 112t54.5 172.5q0 93 -45.5 153.5t-147 102.5t-279.5 76l-208 40q-210 40 -350 112t-213 186.5t-73 277.5q0 182 87 316t259.5 207t421.5 73
q234 0 411.5 -69t287.5 -210t139 -353l-361 -17q-21 120 -80.5 199t-161 118.5t-247.5 39.5q-131 0 -224 -30t-142.5 -90.5t-49.5 -151.5t48 -147.5t136 -90t232 -62.5l200 -40q224 -45 378 -113.5t244 -189t90 -305.5q0 -201 -102.5 -348t-297 -225.5t-464.5 -78.5z
M292 2452l476 640h424l476 -640h-408l-280 408l-280 -408h-408z" />
    <glyph glyph-name="Scedilla" unicode="&#x15e;" horiz-adv-x="2671" 
d="M1367 -60q-357 0 -608.5 108.5t-391.5 326.5t-163 545h356q20 -234 119.5 -384t274.5 -221t425 -71q240 0 403 62.5t244 179t81 278.5q0 136 -59 231.5t-191 162.5t-354 114l-400 84q-249 52 -424.5 140t-275.5 235.5t-100 364.5q0 242 117.5 424t345 283t549.5 101
q314 0 545 -99.5t363.5 -291.5t154.5 -465h-355q-16 179 -104 302t-243.5 186.5t-372.5 63.5q-203 0 -348.5 -55.5t-222.5 -161.5t-77 -255q0 -117 52 -198.5t177 -142t347 -107.5l420 -88q268 -56 449 -161.5t274 -266t93 -380.5q0 -237 -114.5 -427.5t-361 -303.5
t-624.5 -113zM1095 -756h69h71q108 0 171.5 20t90 55.5t26.5 84.5q0 43 -17 70t-54 40.5t-97 13.5h-131h-129v176l196 336l196 -40l-144 -248h68q126 0 214.5 -39t135 -114.5t46.5 -182.5q0 -114 -64.5 -199t-187 -131t-292.5 -46h-85.5h-82.5v204z" />
    <glyph glyph-name="scedilla" unicode="&#x15f;" horiz-adv-x="2020" 
d="M1016 -52q-259 0 -441 76t-286.5 229t-128.5 383l348 16q18 -143 81.5 -233t173 -132.5t269.5 -42.5q165 0 276 39.5t165.5 112t54.5 172.5q0 93 -45.5 153.5t-147 102.5t-279.5 76l-208 40q-210 40 -350 112t-213 186.5t-73 277.5q0 182 87 316t259.5 207t421.5 73
q234 0 411.5 -69t287.5 -210t139 -353l-361 -17q-21 120 -80.5 199t-161 118.5t-247.5 39.5q-131 0 -224 -30t-142.5 -90.5t-49.5 -151.5t48 -147.5t136 -90t232 -62.5l200 -40q224 -45 378 -113.5t244 -189t90 -305.5q0 -201 -102.5 -348t-297 -225.5t-464.5 -78.5z
M748 -756h69h71q108 0 171.5 20t90 55.5t26.5 84.5q0 43 -17 70t-54 40.5t-97 13.5h-131h-129v176l196 336l196 -40l-144 -248h68q126 0 214.5 -39t135 -114.5t46.5 -182.5q0 -114 -64.5 -199t-187 -131t-292.5 -46h-85.5h-82.5v204z" />
    <glyph glyph-name="Scaron" unicode="&#x160;" horiz-adv-x="2671" 
d="M1367 -60q-357 0 -608.5 108.5t-391.5 326.5t-163 545h356q20 -234 119.5 -384t274.5 -221t425 -71q240 0 403 62.5t244 179t81 278.5q0 136 -59 231.5t-191 162.5t-354 114l-400 84q-249 52 -424.5 140t-275.5 235.5t-100 364.5q0 242 117.5 424t345 283t549.5 101
q314 0 545 -99.5t363.5 -291.5t154.5 -465h-355q-16 179 -104 302t-243.5 186.5t-372.5 63.5q-203 0 -348.5 -55.5t-222.5 -161.5t-77 -255q0 -117 52 -198.5t177 -142t347 -107.5l420 -88q268 -56 449 -161.5t274 -266t93 -380.5q0 -237 -114.5 -427.5t-361 -303.5
t-624.5 -113zM1099 3148l-472 620h408l280 -392l280 392h408l-472 -620h-432z" />
    <glyph glyph-name="scaron" unicode="&#x161;" horiz-adv-x="2020" 
d="M1016 -52q-259 0 -441 76t-286.5 229t-128.5 383l348 16q18 -143 81.5 -233t173 -132.5t269.5 -42.5q165 0 276 39.5t165.5 112t54.5 172.5q0 93 -45.5 153.5t-147 102.5t-279.5 76l-208 40q-210 40 -350 112t-213 186.5t-73 277.5q0 182 87 316t259.5 207t421.5 73
q234 0 411.5 -69t287.5 -210t139 -353l-361 -17q-21 120 -80.5 199t-161 118.5t-247.5 39.5q-131 0 -224 -30t-142.5 -90.5t-49.5 -151.5t48 -147.5t136 -90t232 -62.5l200 -40q224 -45 378 -113.5t244 -189t90 -305.5q0 -201 -102.5 -348t-297 -225.5t-464.5 -78.5z
M764 2452l-472 640h408l280 -408l280 408h408l-472 -640h-432z" />
    <glyph glyph-name="uni0162" unicode="&#x162;" horiz-adv-x="2556" 
d="M1092 0v2688h372v-2688h-372zM140 2524v324h2276v-324h-2276zM1008 -756h69h71q108 0 171.5 20t90 55.5t26.5 84.5q0 43 -17 70t-54 40.5t-97 13.5h-131h-129v176l196 336l196 -40l-144 -248h68q126 0 214.5 -39t135 -114.5t46.5 -182.5q0 -114 -64.5 -199t-187 -131
t-292.5 -46h-85.5h-82.5v204z" />
    <glyph glyph-name="uni0163" unicode="&#x163;" horiz-adv-x="1368" 
d="M876 0q-161 0 -262 48.5t-149.5 149.5t-48.5 262v1160v312v288v476h368v-476v-288v-312v-1112q0 -77 18.5 -120t61.5 -61.5t120 -18.5h112.5h113.5h42v-308h-19h-19h-169h-169zM80 1780v284l520 -20l656 20v-284l-656 20zM480 -756h69h71q108 0 171.5 20t90 55.5
t26.5 84.5q0 43 -17 70t-54 40.5t-97 13.5h-131h-129v176l196 336l196 -40l-144 -248h68q126 0 214.5 -39t135 -114.5t46.5 -182.5q0 -114 -64.5 -199t-187 -131t-292.5 -46h-85.5h-82.5v204z" />
    <glyph glyph-name="Tcaron" unicode="&#x164;" horiz-adv-x="2556" 
d="M1092 0v2688h372v-2688h-372zM140 2524v324h2276v-324h-2276zM1064 3148l-472 620h408l280 -392l280 392h408l-472 -620h-432z" />
    <glyph glyph-name="tcaron" unicode="&#x165;" horiz-adv-x="1616" 
d="M876 0q-161 0 -262 48.5t-149.5 149.5t-48.5 262v1160v312v288v476h368v-476v-288v-312v-1112q0 -77 18.5 -120t61.5 -61.5t120 -18.5h112.5h113.5h42v-308h-19h-19h-169h-169zM80 1780v284l520 -20l656 20v-284l-656 20zM1052 2328l152 632h440l-316 -632h-276z" />
    <glyph glyph-name="Tbar" unicode="&#x166;" horiz-adv-x="2556" 
d="M396 1292v324l884 -20l884 20v-324l-884 20zM1092 0v2688h372v-2688h-372zM140 2524v324h2276v-324h-2276z" />
    <glyph glyph-name="tbar" unicode="&#x167;" horiz-adv-x="1400" 
d="M908 0q-161 0 -262 48.5t-149.5 149.5t-48.5 262v328l12 304v840l-12 240v524h368v-524l-12 -240v-840l12 -304v-280q0 -77 18.5 -120t61.5 -61.5t120 -18.5h112.5h113.5h42v-308h-19h-19h-169h-169zM112 948v284l520 -20l656 20v-284l-656 20zM112 1780v284l520 -20
l656 20v-284l-656 20z" />
    <glyph glyph-name="Utilde" unicode="&#x168;" horiz-adv-x="2880" 
d="M1440 -64q-346 0 -592.5 112t-377 328.5t-130.5 523.5v1948h372v-1968q0 -196 79.5 -334.5t242 -212t406.5 -73.5t406.5 73.5t242 212t79.5 334.5v1968h372v-1948q0 -307 -130.5 -523.5t-377 -328.5t-592.5 -112zM696 3148q0 211 56 347.5t154.5 200.5t229.5 64
q94 0 164 -28.5t117 -68t106 -102.5q42 -46 71 -72t64.5 -43.5t77.5 -17.5q60 0 96 34.5t54 106.5t22 191h276q0 -210 -55.5 -346.5t-154 -201t-230.5 -64.5q-92 0 -161 27.5t-115 67t-102 101.5q-43 47 -72.5 73.5t-67 44.5t-82.5 18q-60 0 -96 -35t-54 -107.5t-22 -189.5
h-276z" />
    <glyph glyph-name="utilde" unicode="&#x169;" horiz-adv-x="2376" 
d="M1020 -52q-216 0 -373.5 80.5t-242 234t-84.5 369.5v1432h368v-1360q0 -143 45 -240t136.5 -146.5t230.5 -49.5q155 0 287.5 63t216.5 208t84 377h124v-552h-60q-66 -132 -173.5 -225t-249.5 -142t-309 -49zM1712 0v400h-24v1664h368v-2064h-344zM444 2452
q0 203 57 336.5t157 196.5t230 63q94 0 163.5 -27.5t115.5 -66t105 -100.5q43 -45 71 -70.5t63.5 -42.5t77.5 -17q60 0 97 33.5t56 104t23 186.5h272q0 -203 -56.5 -336.5t-156 -196.5t-231.5 -63q-92 0 -160.5 27t-113.5 65t-102 99q-43 46 -71.5 72t-66 43.5t-82.5 17.5
q-60 0 -97 -34t-56 -105t-23 -185h-272z" />
    <glyph glyph-name="Umacron" unicode="&#x16a;" horiz-adv-x="2880" 
d="M1440 -64q-346 0 -592.5 112t-377 328.5t-130.5 523.5v1948h372v-1968q0 -196 79.5 -334.5t242 -212t406.5 -73.5t406.5 73.5t242 212t79.5 334.5v1968h372v-1948q0 -307 -130.5 -523.5t-377 -328.5t-592.5 -112zM800 3148v284h1280v-284h-1280z" />
    <glyph glyph-name="umacron" unicode="&#x16b;" horiz-adv-x="2376" 
d="M1020 -52q-216 0 -373.5 80.5t-242 234t-84.5 369.5v1432h368v-1360q0 -143 45 -240t136.5 -146.5t230.5 -49.5q155 0 287.5 63t216.5 208t84 377h124v-552h-60q-66 -132 -173.5 -225t-249.5 -142t-309 -49zM1712 0v400h-24v1664h368v-2064h-344zM548 2452v284h1280v-284
h-1280z" />
    <glyph glyph-name="Ubreve" unicode="&#x16c;" horiz-adv-x="2880" 
d="M1440 -64q-346 0 -592.5 112t-377 328.5t-130.5 523.5v1948h372v-1968q0 -196 79.5 -334.5t242 -212t406.5 -73.5t406.5 73.5t242 212t79.5 334.5v1968h372v-1948q0 -307 -130.5 -523.5t-377 -328.5t-592.5 -112zM1436 3140q-217 0 -356 72t-205.5 202.5t-74.5 313.5h280
q4 -107 47.5 -178t122.5 -106.5t190 -35.5t190 35.5t122.5 106.5t47.5 178h280q-8 -182 -76.5 -313t-209 -203t-358.5 -72z" />
    <glyph glyph-name="ubreve" unicode="&#x16d;" horiz-adv-x="2376" 
d="M1020 -52q-216 0 -373.5 80.5t-242 234t-84.5 369.5v1432h368v-1360q0 -143 45 -240t136.5 -146.5t230.5 -49.5q155 0 287.5 63t216.5 208t84 377h124v-552h-60q-66 -132 -173.5 -225t-249.5 -142t-309 -49zM1712 0v400h-24v1664h368v-2064h-344zM1184 2436
q-217 0 -356 72t-205.5 202.5t-74.5 313.5h280q4 -107 47.5 -178t122.5 -106.5t190 -35.5t190 35.5t122.5 106.5t47.5 178h280q-8 -182 -76.5 -313t-209 -203t-358.5 -72z" />
    <glyph glyph-name="Uring" unicode="&#x16e;" horiz-adv-x="2880" 
d="M1440 -64q-346 0 -592.5 112t-377 328.5t-130.5 523.5v1948h372v-1968q0 -196 79.5 -334.5t242 -212t406.5 -73.5t406.5 73.5t242 212t79.5 334.5v1968h372v-1948q0 -307 -130.5 -523.5t-377 -328.5t-592.5 -112zM1440 2624q-144 0 -258 64.5t-178 179t-64 256.5
q0 141 64 255t178 179.5t258 65.5t258 -65.5t178 -179.5t64 -255q0 -142 -64 -256.5t-178 -179t-258 -64.5zM1440 2848q78 0 138.5 34t95 96.5t34.5 145.5t-34.5 145.5t-95 96.5t-138.5 34t-138.5 -34t-95 -96.5t-34.5 -145.5t34.5 -145.5t95 -96.5t138.5 -34z" />
    <glyph glyph-name="uring" unicode="&#x16f;" horiz-adv-x="2376" 
d="M1020 -52q-216 0 -373.5 80.5t-242 234t-84.5 369.5v1432h368v-1360q0 -143 45 -240t136.5 -146.5t230.5 -49.5q155 0 287.5 63t216.5 208t84 377h124v-552h-60q-66 -132 -173.5 -225t-249.5 -142t-309 -49zM1712 0v400h-24v1664h368v-2064h-344zM1188 2412
q-142 0 -256 64.5t-179 178t-65 253.5q0 144 65 259t179 180t256 65t256 -65t179 -180t65 -259q0 -140 -65 -253.5t-179 -178t-256 -64.5zM1188 2636q78 0 139 33t95 95t34 144q0 86 -34 149.5t-95 97t-139 33.5t-139 -33.5t-95 -97t-34 -149.5q0 -82 34 -144t95 -95
t139 -33z" />
    <glyph glyph-name="Uhungarumlaut" unicode="&#x170;" horiz-adv-x="2880" 
d="M1440 -64q-346 0 -592.5 112t-377 328.5t-130.5 523.5v1948h372v-1968q0 -196 79.5 -334.5t242 -212t406.5 -73.5t406.5 73.5t242 212t79.5 334.5v1968h372v-1948q0 -307 -130.5 -523.5t-377 -328.5t-592.5 -112zM1572 3148l360 620h432l-476 -620h-316zM824 3148
l360 620h432l-476 -620h-316z" />
    <glyph glyph-name="uhungarumlaut" unicode="&#x171;" horiz-adv-x="2376" 
d="M1020 -52q-216 0 -373.5 80.5t-242 234t-84.5 369.5v1432h368v-1360q0 -143 45 -240t136.5 -146.5t230.5 -49.5q155 0 287.5 63t216.5 208t84 377h124v-552h-60q-66 -132 -173.5 -225t-249.5 -142t-309 -49zM1712 0v400h-24v1664h368v-2064h-344zM1320 2452l364 640h432
l-480 -640h-316zM572 2452l364 640h432l-480 -640h-316z" />
    <glyph glyph-name="Uogonek" unicode="&#x172;" horiz-adv-x="2880" 
d="M1796 -816q-180 0 -289.5 35.5t-160 110t-50.5 194.5q0 75 32.5 151.5t123 168.5t252.5 196l60 -64q-49 -10 -101 -16t-105.5 -9t-109.5 -3q-362 0 -610 116t-373 329.5t-125 506.5v1948h372v-1968q0 -196 79.5 -334.5t242 -212t406.5 -73.5t406.5 73.5t242 212
t79.5 334.5v1968h372v-1948q0 -175 -43 -320.5t-126.5 -260t-206.5 -199.5q-232 -160 -344 -249.5t-150 -143t-38 -107.5q0 -48 20 -78t63 -44t113 -14h94.5h105.5v-300h-116h-116z" />
    <glyph glyph-name="uogonek" unicode="&#x173;" horiz-adv-x="2376" 
d="M1020 -52q-216 0 -373.5 80.5t-242 234t-84.5 369.5v1432h368v-1360q0 -143 45 -240t136.5 -146.5t230.5 -49.5q155 0 287.5 63t216.5 208t84 377h124v-552h-60q-66 -132 -173.5 -225t-249.5 -142t-309 -49zM1784 -816q-173 0 -279 37.5t-153.5 109.5t-47.5 181
q0 95 41.5 181t144 181.5t282.5 209.5v-84h-60v400h-24v1664h368v-2064q-171 -90 -261.5 -158.5t-122.5 -121t-32 -108.5q0 -45 18.5 -73t59 -41.5t106.5 -13.5h106h106v-300h-126h-126z" />
    <glyph glyph-name="Wcircumflex" unicode="&#x174;" horiz-adv-x="4020" 
d="M924 0l-804 2848h392l472 -1768q42 -180 85.5 -372t78.5 -360h-28q45 183 93 376t91 356l480 1768h452l484 -1768q43 -181 85.5 -366t82.5 -366h-32q34 156 83 356t93 376l488 1768h380l-804 -2848h-440l-500 1828q-51 209 -106.5 432.5t-109.5 435.5l116 16
q-50 -221 -105.5 -464.5t-98.5 -419.5l-488 -1828h-440zM1340 3148l472 620h432l472 -620h-408l-280 388l-280 -388h-408z" />
    <glyph glyph-name="wcircumflex" unicode="&#x175;" horiz-adv-x="3288" 
d="M736 0l-636 2064h392l336 -1192q39 -139 76.5 -280t67.5 -264h-32q41 164 75 288t77 256l368 1192h384l368 -1192q43 -162 76 -291.5t60 -252.5l-24 -12q27 121 62.5 259t77.5 297l344 1192h380l-652 -2064h-404l-356 1232q-43 146 -90 322t-106 410h132
q-46 -188 -96 -375t-100 -357l-376 -1232h-404zM964 2452l476 640h424l476 -640h-408l-280 408l-280 -408h-408z" />
    <glyph glyph-name="Ycircumflex" unicode="&#x176;" horiz-adv-x="2736" 
d="M1200 0v1340l96 -316l-1212 1824h452l568 -920q89 -144 180 -292.5t180 -295.5h-144q81 144 173.5 301t170.5 283l564 924h424l-1172 -1824l92 316v-1340h-372zM680 3148l472 620h432l472 -620h-408l-280 388l-280 -388h-408z" />
    <glyph glyph-name="ycircumflex" unicode="&#x177;" horiz-adv-x="2156" 
d="M300 -508h96h96q96 0 156 24t103 82.5t85 169.5l144 380l44 -352l-924 2268h400l464 -1236q51 -136 103.5 -300t84.5 -284h-104q31 115 83.5 278.5t104.5 305.5l440 1236h380l-960 -2468q-62 -158 -137.5 -247t-178 -127t-252.5 -38h-114h-114v308zM392 2452l476 640h424
l476 -640h-408l-280 408l-280 -408h-408z" />
    <glyph glyph-name="Ydieresis" unicode="&#x178;" horiz-adv-x="2736" 
d="M1200 0v1340l96 -316l-1212 1824h452l568 -920q89 -144 180 -292.5t180 -295.5h-144q81 144 173.5 301t170.5 283l564 924h424l-1172 -1824l92 316v-1340h-372zM1612 3148v396h368v-396h-368zM756 3148v396h368v-396h-368z" />
    <glyph glyph-name="Zacute" unicode="&#x179;" horiz-adv-x="2706" 
d="M238 0v360l1292 1644q93 117 190.5 236t197.5 239q55 65 110 129.5t110 127.5l40 -200q-133 -6 -279.5 -9.5t-288.5 -6t-284 -4.5h-976v332h2056v-296l-1332 -1708q-85 -105 -172 -210t-175 -210l-92 -110t-93 -110l-36 108q127 6 267.5 9.5t276.5 6t272 4.5h1144v-332
h-2228zM1102 3148l352 620h504l-532 -620h-324z" />
    <glyph glyph-name="zacute" unicode="&#x17a;" horiz-adv-x="2124" 
d="M200 0v260l1028 1264q46 56 92.5 111t93.5 108q38 44 76.5 87t77.5 86l12 -128q-106 -6 -224 -9.5t-232 -6t-228 -4.5h-644v296h1604v-264l-1072 -1320q-74 -90 -153.5 -180.5t-158.5 -175.5l-20 152q107 6 228 9.5t239 6t235 4.5h3.5h2.5h764v-296h-1724zM876 2452
l352 640h504l-532 -640h-324z" />
    <glyph glyph-name="Zdotaccent" unicode="&#x17b;" horiz-adv-x="2706" 
d="M238 0v360l1292 1644q93 117 190.5 236t197.5 239q55 65 110 129.5t110 127.5l40 -200q-133 -6 -279.5 -9.5t-288.5 -6t-284 -4.5h-976v332h2056v-296l-1332 -1708q-85 -105 -172 -210t-175 -210l-92 -110t-93 -110l-36 108q127 6 267.5 9.5t276.5 6t272 4.5h1144v-332
h-2228zM1174 3148v396h368v-396h-368z" />
    <glyph glyph-name="zdotaccent" unicode="&#x17c;" horiz-adv-x="2124" 
d="M200 0v260l1028 1264q46 56 92.5 111t93.5 108q38 44 76.5 87t77.5 86l12 -128q-106 -6 -224 -9.5t-232 -6t-228 -4.5h-644v296h1604v-264l-1072 -1320q-74 -90 -153.5 -180.5t-158.5 -175.5l-20 152q107 6 228 9.5t239 6t235 4.5h3.5h2.5h764v-296h-1724zM880 2452v396
h368v-396h-368z" />
    <glyph glyph-name="Zcaron" unicode="&#x17d;" horiz-adv-x="2706" 
d="M238 0v360l1292 1644q93 117 190.5 236t197.5 239q55 65 110 129.5t110 127.5l40 -200q-133 -6 -279.5 -9.5t-288.5 -6t-284 -4.5h-976v332h2056v-296l-1332 -1708q-85 -105 -172 -210t-175 -210l-92 -110t-93 -110l-36 108q127 6 267.5 9.5t276.5 6t272 4.5h1144v-332
h-2228zM1142 3148l-472 620h408l280 -392l280 392h408l-472 -620h-432z" />
    <glyph glyph-name="zcaron" unicode="&#x17e;" horiz-adv-x="2124" 
d="M200 0v260l1028 1264q46 56 92.5 111t93.5 108q38 44 76.5 87t77.5 86l12 -128q-106 -6 -224 -9.5t-232 -6t-228 -4.5h-644v296h1604v-264l-1072 -1320q-74 -90 -153.5 -180.5t-158.5 -175.5l-20 152q107 6 228 9.5t239 6t235 4.5h3.5h2.5h764v-296h-1724zM848 2452
l-472 640h408l280 -408l280 408h408l-472 -640h-432z" />
    <glyph glyph-name="Schwa" unicode="&#x18f;" horiz-adv-x="3208" 
d="M1596 -72q-416 0 -719.5 190.5t-462 513t-158.5 708.5q0 32 0.5 69t3.5 91h2488v-324h-2328l220 124q0 -294 109.5 -529t327 -371t527.5 -136q308 0 525.5 138t330 394.5t112.5 607.5q0 374 -123.5 635.5t-350 395t-534.5 133.5q-195 0 -351.5 -55t-269 -160t-180.5 -257
h-395q87 256 258.5 436.5t411.5 274t530 93.5q407 0 721 -179t488.5 -514t174.5 -787q0 -440 -166 -778.5t-473 -526t-717 -187.5z" />
    <glyph glyph-name="florin" unicode="&#x192;" horiz-adv-x="2312" 
d="M260 -296h85h87q98 0 158 27.5t96 90t58 174.5l452 2292q36 182 105 303.5t200 189t343 67.5h135h133l-60 -300h-94.5h-97.5q-96 0 -156 -27.5t-97 -91.5t-59 -177l-444 -2288q-38 -195 -116.5 -318t-210.5 -182.5t-329 -59.5h-124h-124zM600 1396l52 284l608 -20l616 20
l-56 -284l-616 20z" />
    <glyph glyph-name="uni01F4" unicode="&#x1f4;" horiz-adv-x="3228" 
d="M1604 -64q-390 0 -696 181t-479 519.5t-173 795.5q0 438 163.5 770t473.5 515t735 183q322 0 579.5 -107t420 -307.5t208.5 -473.5l-360 -24q-41 197 -158.5 327t-289 191.5t-380.5 61.5q-322 0 -549.5 -139.5t-345 -397.5t-117.5 -611q0 -346 113 -606t333 -403
t530 -143q278 0 472.5 116.5t302 335.5t129.5 528h232v-152q-38 -330 -168 -590t-373.5 -415t-602.5 -155zM2592 0l-72 444v756h-864v324h1232v-1524h-296zM1372 3148l352 620h504l-532 -620h-324z" />
    <glyph glyph-name="uni01F5" unicode="&#x1f5;" horiz-adv-x="2484" 
d="M1144 -864q-259 0 -446 64.5t-298 202t-134 353.5h358q27 -120 95.5 -192t178 -104t266.5 -32q243 0 384 71.5t200.5 208.5t59.5 348v372h40v1056h-28v580h344v-1972q0 -332 -123 -545t-349.5 -312t-547.5 -99zM1140 -44q-286 0 -499 142t-327 394t-114 572
q0 308 118.5 545t330 368t483.5 131q203 0 369.5 -71.5t273.5 -200.5t137 -296v-1044q-38 -151 -147 -274t-271.5 -194.5t-353.5 -71.5zM1176 272q184 0 329.5 95.5t228 273.5t82.5 415q0 238 -81 403.5t-223.5 249t-327.5 83.5q-190 0 -328.5 -84t-213 -247.5t-74.5 -396.5
q0 -239 73 -418t210 -276.5t325 -97.5zM1009 2452l352 640h504l-532 -640h-324z" />
    <glyph glyph-name="Aringacute" unicode="&#x1fa;" horiz-adv-x="2864" 
d="M1203 3440l329 580h504l-493 -575zM120 0l1104 2848h420l1100 -2848h-412l-684 1904q-50 139 -93 265t-82.5 248t-80.5 255h84q-36 -124 -75.5 -244.5t-87 -253.5t-97.5 -270l-700 -1904h-396zM652 836l120 324h1344l112 -324h-1576zM1436 2624q-144 0 -258 64.5
t-178 179t-64 256.5q0 141 64 255t178 179.5t258 65.5t258 -65.5t178 -179.5t64 -255q0 -142 -64 -256.5t-178 -179t-258 -64.5zM1436 2848q78 0 138.5 34t95 96.5t34.5 145.5t-34.5 145.5t-95 96.5t-138.5 34t-138.5 -34t-95 -96.5t-34.5 -145.5t34.5 -145.5t95 -96.5
t138.5 -34z" />
    <glyph glyph-name="aringacute" unicode="&#x1fb;" horiz-adv-x="2280" 
d="M924 3196l352 640h504l-532 -640h-324zM2004 0q-120 0 -200 40.5t-120 121t-40 198.5l-56 32v740v116v248q0 109 -49.5 179.5t-152 105.5t-262.5 35q-152 0 -250 -35t-151.5 -115.5t-66.5 -217.5h-364q17 226 119.5 375.5t288 223t452.5 73.5q259 0 439 -71.5
t274.5 -218.5t94.5 -370v-1008q0 -69 17 -107.5t55.5 -55.5t107.5 -17h30h30v-272h-98h-98zM900 -52q-210 0 -366 71t-241 206.5t-85 322.5q0 174 73.5 307t230 219.5t400.5 117.5l528 68q51 7 83.5 25.5t48.5 50.5t16 80l148 -212q0 -58 -15 -98t-47 -63t-82 -31l-620 -92
q-141 -21 -229.5 -69.5t-129.5 -120t-41 -166.5q0 -104 48.5 -179t138 -114t209.5 -39q163 0 306 68t228.5 181t85.5 243h116v-304q-49 -131 -161 -238.5t-277 -170.5t-366 -63zM1152 2412q-142 0 -256 64.5t-179 178t-65 253.5q0 144 65 259t179 180t256 65t256 -65
t179 -180t65 -259q0 -140 -65 -253.5t-179 -178t-256 -64.5zM1152 2636q78 0 139 33t95 95t34 144q0 86 -34 149.5t-95 97t-139 33.5t-139 -33.5t-95 -97t-34 -149.5q0 -82 34 -144t95 -95t139 -33z" />
    <glyph glyph-name="AEacute" unicode="&#x1fc;" horiz-adv-x="4412" 
d="M120 0l1540 2848h2456v-324h-1644v-2200h1680v-324h-2052v2524h-272l-1320 -2524h-388zM716 752l168 304h1340v-304h-1508zM2248 1304v324h1740v-324h-1740zM2152 3148l352 620h504l-532 -620h-324z" />
    <glyph glyph-name="aeacute" unicode="&#x1fd;" horiz-adv-x="3676" 
d="M2540 -48q-301 0 -512.5 137.5t-319.5 383t-108 567.5q0 320 106 561.5t315.5 376t510.5 134.5q289 0 501.5 -124t327.5 -356.5t115 -551.5v-68v-68h-1612v264h1428l-152 -176q0 250 -71 425t-206 265t-327 90q-181 0 -318 -80t-213.5 -239t-76.5 -389v-124
q0 -240 76 -403t216 -244t332 -81q149 0 261 48t188 139t122 224l335 -39q-62 -212 -192 -363t-315 -230t-411 -79zM944 -52q-220 0 -386.5 76t-258 214t-91.5 318q0 174 73 304.5t229.5 215.5t401.5 116l528 68q48 6 80 24.5t48 51t16 80.5l148 -212q0 -58 -15 -98.5
t-46 -63.5t-79 -30l-620 -92q-143 -21 -232 -66.5t-130.5 -114.5t-41.5 -163q0 -104 51 -181t143 -118t214 -41q164 0 303.5 71t222 199.5t82.5 293.5v304v104v236q0 109 -47.5 191.5t-153.5 129.5t-275 47q-138 0 -233 -34t-151.5 -112.5t-70.5 -209.5h-361
q19 220 124.5 366t287.5 218t432 72q270 0 440.5 -81t251 -231.5t84.5 -367.5v-808h-56q-69 -226 -199.5 -377t-311 -225t-401.5 -74zM1652 2452l352 640h504l-532 -640h-324z" />
    <glyph glyph-name="Oslashacute" unicode="&#x1fe;" horiz-adv-x="3204" 
d="M372 -188l-212 188l2672 3020l212 -188zM1600 -68q-393 0 -698.5 190.5t-475.5 530t-170 771.5q0 428 170 763.5t475.5 524t698.5 188.5q395 0 701.5 -188.5t476.5 -524t170 -763.5q0 -435 -170 -774.5t-476.5 -528.5t-701.5 -189zM1604 256q285 0 503.5 142.5
t339.5 406.5t121 619q0 346 -122.5 607.5t-341.5 403t-500 141.5q-283 0 -502.5 -141.5t-342.5 -403t-123 -607.5q0 -350 123 -615t342.5 -409t502.5 -144zM1352 3148l352 620h504l-532 -620h-324z" />
    <glyph glyph-name="oslashacute" unicode="&#x1ff;" horiz-adv-x="2388" 
d="M1192 -52q-294 0 -519.5 137.5t-349 385.5t-123.5 569q0 318 128 562.5t354 379t510 134.5q289 0 515 -132.5t353.5 -377t127.5 -566.5q0 -323 -126.5 -571t-353 -384.5t-516.5 -136.5zM1192 252q208 0 359 99.5t230 277.5t79 411q0 231 -81 405.5t-232.5 270.5
t-354.5 96q-201 0 -351.5 -96.5t-231.5 -271.5t-81 -404q0 -239 80 -417t230 -274.5t354 -96.5zM372 -112l-200 156l1844 2132l200 -156zM1020 2452l352 640h504l-532 -640h-324z" />
    <glyph glyph-name="Scommaaccent" unicode="&#x218;" horiz-adv-x="2671" 
d="M1367 -60q-357 0 -608.5 108.5t-391.5 326.5t-163 545h356q20 -234 119.5 -384t274.5 -221t425 -71q240 0 403 62.5t244 179t81 278.5q0 136 -59 231.5t-191 162.5t-354 114l-400 84q-249 52 -424.5 140t-275.5 235.5t-100 364.5q0 242 117.5 424t345 283t549.5 101
q314 0 545 -99.5t363.5 -291.5t154.5 -465h-355q-16 179 -104 302t-243.5 186.5t-372.5 63.5q-203 0 -348.5 -55.5t-222.5 -161.5t-77 -255q0 -117 52 -198.5t177 -142t347 -107.5l420 -88q268 -56 449 -161.5t274 -266t93 -380.5q0 -237 -114.5 -427.5t-361 -303.5
t-624.5 -113zM1143 -1072v156h140q50 0 84 16t51 48t17 80v192l80 -80h-372v308h448v-388q0 -110 -34 -184t-102 -111t-172 -37h-140z" />
    <glyph glyph-name="scommaaccent" unicode="&#x219;" horiz-adv-x="2020" 
d="M1016 -52q-259 0 -441 76t-286.5 229t-128.5 383l348 16q18 -143 81.5 -233t173 -132.5t269.5 -42.5q165 0 276 39.5t165.5 112t54.5 172.5q0 93 -45.5 153.5t-147 102.5t-279.5 76l-208 40q-210 40 -350 112t-213 186.5t-73 277.5q0 182 87 316t259.5 207t421.5 73
q234 0 411.5 -69t287.5 -210t139 -353l-361 -17q-21 120 -80.5 199t-161 118.5t-247.5 39.5q-131 0 -224 -30t-142.5 -90.5t-49.5 -151.5t48 -147.5t136 -90t232 -62.5l200 -40q224 -45 378 -113.5t244 -189t90 -305.5q0 -201 -102.5 -348t-297 -225.5t-464.5 -78.5z
M796 -1072v156h140q50 0 84 16t51 48t17 80v192l80 -80h-372v308h448v-388q0 -110 -34 -184t-102 -111t-172 -37h-140z" />
    <glyph glyph-name="uni021A" unicode="&#x21a;" horiz-adv-x="2556" 
d="M1092 0v2688h372v-2688h-372zM140 2524v324h2276v-324h-2276zM1056 -1072v156h140q50 0 84 16t51 48t17 80v192l80 -80h-372v308h448v-388q0 -110 -34 -184t-102 -111t-172 -37h-140z" />
    <glyph glyph-name="uni021B" unicode="&#x21b;" horiz-adv-x="1368" 
d="M876 0q-161 0 -262 48.5t-149.5 149.5t-48.5 262v1160v312v288v476h368v-476v-288v-312v-1112q0 -77 18.5 -120t61.5 -61.5t120 -18.5h112.5h113.5h42v-308h-19h-19h-169h-169zM80 1780v284l520 -20l656 20v-284l-656 20zM528 -1072v156h140q50 0 84 16t51 48t17 80v192
l80 -80h-372v308h448v-388q0 -110 -34 -184t-102 -111t-172 -37h-140z" />
    <glyph glyph-name="dotlessj" unicode="&#x237;" horiz-adv-x="1008" 
d="M-32 -508h46h46q100 0 155.5 24.5t80 80t24.5 155.5v2312h368v-2260q0 -217 -65 -353.5t-201.5 -201.5t-353.5 -65h-50h-50v308z" />
    <glyph glyph-name="schwa" unicode="&#x259;" horiz-adv-x="2316" 
d="M1144 -48q-289 0 -501.5 124t-327.5 356.5t-115 551.5v68v68h1612v-264h-1428l152 176q0 -250 71 -425t206 -265t327 -90q181 0 318 80t213.5 239t76.5 389v124q0 240 -76 403t-216 244t-332 81q-149 0 -261 -48t-188 -139t-122 -224l-335 39q62 212 192 363t315 230
t411 79q302 0 523.5 -138t339 -384.5t117.5 -565.5q0 -317 -115.5 -559.5t-335 -377.5t-521.5 -135z" />
    <glyph glyph-name="h.sups" unicode="&#x2b0;" horiz-adv-x="1952" 
d="M1328 2792q0 102 -36.5 172.5t-107 107t-172.5 36.5q-118 0 -207 -49.5t-137 -139.5t-48 -207l-104 -68v368h56q44 121 119 203.5t180.5 125.5t240.5 43q164 0 280.5 -61t178 -179.5t61.5 -287.5v-864h-304v800zM320 1992v1880h300v-1880h-300z" />
    <glyph glyph-name="r.sups" unicode="&#x2b3;" horiz-adv-x="1232" 
d="M560 2812q0 175 60 301t173.5 192.5t270.5 66.5h54h54v-284h-108q-140 0 -239 -49t-152 -150.5t-53 -256.5h-60v180zM320 1992v1360h280l20 -412v-20v-928h-300z" />
    <glyph glyph-name="circumflex" unicode="&#x2c6;" horiz-adv-x="2000" 
d="M312 2452l476 640h424l476 -640h-408l-280 408l-280 -408h-408z" />
    <glyph glyph-name="caron" unicode="&#x2c7;" horiz-adv-x="2000" 
d="M784 2452l-472 640h408l280 -408l280 408h408l-472 -640h-432z" />
    <glyph glyph-name="uni02C9" unicode="&#x2c9;" horiz-adv-x="2000" 
d="M360 2452v284h1280v-284h-1280z" />
    <glyph glyph-name="breve" unicode="&#x2d8;" horiz-adv-x="2000" 
d="M996 2436q-217 0 -356 72t-205.5 202.5t-74.5 313.5h280q4 -107 47.5 -178t122.5 -106.5t190 -35.5t190 35.5t122.5 106.5t47.5 178h280q-8 -182 -76.5 -313t-209 -203t-358.5 -72z" />
    <glyph glyph-name="dotaccent" unicode="&#x2d9;" horiz-adv-x="2000" 
d="M816 2452v396h368v-396h-368z" />
    <glyph glyph-name="ring" unicode="&#x2da;" horiz-adv-x="2000" 
d="M1000 2412q-142 0 -256 64.5t-179 178t-65 253.5q0 144 65 259t179 180t256 65t256 -65t179 -180t65 -259q0 -140 -65 -253.5t-179 -178t-256 -64.5zM1000 2636q78 0 139 33t95 95t34 144q0 86 -34 149.5t-95 97t-139 33.5t-139 -33.5t-95 -97t-34 -149.5q0 -82 34 -144
t95 -95t139 -33z" />
    <glyph glyph-name="ogonek" unicode="&#x2db;" horiz-adv-x="2000" 
d="M1104 -816q-173 0 -279 37.5t-153.5 109.5t-47.5 181q0 95 41.5 181t144 181.5t282.5 209.5l284 -84q-171 -90 -261.5 -158.5t-122.5 -121t-32 -108.5q0 -45 18.5 -73t59 -41.5t106.5 -13.5h106h106v-300h-126h-126z" />
    <glyph glyph-name="tilde" unicode="&#x2dc;" horiz-adv-x="2000" 
d="M256 2452q0 203 57 336.5t157 196.5t230 63q94 0 163.5 -27.5t115.5 -66t105 -100.5q43 -45 71 -70.5t63.5 -42.5t77.5 -17q60 0 97 33.5t56 104t23 186.5h272q0 -203 -56.5 -336.5t-156 -196.5t-231.5 -63q-92 0 -160.5 27t-113.5 65t-102 99q-43 46 -71.5 72t-66 43.5
t-82.5 17.5q-60 0 -97 -34t-56 -105t-23 -185h-272z" />
    <glyph glyph-name="hungarumlaut" unicode="&#x2dd;" horiz-adv-x="2000" 
d="M976 2452l364 640h432l-480 -640h-316zM228 2452l364 640h432l-480 -640h-316z" />
    <glyph glyph-name="s.sups" unicode="&#x2e2;" horiz-adv-x="1729" 
d="M877 1952q-199 0 -341 51t-225.5 146t-110.5 228l282 28q14 -73 60 -121.5t132 -74t219 -25.5q118 0 198 21t121 62t41 101q0 46 -23.5 77t-78.5 51.5t-150 31.5l-284 32q-160 18 -265 70.5t-156 136.5t-51 197q0 135 75 230.5t211.5 144.5t317.5 49q176 0 308.5 -47
t214.5 -136t108 -215l-270 -28q-16 62 -61 105t-122.5 66t-189.5 23q-104 0 -175 -21.5t-106 -60.5t-35 -94q0 -44 23 -75t71 -51t122 -30l360 -48q143 -19 238.5 -64t144.5 -122t49 -190q0 -144 -79 -244.5t-225.5 -152t-347.5 -51.5z" />
    <glyph glyph-name="gravecomb" unicode="&#x300;" 
d="M-896 2452l-532 640h504l352 -640h-324z" />
    <glyph glyph-name="acutecomb" unicode="&#x301;" 
d="M-1428 2452l352 640h504l-532 -640h-324z" />
    <glyph glyph-name="circumflexcomb" unicode="&#x302;" 
d="M-1688 2452l476 640h424l476 -640h-408l-280 408l-280 -408h-408z" />
    <glyph glyph-name="tildecomb" unicode="&#x303;" 
d="M-1744 2452q0 203 57 336.5t157 196.5t230 63q94 0 163.5 -27.5t115.5 -66t105 -100.5q43 -45 71 -70.5t63.5 -42.5t77.5 -17q60 0 97 33.5t56 104t23 186.5h272q0 -203 -56.5 -336.5t-156 -196.5t-231.5 -63q-92 0 -160.5 27t-113.5 65t-102 99q-43 46 -71.5 72
t-66 43.5t-82.5 17.5q-60 0 -97 -34t-56 -105t-23 -185h-272z" />
    <glyph glyph-name="macroncomb" unicode="&#x304;" 
d="M-1640 2452v284h1280v-284h-1280z" />
    <glyph glyph-name="brevecomb" unicode="&#x306;" 
d="M-1004 2436q-217 0 -356 72t-205.5 202.5t-74.5 313.5h280q4 -107 47.5 -178t122.5 -106.5t190 -35.5t190 35.5t122.5 106.5t47.5 178h280q-8 -182 -76.5 -313t-209 -203t-358.5 -72z" />
    <glyph glyph-name="dotaccentcomb" unicode="&#x307;" 
d="M-1184 2452v396h368v-396h-368z" />
    <glyph glyph-name="dieresiscomb" unicode="&#x308;" 
d="M-756 2452v396h368v-396h-368zM-1612 2452v396h368v-396h-368z" />
    <glyph glyph-name="ringcomb" unicode="&#x30a;" 
d="M-1000 2412q-142 0 -256 64.5t-179 178t-65 253.5q0 144 65 259t179 180t256 65t256 -65t179 -180t65 -259q0 -140 -65 -253.5t-179 -178t-256 -64.5zM-1000 2636q78 0 139 33t95 95t34 144q0 86 -34 149.5t-95 97t-139 33.5t-139 -33.5t-95 -97t-34 -149.5
q0 -82 34 -144t95 -95t139 -33z" />
    <glyph glyph-name="hungarumlautcomb" unicode="&#x30b;" 
d="M-1024 2452l364 640h432l-480 -640h-316zM-1772 2452l364 640h432l-480 -640h-316z" />
    <glyph glyph-name="caroncomb" unicode="&#x30c;" 
d="M-1216 2452l-472 640h408l280 -408l280 408h408l-472 -640h-432z" />
    <glyph glyph-name="commaturnedabovecomb" unicode="&#x312;" 
d="M-776 3172v-156h-140q-50 0 -84 -16t-51 -48t-17 -80v-192l-80 80h372v-308h-448v388q0 110 34 184t102 111t172 37h140z" />
    <glyph glyph-name="uni0313" unicode="&#x313;" 
d="M-1224 2452v156h140q50 0 84 16t51 48t17 80v192l80 -80h-372v308h448v-388q0 -110 -34 -184t-102 -111t-172 -37h-140z" />
    <glyph glyph-name="dotbelowcomb" unicode="&#x323;" 
d="M-1184 -748v396h368v-396h-368z" />
    <glyph glyph-name="uni0324" unicode="&#x324;" 
d="M-756 -748v396h368v-396h-368zM-1612 -748v396h368v-396h-368z" />
    <glyph glyph-name="uni0325" unicode="&#x325;" 
d="M-1000 -312q142 0 256 -64.5t179 -178t65 -253.5q0 -144 -65 -259t-179 -180t-256 -65t-256 65t-179 180t-65 259q0 140 65 253.5t179 178t256 64.5zM-1000 -536q-78 0 -139 -33t-95 -95t-34 -144q0 -86 34 -149.5t95 -97t139 -33.5t139 33.5t95 97t34 149.5
q0 82 -34 144t-95 95t-139 33z" />
    <glyph glyph-name="commaaccent" unicode="&#x326;" 
d="M-1224 -1072v156h140q50 0 84 16t51 48t17 80v192l80 -80h-372v308h448v-388q0 -110 -34 -184t-102 -111t-172 -37h-140z" />
    <glyph glyph-name="cedillacomb" unicode="&#x327;" 
d="M-1348 -756h69h71q108 0 171.5 20t90 55.5t26.5 84.5q0 43 -17 70t-54 40.5t-97 13.5h-131h-129v176l196 336l196 -40l-144 -248h68q126 0 214.5 -39t135 -114.5t46.5 -182.5q0 -114 -64.5 -199t-187 -131t-292.5 -46h-85.5h-82.5v204z" />
    <glyph glyph-name="ogonekcomb" unicode="&#x328;" 
d="M-892 -816q-173 0 -279 37.5t-153.5 109.5t-47.5 181q0 95 41.5 181t144 181.5t282.5 209.5l284 -84q-171 -90 -261.5 -158.5t-122.5 -121t-32 -108.5q0 -45 18.5 -73t59 -41.5t106.5 -13.5h106h106v-300h-126h-126z" />
    <glyph glyph-name="uni032E" unicode="&#x32e;" 
d="M-1004 -940q-217 0 -356 72t-205.5 202.5t-74.5 313.5h280q4 -107 47.5 -178t122.5 -106.5t190 -35.5t190 35.5t122.5 106.5t47.5 178h280q-8 -182 -76.5 -313t-209 -203t-358.5 -72z" />
    <glyph glyph-name="uni0331" unicode="&#x331;" 
d="M-1640 -636v284h1280v-284h-1280z" />
    <glyph glyph-name="uni0335" unicode="&#x335;" 
d="M-1572 1348v284l576 -20l572 20v-284l-572 24z" />
    <glyph glyph-name="uni0394" unicode="&#x394;" horiz-adv-x="2864" 
d="M120 0l1104 2848h420l1100 -2848h-2624zM584 184l-152 140h1980l-144 -140l-617 1720q-50 139 -93 265t-82.5 248t-80.5 255h87q-37 -125 -76.5 -246.5t-83 -244t-100.5 -277.5z" />
    <glyph glyph-name="uni03A9" unicode="&#x3a9;" horiz-adv-x="3280" 
d="M256 0v320h680v8q-209 136 -354.5 325t-219.5 413.5t-74 469.5q0 422 171.5 730t478.5 471t706 163q402 0 707 -162.5t473 -470.5t168 -731q0 -246 -72.5 -470.5t-217.5 -413t-358 -324.5v-8h680v-320h-1172v288q259 139 428.5 331t250.5 423t81 494q0 344 -120 577
t-337.5 348t-510.5 115q-290 0 -509.5 -115.5t-343 -348.5t-123.5 -576q0 -263 81 -494t250.5 -423t428.5 -331v-288h-1172z" />
    <glyph glyph-name="uni03BC" unicode="&#x3bc;" horiz-adv-x="2376" 
d="M320 -816v2880h368v-1360q0 -141 45 -238t136.5 -147.5t230.5 -50.5q155 0 287.5 63t216.5 208t84 377h124v-552h-60q-63 -128 -171.5 -222t-245.5 -144t-283 -50q-95 0 -179 19t-160.5 63.5t-140.5 117.5l20 16l96 -604v-376h-368zM1712 0v400h-24v1664h368v-2064h-344z
" />
    <glyph glyph-name="pi" unicode="&#x3c0;" horiz-adv-x="2640" 
d="M2256 0q-186 0 -305 58.5t-177 183t-58 326.5v1316h360v-1328q0 -93 22.5 -147t76 -79.5t149.5 -25.5h46h46v-304h-80h-80zM532 0v1884h360v-1884h-360zM80 1724v340h2448v-340h-2448z" />
    <glyph glyph-name="d.sups" unicode="&#x1d48;" horiz-adv-x="1972" 
d="M864 1976q-198 0 -348 85.5t-233 248t-83 386.5q0 221 85 381t236.5 243.5t346.5 83.5q153 0 274 -47t198.5 -134.5t103.5 -206.5v-672q-40 -114 -122 -196.5t-199 -127t-259 -44.5zM932 2212q137 0 235 57.5t149.5 165.5t51.5 257t-53 257t-153.5 165.5t-241.5 57.5
q-135 0 -229.5 -53.5t-144.5 -160t-50 -262.5q0 -155 50.5 -263.5t148 -164.5t237.5 -56zM1400 1992l-40 332l44 100v496l-52 100v852h300v-1880h-252z" />
    <glyph glyph-name="t.sups" unicode="&#x1d57;" horiz-adv-x="1116" 
d="M756 1992q-130 0 -214.5 34t-129 116.5t-44.5 225.5v1396h296v-1360q0 -53 16.5 -91t57.5 -59.5t110 -21.5h78h78v-240h-124h-124zM80 3092v264l436 -12l488 12v-264l-488 8z" />
    <glyph glyph-name="Wgrave" unicode="&#x1e80;" horiz-adv-x="4020" 
d="M924 0l-804 2848h392l472 -1768q42 -180 85.5 -372t78.5 -360h-28q45 183 93 376t91 356l480 1768h452l484 -1768q43 -181 85.5 -366t82.5 -366h-32q34 156 83 356t93 376l488 1768h380l-804 -2848h-440l-500 1828q-51 209 -106.5 432.5t-109.5 435.5l116 16
q-50 -221 -105.5 -464.5t-98.5 -419.5l-488 -1828h-440zM1960 3148l-532 620h504l352 -620h-324z" />
    <glyph glyph-name="wgrave" unicode="&#x1e81;" horiz-adv-x="3288" 
d="M736 0l-636 2064h392l336 -1192q39 -139 76.5 -280t67.5 -264h-32q41 164 75 288t77 256l368 1192h384l368 -1192q43 -162 76 -291.5t60 -252.5l-24 -12q27 121 62.5 259t77.5 297l344 1192h380l-652 -2064h-404l-356 1232q-43 146 -90 322t-106 410h132
q-46 -188 -96 -375t-100 -357l-376 -1232h-404zM1516 2452l-532 640h504l352 -640h-324z" />
    <glyph glyph-name="Wacute" unicode="&#x1e82;" horiz-adv-x="4020" 
d="M924 0l-804 2848h392l472 -1768q42 -180 85.5 -372t78.5 -360h-28q45 183 93 376t91 356l480 1768h452l484 -1768q43 -181 85.5 -366t82.5 -366h-32q34 156 83 356t93 376l488 1768h380l-804 -2848h-440l-500 1828q-51 209 -106.5 432.5t-109.5 435.5l116 16
q-50 -221 -105.5 -464.5t-98.5 -419.5l-488 -1828h-440zM1772 3148l352 620h504l-532 -620h-324z" />
    <glyph glyph-name="wacute" unicode="&#x1e83;" horiz-adv-x="3288" 
d="M736 0l-636 2064h392l336 -1192q39 -139 76.5 -280t67.5 -264h-32q41 164 75 288t77 256l368 1192h384l368 -1192q43 -162 76 -291.5t60 -252.5l-24 -12q27 121 62.5 259t77.5 297l344 1192h380l-652 -2064h-404l-356 1232q-43 146 -90 322t-106 410h132
q-46 -188 -96 -375t-100 -357l-376 -1232h-404zM1464 2452l352 640h504l-532 -640h-324z" />
    <glyph glyph-name="Wdieresis" unicode="&#x1e84;" horiz-adv-x="4020" 
d="M924 0l-804 2848h392l472 -1768q42 -180 85.5 -372t78.5 -360h-28q45 183 93 376t91 356l480 1768h452l484 -1768q43 -181 85.5 -366t82.5 -366h-32q34 156 83 356t93 376l488 1768h380l-804 -2848h-440l-500 1828q-51 209 -106.5 432.5t-109.5 435.5l116 16
q-50 -221 -105.5 -464.5t-98.5 -419.5l-488 -1828h-440zM2272 3148v396h368v-396h-368zM1416 3148v396h368v-396h-368z" />
    <glyph glyph-name="wdieresis" unicode="&#x1e85;" horiz-adv-x="3288" 
d="M736 0l-636 2064h392l336 -1192q39 -139 76.5 -280t67.5 -264h-32q41 164 75 288t77 256l368 1192h384l368 -1192q43 -162 76 -291.5t60 -252.5l-24 -12q27 121 62.5 259t77.5 297l344 1192h380l-652 -2064h-404l-356 1232q-43 146 -90 322t-106 410h132
q-46 -188 -96 -375t-100 -357l-376 -1232h-404zM1896 2452v396h368v-396h-368zM1040 2452v396h368v-396h-368z" />
    <glyph glyph-name="Germandbls" unicode="&#x1e9e;" horiz-adv-x="2944" 
d="M1804 0h-322.5h-329.5v332h313.5h322.5q192 0 322.5 61t196 175.5t65.5 275.5q0 162 -68 276.5t-199.5 175t-320.5 60.5h-360v308l585 852h-533q-287 0 -456.5 -94t-240.5 -266.5t-71 -423.5v-1732h-368v1732q0 359 124.5 608t377 378.5t630.5 129.5h984v-296l-688 -992
v132h44q284 0 495 -104.5t324 -295.5t113 -444q0 -254 -113 -445.5t-325 -297t-502 -105.5z" />
    <glyph glyph-name="Ygrave" unicode="&#x1ef2;" horiz-adv-x="2736" 
d="M1200 0v1340l96 -316l-1212 1824h452l568 -920q89 -144 180 -292.5t180 -295.5h-144q81 144 173.5 301t170.5 283l564 924h424l-1172 -1824l92 316v-1340h-372zM1300 3148l-532 620h504l352 -620h-324z" />
    <glyph glyph-name="ygrave" unicode="&#x1ef3;" horiz-adv-x="2156" 
d="M300 -508h96h96q96 0 156 24t103 82.5t85 169.5l144 380l44 -352l-924 2268h400l464 -1236q51 -136 103.5 -300t84.5 -284h-104q31 115 83.5 278.5t104.5 305.5l440 1236h380l-960 -2468q-62 -158 -137.5 -247t-178 -127t-252.5 -38h-114h-114v308zM944 2452l-532 640
h504l352 -640h-324z" />
    <glyph glyph-name="space.frac" unicode="&#x2009;" horiz-adv-x="648" 
 />
    <glyph glyph-name="uni2011" unicode="&#x2011;" horiz-adv-x="1520" 
d="M200 944v332h1120v-332h-1120z" />
    <glyph glyph-name="endash" unicode="&#x2013;" horiz-adv-x="2140" 
d="M200 944v332h1740v-332h-1740z" />
    <glyph glyph-name="emdash" unicode="&#x2014;" horiz-adv-x="3316" 
d="M200 944v332h2916v-332h-2916z" />
    <glyph glyph-name="quoteleft" unicode="&#x2018;" horiz-adv-x="1132" 
d="M788 2848v-200h-40q-62 0 -104 -21t-63 -63t-21 -104v-328l-52 52h284v-404h-440v636q0 144 44 240t132 144t220 48h40z" />
    <glyph glyph-name="quoteright" unicode="&#x2019;" horiz-adv-x="1132" 
d="M344 1784v200h40q62 0 104 21t63 63t21 104v328l52 -52h-284v404h440v-636q0 -144 -44 -240t-132 -144t-220 -48h-40z" />
    <glyph glyph-name="quotesinglbase" unicode="&#x201a;" horiz-adv-x="1132" 
d="M344 -664v200h40q62 0 104 21t63 63t21 104v328l52 -52h-284v404h440v-636q0 -144 -44 -240t-132 -144t-220 -48h-40z" />
    <glyph glyph-name="quotedblleft" unicode="&#x201c;" horiz-adv-x="1828" 
d="M1484 2848v-200h-40q-62 0 -104 -21t-63 -63t-21 -104v-328l-52 52h284v-404h-440v636q0 144 44 240t132 144t220 48h40zM788 2848v-200h-40q-62 0 -104 -21t-63 -63t-21 -104v-328l-52 52h284v-404h-440v636q0 144 44 240t132 144t220 48h40z" />
    <glyph glyph-name="quotedblright" unicode="&#x201d;" horiz-adv-x="1828" 
d="M344 1784v200h40q62 0 104 21t63 63t21 104v328l52 -52h-284v404h440v-636q0 -144 -44 -240t-132 -144t-220 -48h-40zM1040 1784v200h40q62 0 104 21t63 63t21 104v328l52 -52h-284v404h440v-636q0 -144 -44 -240t-132 -144t-220 -48h-40z" />
    <glyph glyph-name="quotedblbase" unicode="&#x201e;" horiz-adv-x="1828" 
d="M344 -664v200h40q62 0 104 21t63 63t21 104v328l52 -52h-284v404h440v-636q0 -144 -44 -240t-132 -144t-220 -48h-40zM1040 -664v200h40q62 0 104 21t63 63t21 104v328l52 -52h-284v404h440v-636q0 -144 -44 -240t-132 -144t-220 -48h-40z" />
    <glyph glyph-name="dagger" unicode="&#x2020;" horiz-adv-x="2516" 
d="M1076 -400v3248h364v-3248h-364zM340 1756v328l924 -20l912 20v-328l-912 20z" />
    <glyph glyph-name="daggerdbl" unicode="&#x2021;" horiz-adv-x="2516" 
d="M1076 -400v3248h364v-3248h-364zM340 364v328l924 -20l912 20v-328l-912 20zM340 1756v328l924 -20l912 20v-328l-912 20z" />
    <glyph glyph-name="bullet" unicode="&#x2022;" horiz-adv-x="1464" 
d="M340 760v700h784v-700h-784z" />
    <glyph glyph-name="ellipsis" unicode="&#x2026;" horiz-adv-x="3372" 
d="M340 0v404h452v-404h-452zM2580 0v404h452v-404h-452zM1460 0v404h452v-404h-452z" />
    <glyph glyph-name="perthousand" unicode="&#x2030;" horiz-adv-x="6056" 
d="M5124 -56q-217 0 -366.5 99t-225.5 291t-76 470t75.5 471t224.5 293t368 100q221 0 371 -100t225.5 -292.5t75.5 -471.5q0 -278 -76.5 -470t-226.5 -291t-369 -99zM5124 228q119 0 196.5 58t116.5 185t39 333t-39.5 334t-117 187t-195.5 59q-120 0 -196.5 -59
t-114 -186.5t-37.5 -334.5t37.5 -333.5t114 -184.5t196.5 -58zM1080 -60l1784 2968h372l-1784 -2968h-372zM928 1180q-218 0 -367 98.5t-225 291.5t-76 474q0 276 75.5 468.5t224.5 292t368 99.5q220 0 370.5 -99.5t226 -291.5t75.5 -469q0 -282 -76.5 -474.5t-226.5 -291
t-369 -98.5zM932 1464q118 0 194.5 59t115 187t38.5 334q0 204 -38.5 331t-115 186t-194.5 59q-120 0 -197.5 -59t-116 -185.5t-38.5 -331.5q0 -207 38.5 -334.5t116 -186.5t197.5 -59zM3384 -56q-217 0 -366.5 99t-225.5 291t-76 470t75.5 471t224.5 293t368 100
q221 0 371 -100t225.5 -292.5t75.5 -471.5q0 -278 -76.5 -470t-226.5 -291t-369 -99zM3384 228q119 0 196.5 58t116.5 185t39 333t-39.5 334t-117 187t-195.5 59q-120 0 -196.5 -59t-114 -186.5t-37.5 -334.5t37.5 -333.5t114 -184.5t196.5 -58z" />
    <glyph glyph-name="guilsinglleft" unicode="&#x2039;" horiz-adv-x="1640" 
d="M1320 -40l-1000 872v392l1000 872v-408l-764 -660l764 -660v-408z" />
    <glyph glyph-name="guilsinglright" unicode="&#x203a;" horiz-adv-x="1640" 
d="M320 -40v408l764 660l-764 660v408l1000 -872v-392z" />
    <glyph glyph-name="interrobang" unicode="&#x203d;" horiz-adv-x="2436" 
d="M1076 756l-60 1092v332h372v-332l-60 -660h-100q26 93 68 165t101.5 130.5t142.5 112.5q10 7 19.5 13t18.5 13q99 72 156 153.5t79.5 164t22.5 168.5q0 173 -81.5 284t-222 161.5t-324.5 50.5q-224 0 -365.5 -73t-209.5 -211t-76 -340h-354q17 283 129.5 488.5
t331.5 318.5t544 113q291 0 509 -86.5t340.5 -264.5t122.5 -445q0 -142 -39 -273.5t-137.5 -256.5t-266.5 -229q-5 -4 -10.5 -7t-10.5 -6q-144 -84 -217.5 -159t-105.5 -167.5t-49 -249.5h-268zM980 0v404h452v-404h-452z" />
    <glyph glyph-name="fraction" unicode="&#x2044;" horiz-adv-x="1180" 
d="M-488 -60l1784 2968h372l-1784 -2968h-372z" />
    <glyph glyph-name="zero.superior" unicode="&#x2070;" horiz-adv-x="1836" 
d="M916 1936q-239 0 -403.5 103.5t-248.5 305.5t-84 495q0 292 83.5 494t247.5 306t405 104q243 0 408 -104t248.5 -306t83.5 -494q0 -294 -84 -495.5t-249.5 -305t-406.5 -103.5zM916 2220q139 0 228.5 62.5t134.5 199t45 358.5q0 220 -45 357t-135 200t-228 63t-227 -63
t-133 -199.5t-44 -357.5q0 -223 44 -359t132.5 -198.5t227.5 -62.5z" />
    <glyph glyph-name="four.superior" unicode="&#x2074;" horiz-adv-x="1840" 
d="M1028 1992v468v80v996l64 -72l-632 -856l4 16l764 -12l412 12v-248l-388 12l-1052 -12v268l792 1056h344v-1708h-308z" />
    <glyph glyph-name="five.superior" unicode="&#x2075;" horiz-adv-x="1784" 
d="M880 1932q-172 0 -309 46.5t-230.5 138.5t-136.5 225l316 67q28 -75 81 -122.5t125 -69t158 -21.5q120 0 205.5 39t130 111t44.5 170q0 99 -44 175t-129.5 118.5t-206.5 42.5q-73 0 -133 -15.5t-104.5 -43t-78.5 -65.5l-320 68l172 904h1036v-264h-816l-80 -476l-12 16
q49 38 107.5 65.5t134.5 43t170 15.5q204 0 344.5 -76t210 -204.5t69.5 -287.5q0 -167 -78.5 -303t-237.5 -216.5t-388 -80.5z" />
    <glyph glyph-name="six.superior" unicode="&#x2076;" horiz-adv-x="1792" 
d="M916 1940q-245 0 -404.5 104t-235.5 296t-76 460q0 298 82.5 510t246.5 325t403 113q152 0 275.5 -43.5t209 -123.5t127.5 -190l-303 -82q-26 51 -67.5 91t-103 64t-142.5 24q-143 0 -239 -75t-142.5 -214.5t-46.5 -334.5q0 -41 7 -82.5t21 -81.5h-84v140
q47 84 128.5 143.5t187 90t224.5 30.5q177 0 315 -67t215.5 -195t77.5 -306q0 -181 -81 -315.5t-233 -207.5t-362 -73zM924 2196q111 0 191 39.5t122.5 113t42.5 175.5q0 100 -41 174t-118.5 114t-184.5 40q-87 0 -164 -27t-141.5 -77.5t-114.5 -123.5q4 -139 53.5 -234.5
t140 -144.5t214.5 -49z" />
    <glyph glyph-name="seven.superior" unicode="&#x2077;" horiz-adv-x="1524" 
d="M384 1992q30 318 114 582.5t220 478.5t326 383h-236h-708v264h1324v-252q-217 -170 -363 -373t-233.5 -468.5t-119.5 -614.5h-324z" />
    <glyph glyph-name="eight.superior" unicode="&#x2078;" horiz-adv-x="1824" 
d="M912 1952q-221 0 -383.5 62.5t-249.5 181t-87 280.5q0 105 44.5 194t131 153t208.5 93v-12q-96 34 -162 88.5t-100 128t-34 163.5q0 139 77 240t219.5 154.5t335.5 53.5t335.5 -53.5t219.5 -154.5t77 -240q0 -89 -33.5 -162.5t-100.5 -128.5t-166 -89v12q125 -30 212 -92
t131.5 -151t44.5 -197q0 -162 -87 -280.5t-249.5 -181t-383.5 -62.5zM912 2196q128 0 216.5 33t134 99.5t45.5 163.5q0 95 -45.5 159.5t-134 96.5t-216.5 32t-216.5 -32t-134 -96.5t-45.5 -159.5q0 -97 45.5 -163.5t134 -99.5t216.5 -33zM912 3016q104 0 176.5 27t110 80.5
t37.5 132.5q0 77 -37.5 129t-109.5 77.5t-177 25.5t-177 -25.5t-109.5 -77.5t-37.5 -129q0 -79 37.5 -132.5t110 -80.5t176.5 -27z" />
    <glyph glyph-name="nine.superior" unicode="&#x2079;" horiz-adv-x="1792" 
d="M876 3748q245 0 404.5 -104t235.5 -296t76 -460q0 -298 -82.5 -510t-246.5 -325t-403 -113q-152 0 -275.5 43.5t-209 123.5t-127.5 190l303 82q26 -51 67.5 -91t103 -64t142.5 -24q143 0 239 75t142.5 214.5t46.5 334.5q0 41 -7 82.5t-21 81.5h84v-140
q-47 -84 -128.5 -143.5t-187 -90t-224.5 -30.5q-177 0 -315 67t-215.5 195t-77.5 306q0 181 81 315.5t233 207.5t362 73zM868 3492q-111 0 -191 -39.5t-122.5 -113t-42.5 -175.5q0 -100 41 -174t118.5 -114t184.5 -40q87 0 164 27t141.5 77.5t114.5 123.5
q-4 139 -53.5 234.5t-140 144.5t-214.5 49z" />
    <glyph glyph-name="plus.sups" unicode="&#x207a;" horiz-adv-x="2108" 
d="M228 2724v252h1652v-252h-1652zM916 2124v1448h276v-1448h-276z" />
    <glyph glyph-name="minus.sups" unicode="&#x207b;" horiz-adv-x="2068" 
d="M228 2720v256h1612v-256h-1612z" />
    <glyph glyph-name="equal.sups" unicode="&#x207c;" horiz-adv-x="2068" 
d="M228 3040v252h1612v-252h-1612zM228 2404v256h1612v-256h-1612z" />
    <glyph glyph-name="parenleft.sups" unicode="&#x207d;" horiz-adv-x="1220" 
d="M704 1540q-146 180 -246 380.5t-151 417.5t-51 446q0 234 51 457.5t151.5 428.5t245.5 382h292q-143 -181 -241.5 -387.5t-148.5 -428.5t-50 -452q0 -227 50 -442.5t148 -416t242 -385.5h-292z" />
    <glyph glyph-name="parenright.sups" unicode="&#x207e;" horiz-adv-x="1220" 
d="M224 1540q143 181 241 381.5t148.5 417.5t50.5 445q0 233 -50.5 456.5t-149 428.5t-240.5 383h292q145 -177 245.5 -382t151.5 -428.5t51 -457.5q0 -231 -51 -447.5t-150.5 -416t-246.5 -380.5h-292z" />
    <glyph glyph-name="n.superior" unicode="&#x207f;" horiz-adv-x="1952" 
d="M1328 2792q0 102 -36.5 172.5t-107 107t-172.5 36.5q-118 0 -207 -49.5t-137 -139.5t-48 -207l-104 -68v368h56q44 121 119 203.5t180.5 125.5t240.5 43q164 0 280.5 -61t178 -179.5t61.5 -287.5v-864h-304v800zM320 1992v1360h292l8 -292v-52v-1016h-300z" />
    <glyph glyph-name="zero.inferior" unicode="&#x2080;" horiz-adv-x="1836" 
d="M916 -904q-239 0 -403.5 103.5t-248.5 305.5t-84 495q0 292 83.5 494t247.5 306t405 104q243 0 408 -104t248.5 -306t83.5 -494q0 -294 -84 -495.5t-249.5 -305t-406.5 -103.5zM916 -620q139 0 228.5 62.5t134.5 199t45 358.5q0 220 -45 357t-135 200t-228 63t-227 -63
t-133 -199.5t-44 -357.5q0 -223 44 -359t132.5 -198.5t227.5 -62.5z" />
    <glyph glyph-name="one.inferior" unicode="&#x2081;" horiz-adv-x="1200" 
d="M572 396q-52 -35 -118 -57.5t-139.5 -32.5t-154.5 -10v272q127 0 220.5 27.5t156 90.5t87.5 166h256v-1708h-308v1252z" />
    <glyph glyph-name="two.inferior" unicode="&#x2082;" horiz-adv-x="1724" 
d="M200 -852q0 187 46.5 328t139 242.5t234.5 169.5l340 164q79 39 132.5 81t82.5 96.5t29 126.5q0 79 -36 137.5t-109.5 90.5t-182.5 32q-125 0 -195.5 -39t-99.5 -109.5t-33 -179.5h-320q4 182 76 316.5t215.5 209t356.5 74.5q191 0 337.5 -62t228.5 -182t82 -288
q0 -120 -45 -215.5t-138 -174.5t-241 -150l-208 -100q-141 -68 -212.5 -122.5t-99.5 -116.5t-28 -157l-84 80l424 20h628v-276h-1320v4z" />
    <glyph glyph-name="three.inferior" unicode="&#x2083;" horiz-adv-x="1780" 
d="M892 -904q-210 0 -365.5 65t-240.5 193t-85 310h320q4 -103 42.5 -171t120 -102.5t212.5 -34.5q120 0 201 29.5t122 89t41 149.5q0 86 -41 144t-121 87t-198 29h-156v276h156q99 0 166 27t100.5 80t33.5 129q0 81 -38.5 136.5t-113 83.5t-180.5 28q-111 0 -185.5 -29.5
t-114 -88.5t-45.5 -150h-319q0 166 80.5 285t229 181t350.5 62q203 0 351 -59.5t226.5 -168t78.5 -252.5q0 -100 -39 -183.5t-113 -137t-176 -67.5v16q115 -20 202.5 -78.5t136.5 -150t49 -207.5q0 -152 -83 -270t-239 -184t-366 -66z" />
    <glyph glyph-name="four.inferior" unicode="&#x2084;" horiz-adv-x="1840" 
d="M1028 -856v468v80v996l64 -72l-632 -856l4 16l764 -12l412 12v-248l-388 12l-1052 -12v268l792 1056h344v-1708h-308z" />
    <glyph glyph-name="five.inferior" unicode="&#x2085;" horiz-adv-x="1784" 
d="M880 -916q-172 0 -309 46.5t-230.5 138.5t-136.5 225l316 67q28 -75 81 -122.5t125 -69t158 -21.5q120 0 205.5 39t130 111t44.5 170q0 99 -44 175t-129.5 118.5t-206.5 42.5q-73 0 -133 -15.5t-104.5 -43t-78.5 -65.5l-320 68l172 904h1036v-264h-816l-80 -476l-12 16
q49 38 107.5 65.5t134.5 43t170 15.5q204 0 344.5 -76t210 -204.5t69.5 -287.5q0 -167 -78.5 -303t-237.5 -216.5t-388 -80.5z" />
    <glyph glyph-name="six.inferior" unicode="&#x2086;" horiz-adv-x="1792" 
d="M916 -904q-245 0 -404.5 104t-235.5 296t-76 460q0 298 82.5 510t246.5 325t403 113q152 0 275.5 -43.5t209 -123.5t127.5 -190l-303 -82q-26 51 -67.5 91t-103 64t-142.5 24q-143 0 -239 -75t-142.5 -214.5t-46.5 -334.5q0 -41 7 -82.5t21 -81.5h-84v140
q47 84 128.5 143.5t187 90t224.5 30.5q177 0 315 -67t215.5 -195t77.5 -306q0 -181 -81 -315.5t-233 -207.5t-362 -73zM924 -648q111 0 191 39.5t122.5 113t42.5 175.5q0 100 -41 174t-118.5 114t-184.5 40q-87 0 -164 -27t-141.5 -77.5t-114.5 -123.5q4 -139 53.5 -234.5
t140 -144.5t214.5 -49z" />
    <glyph glyph-name="seven.inferior" unicode="&#x2087;" horiz-adv-x="1524" 
d="M384 -856q30 318 114 582.5t220 478.5t326 383h-236h-708v264h1324v-252q-217 -170 -363 -373t-233.5 -468.5t-119.5 -614.5h-324z" />
    <glyph glyph-name="eight.inferior" unicode="&#x2088;" horiz-adv-x="1824" 
d="M912 -892q-221 0 -383.5 62.5t-249.5 181t-87 280.5q0 105 44.5 194t131 153t208.5 93v-12q-96 34 -162 88.5t-100 128t-34 163.5q0 139 77 240t219.5 154.5t335.5 53.5t335.5 -53.5t219.5 -154.5t77 -240q0 -89 -33.5 -162.5t-100.5 -128.5t-166 -89v12q125 -30 212 -92
t131.5 -151t44.5 -197q0 -162 -87 -280.5t-249.5 -181t-383.5 -62.5zM912 -648q128 0 216.5 33t134 99.5t45.5 163.5q0 95 -45.5 159.5t-134 96.5t-216.5 32t-216.5 -32t-134 -96.5t-45.5 -159.5q0 -97 45.5 -163.5t134 -99.5t216.5 -33zM912 172q104 0 176.5 27t110 80.5
t37.5 132.5q0 77 -37.5 129t-109.5 77.5t-177 25.5t-177 -25.5t-109.5 -77.5t-37.5 -129q0 -79 37.5 -132.5t110 -80.5t176.5 -27z" />
    <glyph glyph-name="nine.inferior" unicode="&#x2089;" horiz-adv-x="1792" 
d="M876 904q245 0 404.5 -104t235.5 -296t76 -460q0 -298 -82.5 -510t-246.5 -325t-403 -113q-152 0 -275.5 43.5t-209 123.5t-127.5 190l303 82q26 -51 67.5 -91t103 -64t142.5 -24q143 0 239 75t142.5 214.5t46.5 334.5q0 41 -7 82.5t-21 81.5h84v-140
q-47 -84 -128.5 -143.5t-187 -90t-224.5 -30.5q-177 0 -315 67t-215.5 195t-77.5 306q0 181 81 315.5t233 207.5t362 73zM868 648q-111 0 -191 -39.5t-122.5 -113t-42.5 -175.5q0 -100 41 -174t118.5 -114t184.5 -40q87 0 164 27t141.5 77.5t114.5 123.5q-4 139 -53.5 234.5
t-140 144.5t-214.5 49z" />
    <glyph glyph-name="plus.subs" unicode="&#x208a;" horiz-adv-x="2108" 
d="M228 -136v252h1652v-252h-1652zM916 -736v1448h276v-1448h-276z" />
    <glyph glyph-name="minus.subs" unicode="&#x208b;" horiz-adv-x="2068" 
d="M228 -140v256h1612v-256h-1612z" />
    <glyph glyph-name="equal.subs" unicode="&#x208c;" horiz-adv-x="2068" 
d="M228 180v252h1612v-252h-1612zM228 -456v256h1612v-256h-1612z" />
    <glyph glyph-name="parenleft.subs" unicode="&#x208d;" horiz-adv-x="1220" 
d="M704 -1220q-146 180 -246 380.5t-151 417.5t-51 446q0 234 51 457.5t151.5 428.5t245.5 382h292q-143 -181 -241.5 -387.5t-148.5 -428.5t-50 -452q0 -227 50 -442.5t148 -416t242 -385.5h-292z" />
    <glyph glyph-name="parenright.subs" unicode="&#x208e;" horiz-adv-x="1220" 
d="M224 -1220q143 181 241 381.5t148.5 417.5t50.5 445q0 233 -50.5 456.5t-149 428.5t-240.5 383h292q145 -177 245.5 -382t151.5 -428.5t51 -457.5q0 -231 -51 -447.5t-150.5 -416t-246.5 -380.5h-292z" />
    <glyph glyph-name="n.subs" unicode="&#x2099;" horiz-adv-x="1952" 
d="M1328 -56q0 102 -36.5 172.5t-107 107t-172.5 36.5q-118 0 -207 -49.5t-137 -139.5t-48 -207l-104 -68v368h56q44 121 119 203.5t180.5 125.5t240.5 43q164 0 280.5 -61t178 -179.5t61.5 -287.5v-864h-304v800zM320 -856v1360h292l8 -292v-52v-1016h-300z" />
    <glyph glyph-name="Euro" unicode="&#x20ac;" horiz-adv-x="2780" 
d="M1616 -48q-302 0 -536.5 115t-387.5 356.5t-204 612.5l-12 224q-3 35 -3.5 79.5t-0.5 88.5q0 51 0.5 104t3.5 96l16 216q54 365 209 599.5t386 343.5t525 109q265 0 479 -84t349.5 -235.5t172.5 -348.5h-393q-33 99 -111 176.5t-205 122.5t-296 45q-205 0 -357.5 -70.5
t-254 -232t-140.5 -425.5l-20 -220q-5 -40 -6.5 -84.5t-1.5 -115.5q0 -58 1.5 -94t6.5 -74l16 -216q35 -275 135 -444t255.5 -244.5t369.5 -75.5q166 0 292.5 46t205 123t110.5 171h393q-35 -190 -167 -341t-346 -237t-484 -86zM156 996v304l524 -16l1580 16v-304l-1580 16z
M156 1580v304l524 -16l1580 16v-304l-1580 16z" />
    <glyph glyph-name="uni20B8" unicode="&#x20b8;" horiz-adv-x="2580" 
d="M1104 0v1968h372v-1968h-372zM148 2524v324h2284v-324h-2284zM148 1804v324h2284v-324l-1148 24z" />
    <glyph glyph-name="uni20B9" unicode="&#x20b9;" horiz-adv-x="2596" 
d="M1260 792q-42 153 -106.5 238t-168.5 121.5t-273 36.5h-536v324h596q179 0 290.5 54.5t164.5 169.5t53 300q0 171 -53.5 279.5t-165.5 160.5t-289 52h-312v200h200q317 0 539 -74t339.5 -228t117.5 -390q0 -199 -88.5 -359.5t-248 -252.5t-363.5 -92l-56 48
q230 0 368.5 -54.5t216 -163.5t131.5 -294l252 -868h-388zM176 1860v320l1288 -24l948 24v-320l-956 24zM176 2528v320h2236v-320h-2236z" />
    <glyph glyph-name="uni20BA" unicode="&#x20ba;" horiz-adv-x="2552" 
d="M688 0v2848h364v-2684l-160 172h340q237 0 416 68t293 212.5t151 367.5h340q-39 -321 -200 -542t-417.5 -331.5t-582.5 -110.5h-544zM140 620v352l664 352l148 36l936 532v-352l-940 -496l-136 -28zM140 1376v352l648 344l144 36l956 540v-352l-948 -500l-152 -40z" />
    <glyph glyph-name="uni20BC" unicode="&#x20bc;" horiz-adv-x="2680" 
d="M204 1096q0 321 94.5 542.5t310 341.5t567.5 120h324q328 0 544.5 -110t324 -333t107.5 -561v-1096h-368v1124q0 233 -56.5 379t-208.5 223.5t-431 77.5h-144q-237 0 -388.5 -61t-229.5 -210t-78 -409v-1124h-368v1096zM1160 444v2404h360v-2404h-360z" />
    <glyph glyph-name="uni20BF" unicode="&#x20bf;" horiz-adv-x="2664" 
d="M260 0v2848h1228q261 0 453 -82.5t295.5 -239t103.5 -374.5q0 -146 -48 -266t-141 -210t-229 -146q186 -55 309 -151t184 -233.5t61 -317.5q0 -256 -114.5 -442.5t-329 -286t-508.5 -99.5h-1264zM736 -576v732h312v-732h-312zM1432 -576v732h308v-732h-308zM1496 324
q194 0 328 57t203 169.5t69 277.5q0 163 -70 275t-206 168.5t-332 56.5h-856v-1004h864zM1408 1640q177 0 300.5 54t187.5 157t64 249q0 141 -59 235.5t-173.5 141.5t-283.5 47h-812v-884h776zM736 2696v692h312v-692h-312zM1432 2696v692h308v-692h-308z" />
    <glyph glyph-name="uni2105" unicode="&#x2105;" horiz-adv-x="4508" 
d="M1192 -60l1784 2968h372l-1784 -2968h-372zM984 1180q-226 0 -389 103.5t-249 298.5t-86 466q0 268 85.5 460.5t247.5 294t387 101.5q185 0 327 -66t232 -191.5t121 -301.5l-288 -29q-24 100 -73.5 167.5t-125.5 102t-177 34.5q-140 0 -234.5 -65t-142 -193t-47.5 -318
t47.5 -319.5t142 -195t234.5 -65.5q101 0 176.5 35t125.5 104.5t73 172.5l287 -29q-32 -178 -122 -305.5t-230.5 -194.5t-321.5 -67zM3528 -60q-213 0 -377.5 110.5t-255.5 307t-91 446.5t91 446.5t255.5 307t377.5 110.5q212 0 375.5 -109t254 -305.5t90.5 -449.5
q0 -252 -90.5 -448t-254.5 -306t-375 -110zM3528 228q128 0 219 63t140 191.5t49 321.5q0 195 -49 324.5t-140 192.5t-219 63q-130 0 -223 -63.5t-143 -193t-50 -323.5q0 -193 50 -321.5t143 -191.5t223 -63z" />
    <glyph glyph-name="uni2113" unicode="&#x2113;" horiz-adv-x="2028" 
d="M1220 -64q-178 0 -305.5 63t-195 186t-67.5 299v1856q0 179 62 304t187 190.5t311 65.5q199 0 328.5 -78t194.5 -244t65 -430q0 -320 -98 -548.5t-302.5 -391t-535.5 -284.5q-72 -34 -143.5 -68t-142.5 -68q-48 -22 -95.5 -45t-95 -45.5t-95.5 -45.5l-132 300
q81 31 161.5 62t160.5 62t160.5 62t161.5 62q243 114 384.5 234.5t208.5 284.5t67 405q0 174 -31 274.5t-84 141t-125 40.5q-66 0 -111.5 -30t-69 -89t-23.5 -145v-1812q0 -82 28.5 -137.5t81.5 -83t126 -27.5q67 0 129.5 22.5t118 65.5t104.5 104l216 -236
q-81 -95 -175 -156t-200.5 -90.5t-228.5 -29.5z" />
    <glyph glyph-name="uni2116" unicode="&#x2116;" horiz-adv-x="4868" 
d="M3908 1296q-225 0 -398.5 102t-269.5 284t-96 414q0 234 96 417t269.5 285t398.5 102q223 0 396 -101.5t268.5 -284t95.5 -418.5q0 -234 -95.5 -415.5t-268.5 -283t-396 -101.5zM3908 1552q140 0 240 59t154 180.5t54 304.5q0 185 -54 307t-154 181.5t-240 59.5
q-142 0 -244 -59.5t-157 -182t-55 -306.5q0 -183 55 -304.5t157 -180.5t244 -59zM340 0v2848h412l1204 -1860q104 -160 206.5 -332t246.5 -422q11 -19 21.5 -37t21.5 -37h-180q-1 30 -2 61l-2 62q-7 203 -11.5 375.5t-4.5 329.5v1860h352v-2848h-424l-1056 1640
q-111 173 -223 353.5t-217.5 356.5t-215.5 362h204q6 -179 10.5 -361t7 -359.5t2.5 -351.5v-1640h-352z" />
    <glyph glyph-name="uni2117" unicode="&#x2117;" horiz-adv-x="3520" 
d="M1760 -68q-430 0 -773 192.5t-537 532.5t-194 767q0 428 194 768.5t536.5 532t773.5 191.5t773.5 -191.5t536.5 -532t194 -768.5q0 -427 -194 -767t-537 -532.5t-773 -192.5zM1760 180q355 0 635 159.5t436.5 443t156.5 641.5q0 356 -157.5 638.5t-437.5 442t-633 159.5
t-633 -159.5t-437.5 -442t-157.5 -638.5q0 -358 157.5 -641.5t437.5 -443t633 -159.5zM1276 680v1508h632q147 0 260 -63t174.5 -174.5t61.5 -250.5q0 -144 -65.5 -256t-183 -174t-267.5 -62h-332v-528h-280zM1852 1444q91 0 151.5 29.5t90.5 86.5t30 140q0 80 -29.5 136.5
t-88.5 86t-146 29.5h-304v-508h296z" />
    <glyph glyph-name="trademark" unicode="&#x2122;" horiz-adv-x="3708" 
d="M1844 1320v1528h344l344 -928l116 -344h-64l116 344l344 928h344v-1528h-260v776l12 528h64l-184 -520l-292 -784h-224l-292 784l-184 520h64l12 -528v-776h-260zM664 1320v1296h-464v232h1204v-232h-464v-1296h-276z" />
    <glyph glyph-name="Omega" unicode="&#x2126;" horiz-adv-x="3280" 
d="M256 0v320h680v8q-209 136 -354.5 325t-219.5 413.5t-74 469.5q0 422 171.5 730t478.5 471t706 163q402 0 707 -162.5t473 -470.5t168 -731q0 -246 -72.5 -470.5t-217.5 -413t-358 -324.5v-8h680v-320h-1172v288q259 139 428.5 331t250.5 423t81 494q0 344 -120 577
t-337.5 348t-510.5 115q-290 0 -509.5 -115.5t-343 -348.5t-123.5 -576q0 -263 81 -494t250.5 -423t428.5 -331v-288h-1172z" />
    <glyph glyph-name="estimated" unicode="&#x212e;" horiz-adv-x="3624" 
d="M1812 2896q494 0 859.5 -206t559 -553t193.5 -761h-2572q-16 0 -28.5 -7t-20 -19t-7.5 -26v-700q0 -45 5.5 -76.5t19 -57.5t39.5 -50q188 -185 426.5 -284.5t525.5 -99.5q201 0 390 58.5t346 162t268 239.5h292q-104 -146 -281 -274t-435 -211t-580 -83
q-479 0 -845.5 189t-566.5 523t-200 756q0 418 195.5 755t561 531t855.5 194zM1812 2784q-286 0 -524.5 -101.5t-427.5 -290.5q-26 -24 -39.5 -48t-19 -53t-5.5 -71v-700q0 -24 16 -38t40 -14h1912q16 0 28.5 6.5t20 18t7.5 27.5v700q0 42 -5.5 71t-19 53t-39.5 48
q-207 204 -447 298t-497 94z" />
    <glyph glyph-name="uni2153" unicode="&#x2153;" horiz-adv-x="4160" 
d="M572 2392q-52 -35 -118 -57.5t-139.5 -32.5t-154.5 -10v272q127 0 220.5 27.5t156 90.5t87.5 166h256v-1708h-308v1252zM712 -60l1784 2968h372l-1784 -2968h-372zM3272 -64q-210 0 -365.5 65t-240.5 193t-85 310h320q4 -103 42.5 -171t120 -102.5t212.5 -34.5
q120 0 201 29.5t122 89t41 149.5q0 86 -41 144t-121 87t-198 29h-156v276h156q99 0 166 27t100.5 80t33.5 129q0 81 -38.5 136.5t-113 83.5t-180.5 28q-111 0 -185.5 -29.5t-114 -88.5t-45.5 -150h-319q0 166 80.5 285t229 181t350.5 62q203 0 351 -59.5t226.5 -168
t78.5 -252.5q0 -100 -39 -183.5t-113 -137t-176 -67.5v16q115 -20 202.5 -78.5t136.5 -150t49 -207.5q0 -152 -83 -270t-239 -184t-366 -66z" />
    <glyph glyph-name="uni2154" unicode="&#x2154;" horiz-adv-x="4684" 
d="M200 1144q0 187 46.5 328t139 242.5t234.5 169.5l340 164q79 39 132.5 81t82.5 96.5t29 126.5q0 79 -36 137.5t-109.5 90.5t-182.5 32q-125 0 -195.5 -39t-99.5 -109.5t-33 -179.5h-320q4 182 76 316.5t215.5 209t356.5 74.5q191 0 337.5 -62t228.5 -182t82 -288
q0 -120 -45 -215.5t-138 -174.5t-241 -150l-208 -100q-141 -68 -212.5 -122.5t-99.5 -116.5t-28 -157l-84 80l424 20h628v-276h-1320v4zM1236 -60l1784 2968h372l-1784 -2968h-372zM3796 -64q-210 0 -365.5 65t-240.5 193t-85 310h320q4 -103 42.5 -171t120 -102.5
t212.5 -34.5q120 0 201 29.5t122 89t41 149.5q0 86 -41 144t-121 87t-198 29h-156v276h156q99 0 166 27t100.5 80t33.5 129q0 81 -38.5 136.5t-113 83.5t-180.5 28q-111 0 -185.5 -29.5t-114 -88.5t-45.5 -150h-319q0 166 80.5 285t229 181t350.5 62q203 0 351 -59.5
t226.5 -168t78.5 -252.5q0 -100 -39 -183.5t-113 -137t-176 -67.5v16q115 -20 202.5 -78.5t136.5 -150t49 -207.5q0 -152 -83 -270t-239 -184t-366 -66z" />
    <glyph glyph-name="uni2155" unicode="&#x2155;" horiz-adv-x="4164" 
d="M572 2392q-52 -35 -118 -57.5t-139.5 -32.5t-154.5 -10v272q127 0 220.5 27.5t156 90.5t87.5 166h256v-1708h-308v1252zM712 -60l1784 2968h372l-1784 -2968h-372zM3260 -60q-172 0 -309 46.5t-230.5 138.5t-136.5 225l316 67q28 -75 81 -122.5t125 -69t158 -21.5
q120 0 205.5 39t130 111t44.5 170q0 99 -44 175t-129.5 118.5t-206.5 42.5q-73 0 -133 -15.5t-104.5 -43t-78.5 -65.5l-320 68l172 904h1036v-264h-816l-80 -476l-12 16q49 38 107.5 65.5t134.5 43t170 15.5q204 0 344.5 -76t210 -204.5t69.5 -287.5q0 -167 -78.5 -303
t-237.5 -216.5t-388 -80.5z" />
    <glyph glyph-name="uni2156" unicode="&#x2156;" horiz-adv-x="4688" 
d="M200 1144q0 187 46.5 328t139 242.5t234.5 169.5l340 164q79 39 132.5 81t82.5 96.5t29 126.5q0 79 -36 137.5t-109.5 90.5t-182.5 32q-125 0 -195.5 -39t-99.5 -109.5t-33 -179.5h-320q4 182 76 316.5t215.5 209t356.5 74.5q191 0 337.5 -62t228.5 -182t82 -288
q0 -120 -45 -215.5t-138 -174.5t-241 -150l-208 -100q-141 -68 -212.5 -122.5t-99.5 -116.5t-28 -157l-84 80l424 20h628v-276h-1320v4zM1236 -60l1784 2968h372l-1784 -2968h-372zM3784 -60q-172 0 -309 46.5t-230.5 138.5t-136.5 225l316 67q28 -75 81 -122.5t125 -69
t158 -21.5q120 0 205.5 39t130 111t44.5 170q0 99 -44 175t-129.5 118.5t-206.5 42.5q-73 0 -133 -15.5t-104.5 -43t-78.5 -65.5l-320 68l172 904h1036v-264h-816l-80 -476l-12 16q49 38 107.5 65.5t134.5 43t170 15.5q204 0 344.5 -76t210 -204.5t69.5 -287.5
q0 -167 -78.5 -303t-237.5 -216.5t-388 -80.5z" />
    <glyph glyph-name="uni2157" unicode="&#x2157;" horiz-adv-x="4744" 
d="M892 1088q-210 0 -365.5 65t-240.5 193t-85 310h320q4 -103 42.5 -171t120 -102.5t212.5 -34.5q120 0 201 29.5t122 89t41 149.5q0 86 -41 144t-121 87t-198 29h-156v276h156q99 0 166 27t100.5 80t33.5 129q0 81 -38.5 136.5t-113 83.5t-180.5 28q-111 0 -185.5 -29.5
t-114 -88.5t-45.5 -150h-319q0 166 80.5 285t229 181t350.5 62q203 0 351 -59.5t226.5 -168t78.5 -252.5q0 -100 -39 -183.5t-113 -137t-176 -67.5v16q115 -20 202.5 -78.5t136.5 -150t49 -207.5q0 -152 -83 -270t-239 -184t-366 -66zM1292 -60l1784 2968h372l-1784 -2968
h-372zM3840 -60q-172 0 -309 46.5t-230.5 138.5t-136.5 225l316 67q28 -75 81 -122.5t125 -69t158 -21.5q120 0 205.5 39t130 111t44.5 170q0 99 -44 175t-129.5 118.5t-206.5 42.5q-73 0 -133 -15.5t-104.5 -43t-78.5 -65.5l-320 68l172 904h1036v-264h-816l-80 -476
l-12 16q49 38 107.5 65.5t134.5 43t170 15.5q204 0 344.5 -76t210 -204.5t69.5 -287.5q0 -167 -78.5 -303t-237.5 -216.5t-388 -80.5z" />
    <glyph glyph-name="uni2158" unicode="&#x2158;" horiz-adv-x="4804" 
d="M1028 1140v468v80v996l64 -72l-632 -856l4 16l764 -12l412 12v-248l-388 12l-1052 -12v268l792 1056h344v-1708h-308zM1352 -60l1784 2968h372l-1784 -2968h-372zM3900 -60q-172 0 -309 46.5t-230.5 138.5t-136.5 225l316 67q28 -75 81 -122.5t125 -69t158 -21.5
q120 0 205.5 39t130 111t44.5 170q0 99 -44 175t-129.5 118.5t-206.5 42.5q-73 0 -133 -15.5t-104.5 -43t-78.5 -65.5l-320 68l172 904h1036v-264h-816l-80 -476l-12 16q49 38 107.5 65.5t134.5 43t170 15.5q204 0 344.5 -76t210 -204.5t69.5 -287.5q0 -167 -78.5 -303
t-237.5 -216.5t-388 -80.5z" />
    <glyph glyph-name="uni2159" unicode="&#x2159;" horiz-adv-x="4172" 
d="M572 2392q-52 -35 -118 -57.5t-139.5 -32.5t-154.5 -10v272q127 0 220.5 27.5t156 90.5t87.5 166h256v-1708h-308v1252zM712 -60l1784 2968h372l-1784 -2968h-372zM3296 -64q-245 0 -404.5 104t-235.5 296t-76 460q0 298 82.5 510t246.5 325t403 113q152 0 275.5 -43.5
t209 -123.5t127.5 -190l-303 -82q-26 51 -67.5 91t-103 64t-142.5 24q-143 0 -239 -75t-142.5 -214.5t-46.5 -334.5q0 -41 7 -82.5t21 -81.5h-84v140q47 84 128.5 143.5t187 90t224.5 30.5q177 0 315 -67t215.5 -195t77.5 -306q0 -181 -81 -315.5t-233 -207.5t-362 -73z
M3304 192q111 0 191 39.5t122.5 113t42.5 175.5q0 100 -41 174t-118.5 114t-184.5 40q-87 0 -164 -27t-141.5 -77.5t-114.5 -123.5q4 -139 53.5 -234.5t140 -144.5t214.5 -49z" />
    <glyph glyph-name="uni215A" unicode="&#x215a;" horiz-adv-x="4756" 
d="M880 1080q-172 0 -309 46.5t-230.5 138.5t-136.5 225l316 67q28 -75 81 -122.5t125 -69t158 -21.5q120 0 205.5 39t130 111t44.5 170q0 99 -44 175t-129.5 118.5t-206.5 42.5q-73 0 -133 -15.5t-104.5 -43t-78.5 -65.5l-320 68l172 904h1036v-264h-816l-80 -476l-12 16
q49 38 107.5 65.5t134.5 43t170 15.5q204 0 344.5 -76t210 -204.5t69.5 -287.5q0 -167 -78.5 -303t-237.5 -216.5t-388 -80.5zM1296 -60l1784 2968h372l-1784 -2968h-372zM3880 -64q-245 0 -404.5 104t-235.5 296t-76 460q0 298 82.5 510t246.5 325t403 113
q152 0 275.5 -43.5t209 -123.5t127.5 -190l-303 -82q-26 51 -67.5 91t-103 64t-142.5 24q-143 0 -239 -75t-142.5 -214.5t-46.5 -334.5q0 -41 7 -82.5t21 -81.5h-84v140q47 84 128.5 143.5t187 90t224.5 30.5q177 0 315 -67t215.5 -195t77.5 -306q0 -181 -81 -315.5
t-233 -207.5t-362 -73zM3888 192q111 0 191 39.5t122.5 113t42.5 175.5q0 100 -41 174t-118.5 114t-184.5 40q-87 0 -164 -27t-141.5 -77.5t-114.5 -123.5q4 -139 53.5 -234.5t140 -144.5t214.5 -49z" />
    <glyph glyph-name="oneeighth" unicode="&#x215b;" horiz-adv-x="4204" 
d="M572 2392q-52 -35 -118 -57.5t-139.5 -32.5t-154.5 -10v272q127 0 220.5 27.5t156 90.5t87.5 166h256v-1708h-308v1252zM712 -60l1784 2968h372l-1784 -2968h-372zM3292 -36q-221 0 -383.5 62.5t-249.5 181t-87 280.5q0 105 44.5 194t131 153t208.5 93v-12
q-96 34 -162 88.5t-100 128t-34 163.5q0 139 77 240t219.5 154.5t335.5 53.5t335.5 -53.5t219.5 -154.5t77 -240q0 -89 -33.5 -162.5t-100.5 -128.5t-166 -89v12q125 -30 212 -92t131.5 -151t44.5 -197q0 -162 -87 -280.5t-249.5 -181t-383.5 -62.5zM3292 208
q128 0 216.5 33t134 99.5t45.5 163.5q0 95 -45.5 159.5t-134 96.5t-216.5 32t-216.5 -32t-134 -96.5t-45.5 -159.5q0 -97 45.5 -163.5t134 -99.5t216.5 -33zM3292 1028q104 0 176.5 27t110 80.5t37.5 132.5q0 77 -37.5 129t-109.5 77.5t-177 25.5t-177 -25.5t-109.5 -77.5
t-37.5 -129q0 -79 37.5 -132.5t110 -80.5t176.5 -27z" />
    <glyph glyph-name="threeeighths" unicode="&#x215c;" horiz-adv-x="4784" 
d="M892 1088q-210 0 -365.5 65t-240.5 193t-85 310h320q4 -103 42.5 -171t120 -102.5t212.5 -34.5q120 0 201 29.5t122 89t41 149.5q0 86 -41 144t-121 87t-198 29h-156v276h156q99 0 166 27t100.5 80t33.5 129q0 81 -38.5 136.5t-113 83.5t-180.5 28q-111 0 -185.5 -29.5
t-114 -88.5t-45.5 -150h-319q0 166 80.5 285t229 181t350.5 62q203 0 351 -59.5t226.5 -168t78.5 -252.5q0 -100 -39 -183.5t-113 -137t-176 -67.5v16q115 -20 202.5 -78.5t136.5 -150t49 -207.5q0 -152 -83 -270t-239 -184t-366 -66zM1292 -60l1784 2968h372l-1784 -2968
h-372zM3872 -36q-221 0 -383.5 62.5t-249.5 181t-87 280.5q0 105 44.5 194t131 153t208.5 93v-12q-96 34 -162 88.5t-100 128t-34 163.5q0 139 77 240t219.5 154.5t335.5 53.5t335.5 -53.5t219.5 -154.5t77 -240q0 -89 -33.5 -162.5t-100.5 -128.5t-166 -89v12
q125 -30 212 -92t131.5 -151t44.5 -197q0 -162 -87 -280.5t-249.5 -181t-383.5 -62.5zM3872 208q128 0 216.5 33t134 99.5t45.5 163.5q0 95 -45.5 159.5t-134 96.5t-216.5 32t-216.5 -32t-134 -96.5t-45.5 -159.5q0 -97 45.5 -163.5t134 -99.5t216.5 -33zM3872 1028
q104 0 176.5 27t110 80.5t37.5 132.5q0 77 -37.5 129t-109.5 77.5t-177 25.5t-177 -25.5t-109.5 -77.5t-37.5 -129q0 -79 37.5 -132.5t110 -80.5t176.5 -27z" />
    <glyph glyph-name="fiveeighths" unicode="&#x215d;" horiz-adv-x="4788" 
d="M880 1080q-172 0 -309 46.5t-230.5 138.5t-136.5 225l316 67q28 -75 81 -122.5t125 -69t158 -21.5q120 0 205.5 39t130 111t44.5 170q0 99 -44 175t-129.5 118.5t-206.5 42.5q-73 0 -133 -15.5t-104.5 -43t-78.5 -65.5l-320 68l172 904h1036v-264h-816l-80 -476l-12 16
q49 38 107.5 65.5t134.5 43t170 15.5q204 0 344.5 -76t210 -204.5t69.5 -287.5q0 -167 -78.5 -303t-237.5 -216.5t-388 -80.5zM1296 -60l1784 2968h372l-1784 -2968h-372zM3876 -36q-221 0 -383.5 62.5t-249.5 181t-87 280.5q0 105 44.5 194t131 153t208.5 93v-12
q-96 34 -162 88.5t-100 128t-34 163.5q0 139 77 240t219.5 154.5t335.5 53.5t335.5 -53.5t219.5 -154.5t77 -240q0 -89 -33.5 -162.5t-100.5 -128.5t-166 -89v12q125 -30 212 -92t131.5 -151t44.5 -197q0 -162 -87 -280.5t-249.5 -181t-383.5 -62.5zM3876 208
q128 0 216.5 33t134 99.5t45.5 163.5q0 95 -45.5 159.5t-134 96.5t-216.5 32t-216.5 -32t-134 -96.5t-45.5 -159.5q0 -97 45.5 -163.5t134 -99.5t216.5 -33zM3876 1028q104 0 176.5 27t110 80.5t37.5 132.5q0 77 -37.5 129t-109.5 77.5t-177 25.5t-177 -25.5t-109.5 -77.5
t-37.5 -129q0 -79 37.5 -132.5t110 -80.5t176.5 -27z" />
    <glyph glyph-name="seveneighths" unicode="&#x215e;" horiz-adv-x="4368" 
d="M384 1140q30 318 114 582.5t220 478.5t326 383h-236h-708v264h1324v-252q-217 -170 -363 -373t-233.5 -468.5t-119.5 -614.5h-324zM876 -60l1784 2968h372l-1784 -2968h-372zM3456 -36q-221 0 -383.5 62.5t-249.5 181t-87 280.5q0 105 44.5 194t131 153t208.5 93v-12
q-96 34 -162 88.5t-100 128t-34 163.5q0 139 77 240t219.5 154.5t335.5 53.5t335.5 -53.5t219.5 -154.5t77 -240q0 -89 -33.5 -162.5t-100.5 -128.5t-166 -89v12q125 -30 212 -92t131.5 -151t44.5 -197q0 -162 -87 -280.5t-249.5 -181t-383.5 -62.5zM3456 208
q128 0 216.5 33t134 99.5t45.5 163.5q0 95 -45.5 159.5t-134 96.5t-216.5 32t-216.5 -32t-134 -96.5t-45.5 -159.5q0 -97 45.5 -163.5t134 -99.5t216.5 -33zM3456 1028q104 0 176.5 27t110 80.5t37.5 132.5q0 77 -37.5 129t-109.5 77.5t-177 25.5t-177 -25.5t-109.5 -77.5
t-37.5 -129q0 -79 37.5 -132.5t110 -80.5t176.5 -27z" />
    <glyph glyph-name="arrowleft" unicode="&#x2190;" horiz-adv-x="3392" 
d="M1704 2848l-496 -660l-540 -692l-112 112h2636v-368h-2636l112 112l540 -692l496 -660h-428l-1076 1424l1076 1424h428z" />
    <glyph glyph-name="arrowup" unicode="&#x2191;" horiz-adv-x="3336" 
d="M1484 0v2556l108 -108l-688 -544l-704 -532v432l1468 1108l1468 -1112v-428l-704 532l-688 544l108 108v-2556h-368z" />
    <glyph glyph-name="arrowright" unicode="&#x2192;" horiz-adv-x="3392" 
d="M1688 0l496 660l540 692l112 -112h-2636v368h2636l-112 -112l-540 692l-496 660h428l1076 -1424l-1076 -1424h-428z" />
    <glyph glyph-name="arrowdown" unicode="&#x2193;" horiz-adv-x="3336" 
d="M1852 2848v-2556l-108 108l688 544l704 532v-432l-1468 -1108l-1468 1112v428l704 -532l688 -544l-108 -108v2556h368z" />
    <glyph glyph-name="arrowboth" unicode="&#x2194;" horiz-adv-x="4596" 
d="M1276 0l-1076 1424l1076 1424h428l-496 -660l-540 -692l-112 112h3484l-112 -112l-540 692l-496 660h428l1076 -1424l-1076 -1424h-428l496 660l540 692l112 -112h-3484l112 112l540 -692l496 -660h-428z" />
    <glyph glyph-name="arrowupdn" unicode="&#x2195;" horiz-adv-x="3336" 
d="M1668 -752l-1468 1112v428l704 -532l688 -544l-108 -108v3640l108 -108l-688 -544l-704 -532v432l1468 1108l1468 -1112v-428l-704 532l-688 544l108 108v-3640l-108 108l688 544l704 532v-432z" />
    <glyph glyph-name="uni2196" unicode="&#x2196;" horiz-adv-x="3064" 
d="M2600 92l-2104 2112l52 56l24 -868v-1172h-372v2536h2536v-368h-1132l-900 24l56 56l2104 -2112z" />
    <glyph glyph-name="uni2197" unicode="&#x2197;" horiz-adv-x="3064" 
d="M464 92l-264 264l2104 2112l56 -56l-900 -24h-1132v368h2536v-2536h-372v1172l24 868l52 -56z" />
    <glyph glyph-name="uni2198" unicode="&#x2198;" horiz-adv-x="3064" 
d="M464 2780l2104 -2112l-52 -56l-24 868v1172h372v-2536h-2536v368h1132l900 -24l-56 -56l-2104 2112z" />
    <glyph glyph-name="uni2199" unicode="&#x2199;" horiz-adv-x="3064" 
d="M2600 2780l264 -264l-2104 -2112l-56 56l900 24h1132v-368h-2536v2536h372v-1172l-24 -868l-52 56z" />
    <glyph glyph-name="partialdiff" unicode="&#x2202;" horiz-adv-x="2548" 
d="M1024 -52q-266 0 -469.5 96t-317 280.5t-113.5 443.5q0 298 150 547t421.5 395t620.5 146q215 0 379 -67.5t265.5 -196.5t131.5 -312l-12 -64h-116q38 103 63 212t37 222t12 230q0 256 -70 415t-195.5 230t-298.5 71q-107 0 -204 -26t-179.5 -76t-144.5 -121l-274 206
q97 104 223.5 176.5t277 110.5t317.5 38q287 0 488.5 -116t306.5 -340t105 -544q0 -353 -73 -668t-204 -563.5t-303 -412.5q-105 -100 -232.5 -169.5t-276.5 -106t-315 -36.5zM1044 256q95 0 187.5 19t177 57.5t155.5 95.5q91 73 159 176t104.5 220t36.5 232
q0 154 -68.5 265t-194 169t-293.5 58q-226 0 -411 -104.5t-291 -284.5t-106 -395q0 -163 63.5 -277t185 -172.5t295.5 -58.5z" />
    <glyph glyph-name="Delta" unicode="&#x2206;" horiz-adv-x="2864" 
d="M120 0l1104 2848h420l1100 -2848h-2624zM584 184l-152 140h1980l-144 -140l-617 1720q-50 139 -93 265t-82.5 248t-80.5 255h87q-37 -125 -76.5 -246.5t-83 -244t-100.5 -277.5z" />
    <glyph glyph-name="product" unicode="&#x220f;" horiz-adv-x="2932" 
d="M340 -816v3664h2252v-3664h-372v3324h-1508v-3324h-372z" />
    <glyph glyph-name="summation" unicode="&#x2211;" horiz-adv-x="2716" 
d="M256 -816v312l1308 1692v-304l-1256 1652v312h2104v-352h-1140l-508 8l200 -252l920 -1212v-4l-972 -1260l-200 -248l448 8h1300v-352h-2204z" />
    <glyph glyph-name="minus" unicode="&#x2212;" horiz-adv-x="2640" 
d="M264 1264v320h2116v-320h-2116z" />
    <glyph glyph-name="uni2215" unicode="&#x2215;" horiz-adv-x="2640" 
d="M244 -60l1792 2968h364l-1784 -2968h-372z" />
    <glyph glyph-name="uni2219" unicode="&#x2219;" horiz-adv-x="2640" 
d="M1096 1224v404h452v-404h-452z" />
    <glyph glyph-name="radical" unicode="&#x221a;" horiz-adv-x="2560" 
d="M1088 -816l-572 1680h-476v344h748l228 -692l308 -972l244 980l644 2524h388l-1012 -3864h-500z" />
    <glyph glyph-name="infinity" unicode="&#x221e;" horiz-adv-x="3120" 
d="M816 776q-189 0 -328.5 84t-213.5 230.5t-74 329.5q0 191 78 339.5t215.5 230.5t310.5 82q139 0 267.5 -58t245 -155.5t243.5 -238.5q139 153 249.5 249t232 151.5t258.5 55.5q179 0 320.5 -83.5t220.5 -231t79 -333.5q0 -188 -77 -338t-218 -236t-325 -86
q-135 0 -263.5 57t-244 153t-232.5 226q-148 -145 -256.5 -233.5t-229.5 -141.5t-258 -53zM816 1076q83 0 172.5 37t184 111.5t191.5 187.5q-108 120 -206 200t-186 120t-168 40q-91 0 -160 -45.5t-106.5 -126.5t-37.5 -184q0 -101 39 -178t110.5 -119.5t166.5 -42.5z
M2312 1068q91 0 161 43t108.5 121.5t38.5 183.5q0 111 -38.5 192.5t-111.5 124.5t-174 43q-91 0 -181 -47.5t-175.5 -125t-187.5 -191.5q85 -100 174 -176.5t187 -122t199 -45.5z" />
    <glyph glyph-name="integral" unicode="&#x222b;" horiz-adv-x="1472" 
d="M200 -508h46h46q100 0 155.5 24.5t80 80t24.5 155.5v2616q0 217 65 353.5t201.5 201.5t353.5 65h50h50v-308h-46h-46q-100 0 -155.5 -24.5t-80 -80t-24.5 -155.5v-2616q0 -217 -65 -353.5t-201.5 -201.5t-353.5 -65h-50h-50v308z" />
    <glyph glyph-name="approxequal" unicode="&#x2248;" horiz-adv-x="2640" 
d="M288 1572q0 236 73.5 394t200.5 234t290 76q111 0 210.5 -31.5t178.5 -76t189 -116.5q84 -56 137 -87t110.5 -52t114.5 -21q72 0 125.5 38t84 123.5t30.5 222.5h320q0 -231 -72 -389.5t-199.5 -236.5t-292.5 -78q-109 0 -207 31.5t-175.5 76t-182.5 115.5q-85 57 -139 89
t-114.5 54t-121.5 22q-75 0 -128 -39t-82.5 -125t-29.5 -224h-320zM288 572q0 236 73.5 394t200.5 234t290 76q111 0 210.5 -31.5t178.5 -76t189 -116.5q84 -56 137 -87t110.5 -52t114.5 -21q72 0 125.5 38t84 123.5t30.5 222.5h320q0 -231 -72 -389.5t-199.5 -236.5
t-292.5 -78q-109 0 -207 31.5t-175.5 76t-182.5 115.5q-85 57 -139 89t-114.5 54t-121.5 22q-75 0 -128 -39t-82.5 -125t-29.5 -224h-320z" />
    <glyph glyph-name="notequal" unicode="&#x2260;" horiz-adv-x="2640" 
d="M888 52l-236 88l1184 2656l236 -88zM264 828v320h2116v-320h-2116zM264 1704v320h2116v-320h-2116z" />
    <glyph glyph-name="lessequal" unicode="&#x2264;" horiz-adv-x="2640" 
d="M2380 852l-2116 668v392l2116 672v-360l-944 -272q-156 -44 -312 -87.5t-312 -86.5l-312 -86v48l308 -86t308 -85.5t308 -84.5l956 -272v-360zM264 264v320h2116v-320h-2116z" />
    <glyph glyph-name="greaterequal" unicode="&#x2265;" horiz-adv-x="2640" 
d="M264 852v360l956 272q154 42 308 84.5t308 85.5l308 86v-48l-312 86t-312 86.5t-312 87.5l-944 272v360l2116 -672v-392zM264 264v320h2116v-320h-2116z" />
    <glyph glyph-name="uni2460" unicode="&#x2460;" horiz-adv-x="4544" 
d="M2272 -540q-572 0 -1032.5 254.5t-722 703t-261.5 1006.5q0 560 261.5 1008t721.5 702t1033 254q574 0 1034 -254.5t721 -702.5t261 -1007t-261 -1007t-721 -702.5t-1034 -254.5zM2164 1844q-52 -35 -118 -57.5t-139.5 -32.5t-154.5 -10v256q123 0 214 27.5t151 90.5
t83 166h272v-1708h-308v1268zM2272 -220q472 0 850 212t592 587t214 845t-214 845t-592 587t-850 212t-850 -212t-592 -587t-214 -845t214 -845t592 -587t850 -212z" />
    <glyph glyph-name="uni2461" unicode="&#x2461;" horiz-adv-x="4544" 
d="M2272 -540q-572 0 -1032.5 254.5t-722 703t-261.5 1006.5q0 560 261.5 1008t721.5 702t1033 254q574 0 1034 -254.5t721 -702.5t261 -1007t-261 -1007t-721 -702.5t-1034 -254.5zM2272 -220q472 0 850 212t592 587t214 845t-214 845t-592 587t-850 212t-850 -212
t-592 -587t-214 -845t214 -845t592 -587t850 -212zM1592 580q0 187 46.5 328t139 242.5t234.5 169.5l340 164q79 39 132.5 81t82.5 96.5t29 126.5q0 79 -36 137.5t-109.5 90.5t-182.5 32q-125 0 -195.5 -39t-99.5 -109.5t-33 -179.5h-320q4 182 76 316.5t215.5 209
t356.5 74.5q191 0 337.5 -62t228.5 -182t82 -288q0 -120 -45 -215.5t-138 -174.5t-241 -150l-208 -100q-123 -59 -188 -104.5t-92 -88.5t-36 -103h344h600v-276h-1320v4z" />
    <glyph glyph-name="uni2462" unicode="&#x2462;" horiz-adv-x="4544" 
d="M2272 -540q-572 0 -1032.5 254.5t-722 703t-261.5 1006.5q0 560 261.5 1008t721.5 702t1033 254q574 0 1034 -254.5t721 -702.5t261 -1007t-261 -1007t-721 -702.5t-1034 -254.5zM2272 -220q472 0 850 212t592 587t214 845t-214 845t-592 587t-850 212t-850 -212
t-592 -587t-214 -845t214 -845t592 -587t850 -212zM2276 520q-210 0 -365.5 65t-241 192.5t-85.5 310.5h320q4 -103 43.5 -170.5t121 -102.5t211.5 -35q120 0 201 29.5t122 89t41 149.5q0 86 -41 144t-121 87t-198 29h-156v276h156q99 0 166 27t100.5 80t33.5 129
q0 81 -38.5 136.5t-113 83.5t-180.5 28q-110 0 -184.5 -29.5t-114 -89t-45.5 -149.5h-320q0 166 80.5 285t229 181t350.5 62q203 0 351 -59.5t226.5 -168t78.5 -252.5q0 -91 -32 -167.5t-96 -132t-156 -80.5q108 -30 185 -89.5t118 -145.5t41 -193q0 -152 -83 -270
t-239 -184t-366 -66z" />
    <glyph glyph-name="uni2463" unicode="&#x2463;" horiz-adv-x="4544" 
d="M2272 -540q-572 0 -1032.5 254.5t-722 703t-261.5 1006.5q0 560 261.5 1008t721.5 702t1033 254q574 0 1034 -254.5t721 -702.5t261 -1007t-261 -1007t-721 -702.5t-1034 -254.5zM1816 1208l556 -8v744zM2272 -220q472 0 850 212t592 587t214 845t-214 845t-592 587
t-850 212t-850 -212t-592 -587t-214 -845t214 -845t592 -587t850 -212zM2372 576v392l-828 -8v268l808 1056h328v-1084l304 8v-248l-304 8v-392h-308z" />
    <glyph glyph-name="uni2464" unicode="&#x2464;" horiz-adv-x="4544" 
d="M2272 -540q-572 0 -1032.5 254.5t-722 703t-261.5 1006.5q0 560 261.5 1008t721.5 702t1033 254q574 0 1034 -254.5t721 -702.5t261 -1007t-261 -1007t-721 -702.5t-1034 -254.5zM2248 520q-172 0 -309.5 47.5t-231 140.5t-135.5 228l316 68q27 -77 80 -126t125 -71.5
t159 -22.5q121 0 206 39t129.5 112t44.5 173q0 101 -44 177.5t-129.5 119.5t-206.5 43q-73 0 -133 -15.5t-104.5 -43t-78.5 -65.5l-320 68l168 892h1040v-264h-820l-72 -436q47 34 103.5 59t129.5 39t163 14q204 0 344.5 -76t210 -205.5t69.5 -290.5q0 -169 -78.5 -306
t-237.5 -217.5t-388 -80.5zM2272 -220q472 0 850 212t592 587t214 845t-214 845t-592 587t-850 212t-850 -212t-592 -587t-214 -845t214 -845t592 -587t850 -212z" />
    <glyph glyph-name="uni2465" unicode="&#x2465;" horiz-adv-x="4544" 
d="M2272 -540q-572 0 -1032.5 254.5t-722 703t-261.5 1006.5q0 560 261.5 1008t721.5 702t1033 254q574 0 1034 -254.5t721 -702.5t261 -1007t-261 -1007t-721 -702.5t-1034 -254.5zM2296 776q111 0 191 39.5t122.5 113t42.5 175.5q0 100 -41 174t-118.5 114t-184.5 40
q-87 0 -164 -27t-141.5 -77.5t-114.5 -123.5q4 -141 53 -236.5t138.5 -143.5t216.5 -48zM2272 -220q472 0 850 212t592 587t214 845t-214 845t-592 587t-850 212t-850 -212t-592 -587t-214 -845t214 -845t592 -587t850 -212zM2288 520q-245 0 -404.5 104t-235.5 296t-76 460
q0 298 82.5 510t246.5 325t403 113q152 0 275 -43.5t209 -123.5t128 -189l-304 -84q-26 51 -67.5 91.5t-103 64.5t-141.5 24q-142 0 -238 -76.5t-143 -202t-47 -273.5v-8v-8q55 59 130.5 100.5t165.5 62.5t188 21q177 0 315 -67t215.5 -195t77.5 -306q0 -181 -81 -315.5
t-233 -207.5t-362 -73z" />
    <glyph glyph-name="uni2466" unicode="&#x2466;" horiz-adv-x="4544" 
d="M2272 -540q-572 0 -1032.5 254.5t-722 703t-261.5 1006.5q0 560 261.5 1008t721.5 702t1033 254q574 0 1034 -254.5t721 -702.5t261 -1007t-261 -1007t-721 -702.5t-1034 -254.5zM2272 -220q472 0 850 212t592 587t214 845t-214 845t-592 587t-850 212t-850 -212
t-592 -587t-214 -845t214 -845t592 -587t850 -212zM1912 576q30 318 114 582.5t220 478.5t326 383h-944v264h1324v-252q-217 -170 -363 -373t-233.5 -468.5t-119.5 -614.5h-324z" />
    <glyph glyph-name="uni2467" unicode="&#x2467;" horiz-adv-x="4544" 
d="M2272 -540q-572 0 -1032.5 254.5t-722 703t-261.5 1006.5q0 560 261.5 1008t721.5 702t1033 254q574 0 1034 -254.5t721 -702.5t261 -1007t-261 -1007t-721 -702.5t-1034 -254.5zM2272 768q128 0 216.5 33.5t134 100.5t45.5 166q0 97 -45.5 162t-133.5 97.5t-217 32.5
t-217 -32.5t-133.5 -97.5t-45.5 -162q0 -99 45.5 -166t134 -100.5t216.5 -33.5zM2272 -220q472 0 850 212t592 587t214 845t-214 845t-592 587t-850 212t-850 -212t-592 -587t-214 -845t214 -845t592 -587t850 -212zM2272 520q-221 0 -383.5 64t-249.5 183.5t-87 284.5
q0 104 43 193.5t126 154t199 96.5q-90 34 -152.5 88.5t-95 127t-32.5 160.5q0 141 77 243.5t219.5 157.5t335.5 55t335.5 -55t219.5 -157.5t77 -243.5q0 -86 -32 -159t-94.5 -128t-153.5 -89q117 -32 199.5 -95t125.5 -152t43 -197q0 -165 -87 -284.5t-249.5 -183.5
t-383.5 -64zM2272 1600q104 0 176.5 27.5t110 82t37.5 134.5q0 79 -37.5 131.5t-109.5 78.5t-177 26t-177 -26t-109.5 -78.5t-37.5 -131.5q0 -80 37.5 -134.5t110 -82t176.5 -27.5z" />
    <glyph glyph-name="uni2468" unicode="&#x2468;" horiz-adv-x="4544" 
d="M2272 -540q-574 0 -1034 254.5t-721 702.5t-261 1007t261 1007t721 702.5t1034 254.5q572 0 1032.5 -254.5t722 -703t261.5 -1006.5q0 -560 -261.5 -1008t-721.5 -702t-1033 -254zM2272 -220q472 0 850 212t592 587t214 845t-214 845t-592 587t-850 212t-850 -212
t-592 -587t-214 -845t214 -845t592 -587t850 -212zM2228 520q-152 0 -275 43.5t-209 123.5t-128 189l304 84q26 -51 67.5 -91.5t103 -64.5t141.5 -24q142 0 238 76.5t143 202t47 273.5v8v8q-55 -59 -130.5 -100.5t-165.5 -62.5t-188 -21q-177 0 -315 67t-215.5 195
t-77.5 306q0 181 81 315.5t233 207.5t362 73q245 0 404.5 -104t235.5 -296t76 -460q0 -298 -82.5 -510t-246.5 -325t-403 -113zM2224 1416q87 0 164 27t141.5 77.5t114.5 123.5q-4 141 -53 236.5t-138.5 143.5t-216.5 48q-111 0 -191 -39.5t-122.5 -113t-42.5 -175.5
q0 -100 41 -174t118.5 -114t184.5 -40z" />
    <glyph glyph-name="uni24EA" unicode="&#x24ea;" horiz-adv-x="4544" 
d="M2272 -540q-572 0 -1032.5 254.5t-722 703t-261.5 1006.5q0 560 261.5 1008t721.5 702t1033 254q574 0 1034 -254.5t721 -702.5t261 -1007t-261 -1007t-721 -702.5t-1034 -254.5zM2272 -220q472 0 850 212t592 587t214 845t-214 845t-592 587t-850 212t-850 -212
t-592 -587t-214 -845t214 -845t592 -587t850 -212zM2272 520q-239 0 -403.5 103.5t-248.5 305.5t-84 495q0 292 83.5 494t247.5 306t405 104q243 0 408 -104t248.5 -306t83.5 -494q0 -294 -84 -495.5t-249.5 -305t-406.5 -103.5zM2272 804q139 0 228.5 62.5t134.5 199
t45 358.5q0 220 -45 357t-135 200t-228 63t-227 -63t-133 -199.5t-44 -357.5q0 -223 44 -359t132.5 -198.5t227.5 -62.5z" />
    <glyph glyph-name="uni24FF" unicode="&#x24ff;" horiz-adv-x="4544" 
d="M2272 -540q-572 0 -1032.5 254.5t-722 703t-261.5 1006.5q0 560 261.5 1008t721.5 702t1033 254q574 0 1034 -254.5t721 -702.5t261 -1007t-261 -1007t-721 -702.5t-1034 -254.5zM2272 520q241 0 406.5 103.5t249.5 305t84 495.5q0 292 -83.5 494t-248.5 306t-408 104
q-241 0 -405 -104t-247.5 -306t-83.5 -494q0 -293 84 -495t248.5 -305.5t403.5 -103.5zM2272 804q-139 0 -227.5 62.5t-132.5 198.5t-44 359q0 221 44 357.5t133 199.5t227 63t228 -63t135 -200t45 -357q0 -222 -45 -358.5t-134.5 -199t-228.5 -62.5z" />
    <glyph glyph-name="filledbox" unicode="&#x25a0;" horiz-adv-x="4544" 
d="M456 -352v3552h3632v-3552h-3632z" />
    <glyph glyph-name="uni25A1" unicode="&#x25a1;" horiz-adv-x="4544" 
d="M456 -352v3552h3632v-3552h-3632zM816 -32h2912v2912h-2912v-2912z" />
    <glyph glyph-name="lozenge" unicode="&#x25ca;" horiz-adv-x="2204" 
d="M868 0l-696 1424l696 1424h468l696 -1424l-696 -1424h-468zM1056 96l616 1328l-616 1328h88l-616 -1328l616 -1328h-88z" />
    <glyph glyph-name="circle" unicode="&#x25cb;" horiz-adv-x="4544" 
d="M2272 -540q-572 0 -1032.5 254.5t-722 703t-261.5 1006.5q0 560 261.5 1008t721.5 702t1033 254q574 0 1034 -254.5t721 -702.5t261 -1007t-261 -1007t-721 -702.5t-1034 -254.5zM2272 -220q472 0 850 212t592 587t214 845t-214 845t-592 587t-850 212t-850 -212
t-592 -587t-214 -845t214 -845t592 -587t850 -212z" />
    <glyph glyph-name="uni25CF" unicode="&#x25cf;" horiz-adv-x="4544" 
d="M2272 -540q-572 0 -1032.5 254.5t-722 703t-261.5 1006.5q0 560 261.5 1008t721.5 702t1033 254q574 0 1034 -254.5t721 -702.5t261 -1007t-261 -1007t-721 -702.5t-1034 -254.5z" />
    <glyph glyph-name="uni2776" unicode="&#x2776;" horiz-adv-x="4544" 
d="M2272 -540q-572 0 -1032.5 254.5t-722 703t-261.5 1006.5q0 560 261.5 1008t721.5 702t1033 254q574 0 1034 -254.5t721 -702.5t261 -1007t-261 -1007t-721 -702.5t-1034 -254.5zM2164 576h308v1708h-272q-23 -103 -83 -166t-151 -90.5t-214 -27.5v-296q81 0 154.5 10
t139.5 32.5t118 57.5v-1228z" />
    <glyph glyph-name="uni2777" unicode="&#x2777;" horiz-adv-x="4544" 
d="M2272 -540q-572 0 -1032.5 254.5t-722 703t-261.5 1006.5q0 560 261.5 1008t721.5 702t1033 254q574 0 1034 -254.5t721 -702.5t261 -1007t-261 -1007t-721 -702.5t-1034 -254.5zM1592 576h1320v276h-600h-344q9 60 36 103t92 88.5t188 104.5l208 100q148 71 241 150
t138 174.5t45 215.5q0 168 -82 288t-228.5 182t-337.5 62q-213 0 -356.5 -74.5t-215.5 -209t-76 -316.5h320q4 109 33 179.5t99.5 109.5t195.5 39q109 0 182.5 -32t109.5 -90.5t36 -137.5q0 -72 -29 -126.5t-82.5 -96.5t-132.5 -81l-340 -164q-142 -68 -234.5 -169.5
t-139 -242.5t-46.5 -328v-4z" />
    <glyph glyph-name="uni2778" unicode="&#x2778;" horiz-adv-x="4544" 
d="M2272 -540q-572 0 -1032.5 254.5t-722 703t-261.5 1006.5q0 560 261.5 1008t721.5 702t1033 254q574 0 1034 -254.5t721 -702.5t261 -1007t-261 -1007t-721 -702.5t-1034 -254.5zM2276 520q210 0 366 66t239 184t83 270q0 107 -41 193t-118 145.5t-185 89.5
q92 25 156 80.5t96 132t32 167.5q0 144 -78.5 252.5t-226.5 168t-351 59.5q-202 0 -350.5 -62t-229 -181t-80.5 -285h320q6 90 45.5 149.5t114 89t184.5 29.5q106 0 180.5 -28t113 -83.5t38.5 -136.5q0 -76 -33.5 -129t-100.5 -80t-166 -27h-156v-276h156q118 0 198 -29
t121 -87t41 -144q0 -90 -41 -149.5t-122 -89t-201 -29.5q-130 0 -211.5 35t-121 102.5t-43.5 170.5h-320q0 -183 85.5 -310.5t241 -192.5t365.5 -65z" />
    <glyph glyph-name="uni2779" unicode="&#x2779;" horiz-adv-x="4544" 
d="M2272 -540q-572 0 -1032.5 254.5t-722 703t-261.5 1006.5q0 560 261.5 1008t721.5 702t1033 254q574 0 1034 -254.5t721 -702.5t261 -1007t-261 -1007t-721 -702.5t-1034 -254.5zM1816 1208l556 736v-744zM2372 576h308v392l304 -8v248l-304 -8v1084h-328l-808 -1056
v-268l828 8v-392z" />
    <glyph glyph-name="uni277A" unicode="&#x277a;" horiz-adv-x="4544" 
d="M2272 -540q-572 0 -1032.5 254.5t-722 703t-261.5 1006.5q0 560 261.5 1008t721.5 702t1033 254q574 0 1034 -254.5t721 -702.5t261 -1007t-261 -1007t-721 -702.5t-1034 -254.5zM2248 520q229 0 388 80.5t237.5 217.5t78.5 306q0 161 -69.5 290.5t-210 205.5t-344.5 76
q-90 0 -163 -14t-129.5 -39t-103.5 -59l72 436h820v264h-1040l-168 -892l320 -68q34 38 78.5 65.5t104.5 43t133 15.5q121 0 206.5 -43t129.5 -119.5t44 -177.5q0 -100 -44.5 -173t-129.5 -112t-206 -39q-87 0 -159 22.5t-125 71.5t-80 126l-316 -68q42 -135 135.5 -228
t231 -140.5t309.5 -47.5z" />
    <glyph glyph-name="uni277B" unicode="&#x277b;" horiz-adv-x="4544" 
d="M2272 -540q-572 0 -1032.5 254.5t-722 703t-261.5 1006.5q0 560 261.5 1008t721.5 702t1033 254q574 0 1034 -254.5t721 -702.5t261 -1007t-261 -1007t-721 -702.5t-1034 -254.5zM2296 776q-130 0 -220 50.5t-137 146.5t-51 231q50 73 114.5 123.5t141.5 77.5t164 27
q107 0 184.5 -40t118.5 -114t41 -174q0 -102 -42.5 -175.5t-122.5 -113t-191 -39.5zM2288 520q210 0 362 73t233 207.5t81 315.5q0 178 -77.5 306t-215.5 195t-315 67q-98 0 -188 -21t-165.5 -62.5t-130.5 -100.5v8v8q0 152 48 277.5t144.5 200t235.5 74.5q80 0 141.5 -24
t103 -64.5t67.5 -91.5l304 84q-42 109 -128 189t-209 123.5t-275 43.5q-239 0 -403 -113t-246.5 -325t-82.5 -510q0 -269 77 -461t236.5 -295.5t402.5 -103.5z" />
    <glyph glyph-name="uni277C" unicode="&#x277c;" horiz-adv-x="4544" 
d="M2272 -540q-572 0 -1032.5 254.5t-722 703t-261.5 1006.5q0 560 261.5 1008t721.5 702t1033 254q574 0 1034 -254.5t721 -702.5t261 -1007t-261 -1007t-721 -702.5t-1034 -254.5zM2236 576q32 349 119.5 614.5t233.5 468.5t363 373v252h-1324v-264h944
q-190 -169 -326 -383t-220 -478.5t-114 -582.5h324z" />
    <glyph glyph-name="uni277D" unicode="&#x277d;" horiz-adv-x="4544" 
d="M2272 -540q-572 0 -1032.5 254.5t-722 703t-261.5 1006.5q0 560 261.5 1008t721.5 702t1033 254q574 0 1034 -254.5t721 -702.5t261 -1007t-261 -1007t-721 -702.5t-1034 -254.5zM2272 768q-128 0 -216.5 33.5t-134 100.5t-45.5 166q0 97 45.5 162t133.5 97.5t217 32.5
t217 -32.5t133.5 -97.5t45.5 -162q0 -99 -45.5 -166t-134 -100.5t-216.5 -33.5zM2272 520q221 0 383.5 64t249.5 183.5t87 284.5q0 108 -43 197t-125.5 152t-199.5 95q91 34 153.5 89t94.5 128t32 159q0 141 -77 243.5t-219.5 157.5t-335.5 55t-335.5 -55t-219.5 -157.5
t-77 -243.5q0 -88 32.5 -160.5t95 -127t152.5 -88.5q-116 -32 -199 -96.5t-126 -154t-43 -193.5q0 -165 87 -284.5t249.5 -183.5t383.5 -64zM2272 1600q-104 0 -176.5 27.5t-110 82t-37.5 134.5q0 79 37.5 131.5t109.5 78.5t177 26t177 -26t109.5 -78.5t37.5 -131.5
q0 -80 -37.5 -134.5t-110 -82t-176.5 -27.5z" />
    <glyph glyph-name="uni277E" unicode="&#x277e;" horiz-adv-x="4544" 
d="M2272 -540q-572 0 -1032.5 254.5t-722 703t-261.5 1006.5q0 560 261.5 1008t721.5 702t1033 254q574 0 1034 -254.5t721 -702.5t261 -1007t-261 -1007t-721 -702.5t-1034 -254.5zM2228 520q239 0 403 113t246.5 325t82.5 510q0 268 -76 460t-235.5 296t-404.5 104
q-210 0 -362 -73t-233 -207.5t-81 -315.5q0 -178 77.5 -306t215.5 -195t315 -67q98 0 188 21t165.5 62.5t130.5 100.5v-8v-8q0 -148 -47 -273.5t-143 -202t-238 -76.5q-80 0 -141.5 24t-103 64.5t-67.5 91.5l-304 -84q42 -109 128 -189t209 -123.5t275 -43.5zM2224 1416
q-107 0 -184.5 40t-118.5 114t-41 174q0 102 42.5 175.5t122.5 113t191 39.5q127 0 216.5 -48t138.5 -143.5t53 -236.5q-50 -73 -114.5 -123.5t-141.5 -77.5t-164 -27z" />
    <glyph glyph-name="uni2E18" unicode="&#x2e18;" horiz-adv-x="2436" 
d="M1360 1588l60 -1092v-332h-372v332l60 660h100q-26 -93 -68 -165t-101.5 -130.5t-142.5 -112.5q-10 -7 -19.5 -13t-18.5 -13q-99 -72 -156 -153.5t-79.5 -164t-22.5 -168.5q0 -173 81.5 -284t222 -161.5t324.5 -50.5q224 0 365.5 73t209.5 211t76 340h354
q-17 -283 -129.5 -488.5t-331.5 -318.5t-544 -113q-291 0 -509 86.5t-340.5 264.5t-122.5 445q0 142 39 273.5t137.5 256.5t266.5 229q5 4 10.5 7t10.5 6q144 84 217.5 159t105.5 167.5t49 249.5h268zM1456 2344v-404h-452v404h452z" />
    <glyph glyph-name="uniFEFF" unicode="&#xfeff;" 
 />
    <glyph glyph-name="Adieresis.ss01" horiz-adv-x="2864" 
d="M120 0l1104 2848h420l1100 -2848h-412l-684 1904q-50 139 -93 265t-82.5 248t-80.5 255h84q-36 -124 -75.5 -244.5t-87 -253.5t-97.5 -270l-700 -1904h-396zM652 836l120 324h1344l112 -324h-1576zM1832 3112q-69 0 -123.5 31t-85.5 85.5t-31 123.5t30.5 122.5t85.5 83.5
t124 30t124 -30t85.5 -83.5t30.5 -122.5t-31 -123.5t-85.5 -85.5t-123.5 -31zM1040 3112q-69 0 -123.5 31t-85.5 85.5t-31 123.5t30.5 122.5t85.5 83.5t124 30t124 -30t85.5 -83.5t30.5 -122.5t-31 -123.5t-85.5 -85.5t-123.5 -31z" />
    <glyph glyph-name="Cdotaccent.ss01" horiz-adv-x="3048" 
d="M1604 -68q-410 0 -715.5 191t-469 530t-163.5 771q0 434 165.5 768.5t470 521t708.5 186.5q311 0 574 -112t435 -318.5t219 -481.5h-380q-48 187 -164.5 319.5t-287.5 200.5t-380 68q-304 0 -524.5 -138.5t-338 -398t-117.5 -615.5q0 -357 117 -620.5t337.5 -405.5
t525.5 -142q238 0 422 88t301 262.5t152 429.5h367q-47 -341 -212.5 -590t-431.5 -381.5t-610 -132.5zM1600 3112q-71 0 -126.5 30.5t-86.5 85.5t-31 124t31 122.5t86.5 83.5t126.5 30t126.5 -30t86.5 -83.5t31 -122.5t-31 -124t-86.5 -85.5t-126.5 -30.5z" />
    <glyph glyph-name="Edieresis.ss01" horiz-adv-x="2652" 
d="M340 0v2848h2016v-324h-1644v-2200h1680v-324h-2052zM528 1304v324h1700v-324h-1700zM1780 3112q-69 0 -123.5 31t-85.5 85.5t-31 123.5t30.5 122.5t85.5 83.5t124 30t124 -30t85.5 -83.5t30.5 -122.5t-31 -123.5t-85.5 -85.5t-123.5 -31zM988 3112q-69 0 -123.5 31
t-85.5 85.5t-31 123.5t30.5 122.5t85.5 83.5t124 30t124 -30t85.5 -83.5t30.5 -122.5t-31 -123.5t-85.5 -85.5t-123.5 -31z" />
    <glyph glyph-name="Edotaccent.ss01" horiz-adv-x="2652" 
d="M340 0v2848h2016v-324h-1644v-2200h1680v-324h-2052zM528 1304v324h1700v-324h-1700zM1384 3112q-71 0 -126.5 30.5t-86.5 85.5t-31 124t31 122.5t86.5 83.5t126.5 30t126.5 -30t86.5 -83.5t31 -122.5t-31 -124t-86.5 -85.5t-126.5 -30.5z" />
    <glyph glyph-name="uni0122.ss01" horiz-adv-x="3228" 
d="M1604 -64q-390 0 -696 181t-479 519.5t-173 795.5q0 438 163.5 770t473.5 515t735 183q322 0 579.5 -107t420 -307.5t208.5 -473.5l-360 -24q-41 197 -158.5 327t-289 191.5t-380.5 61.5q-322 0 -549.5 -139.5t-345 -397.5t-117.5 -611q0 -346 113 -606t333 -403
t530 -143q278 0 472.5 116.5t302 335.5t129.5 528h232v-152q-38 -330 -168 -590t-373.5 -415t-602.5 -155zM2592 0l-72 444v756h-864v324h1232v-1524h-296zM1584 -312q85 0 146 -33t93.5 -100t32.5 -167q0 -120 -47 -210.5t-141 -152t-236 -93.5l-52 -12v160l52 12
q76 18 129 50.5t80 78t27 103.5q0 25 -5.5 54.5t-17.5 62.5q-5 15 -12.5 31t-16.5 32l152 -156q-16 -8 -44 -14.5t-64.5 -10t-75.5 -3.5q-73 0 -125 22.5t-79.5 63t-27.5 94.5t27.5 97t80 67t124.5 24z" />
    <glyph glyph-name="Gdotaccent.ss01" horiz-adv-x="3228" 
d="M1604 -64q-390 0 -696 181t-479 519.5t-173 795.5q0 438 163.5 770t473.5 515t735 183q322 0 579.5 -107t420 -307.5t208.5 -473.5l-360 -24q-41 197 -158.5 327t-289 191.5t-380.5 61.5q-322 0 -549.5 -139.5t-345 -397.5t-117.5 -611q0 -346 113 -606t333 -403
t530 -143q278 0 472.5 116.5t302 335.5t129.5 528h232v-152q-38 -330 -168 -590t-373.5 -415t-602.5 -155zM2592 0l-72 444v756h-864v324h1232v-1524h-296zM1628 3112q-71 0 -126.5 30.5t-86.5 85.5t-31 124t31 122.5t86.5 83.5t126.5 30t126.5 -30t86.5 -83.5t31 -122.5
t-31 -124t-86.5 -85.5t-126.5 -30.5z" />
    <glyph glyph-name="Idieresis.ss01" horiz-adv-x="1052" 
d="M340 0v2848h372v-2848h-372zM188 3112q-65 0 -117 31t-81.5 85.5t-29.5 123.5t29.5 122.5t81.5 83.5t117 30t117 -30t81.5 -83.5t29.5 -122.5t-29.5 -123.5t-81.5 -85.5t-117 -31zM860 3112q-65 0 -117 31t-81.5 85.5t-29.5 123.5t29.5 122.5t81.5 83.5t117 30t117 -30
t81.5 -83.5t29.5 -122.5t-29.5 -123.5t-81.5 -85.5t-117 -31z" />
    <glyph glyph-name="Idotaccent.ss01" horiz-adv-x="1052" 
d="M340 0v2848h372v-2848h-372zM524 3112q-71 0 -126.5 30.5t-86.5 85.5t-31 124t31 122.5t86.5 83.5t126.5 30t126.5 -30t86.5 -83.5t31 -122.5t-31 -124t-86.5 -85.5t-126.5 -30.5z" />
    </font>
</defs>
</svg>
