<svg version="1.2" xmlns="http://www.w3.org/2000/svg" viewBox="0 0 1000 295" width="1000" height="295">
	<title>SuperYou-RGB-Red-ai</title>
	<style>
		.s0 { fill: #faf8f8 } 
	</style>
	<g id="Layer 1">
		<path id="&lt;Compound Path&gt;" fill-rule="evenodd" class="s0" d="m556.2 172h-5.9l5.8 106.8h-55.4l-0.5-256.6h44.5c35 0 61.7 18.2 66.6 55.5 0.2 1.7 2.7 20.9 2.9 22.6 2.9 21.9-5.7 39.4-20.6 50.1l1.4 0.6c19.7 8.8 23.9 21.6 30.1 47.2 6.7 28.1 19.2 80.6 19.2 80.6h-55.9c0 0-11-67.6-14.1-87.2-2.3-14.2-7.4-19.6-18.1-19.6zm-4.7-39.3c11.1 0 18.6-8.9 16.9-29.3 0-1-1.4-18.8-1.5-19.9-1.6-20.5-8.8-29-19.9-29h-3.1l4.3 78.2zm112.3 60.2l-62.5-170.7h39l35.6 102.7-4.7-102.7h39l4.5 170.7 19.1 85.9h-55.4zm-636.3 5.5c-12.7 26.3-10.5 34.1-2.9 34.1 7 0 15.9-6.6 23.7-23.7 12.9-28.3 6.1-44.8-0.7-61.8-8.2-19.9-17.1-40 2.4-76.8 17.3-32.7 45.2-50.2 73.8-50.2 33.6 0 39.4 22.2 27.1 52.3l-9.9 24.3h-39.9c3.4-7.5 5.6-12.2 8-17.6 10-21.9 8.3-28.3 1.7-28.3-5.3 0-12 5.4-17.8 17.6-9.8 20.4-3.6 33.6 4 48.3 9.9 19.1 21.4 41.3 2.3 88.4-20.4 50.2-58.9 77.7-95.5 77.7q-1.9 0-3.8-0.1v-110.4h40.1zm420.7-143.8l-3.4 56.4h34.7l-0.8 39.7h-36.3l-4.6 76.2h51.3l-0.5 52h-109.9l29.2-256.6h83.1l-0.3 32.3zm286.8 78.2c-22.3-85.6-14.6-112.7 23.2-112.7 37.8 0 63.4 27.1 96.9 112.7 41.3 105.6 38.7 149.9-11.5 149.9-50.3 0-81.3-44.3-108.6-149.9zm47.7 0c22.8 73.1 33.9 98.4 44.1 98.4 9.8 0 4.9-25.3-19.8-98.4-21.3-62.9-30.5-80.9-38.5-80.9-8.4 0-5.4 18 14.2 80.9zm217.3 149.7q-3.2 0.2-6.6 0.2c-40.4 0-77.5-25.7-95-69.2l-77.1-191.2h42.7l89 195c4.6 10 10.7 15.3 17 15.3 6.2 0 7.4-5.3 2.7-15.3l-92.9-195h42.7l77.5 146.3zm-714-3.6h-55.9l65.2-256.6h42.7c38.2 0 58.9 20.2 53.7 61.9-0.1 0.9-2.8 23.4-3 24.3-7.1 48.3-38 74.7-83.5 74.7zm27.9-138.5h2.5c11.9 0 21.5-9.8 26.3-34 0.2-0.8 3.3-18.5 3.4-19.3 4.2-24-1.5-32.5-12.6-32.5h-2.3zm-155.5 77c-3.4 10-1.5 15.3 4.8 15.3 6.2 0 11.6-5.3 14.9-15.3l62.8-195h42.7l-51.4 191.2c-11.7 43.6-45.3 69.3-85.7 69.3-40.4 0-56.9-25.7-39.7-69.3l75.6-191.2h42.7z"/>
	</g>
</svg>